{"glyphs":{"0":{"ha":556,"x_min":47,"x_max":507,"o":"m 118 243 l 415 699 l 439 601 l 143 154 l 118 243 m 278 -15 q 156 33 207 -15 q 76 179 104 81 q 47 428 47 278 q 76 674 47 575 q 156 823 104 772 q 278 874 207 874 q 400 823 349 874 q 479 674 451 772 q 507 428 507 575 q 479 179 507 278 q 400 33 451 81 q 278 -15 349 -15 m 278 89 q 342 126 317 89 q 380 239 367 164 q 393 428 393 314 q 380 613 393 538 q 342 727 367 688 q 278 767 317 767 q 215 727 240 767 q 175 613 189 688 q 161 428 161 538 q 175 239 161 314 q 215 126 189 164 q 278 89 242 89 z "},"1":{"ha":556,"x_min":83,"x_max":353,"o":"m 235 0 l 235 711 l 107 658 l 83 746 l 269 867 l 353 867 l 353 0 l 235 0 z "},"2":{"ha":556,"x_min":53,"x_max":496,"o":"m 71 94 q 181 235 132 172 q 265 349 229 297 q 326 447 301 401 q 364 535 351 492 q 376 626 376 579 q 371 688 378 663 q 351 731 364 714 q 321 756 339 747 q 281 764 303 764 q 239 758 258 764 q 201 740 219 753 q 168 704 183 726 q 155 674 157 685 q 156 653 153 664 l 150 643 l 139 650 l 53 703 q 110 795 76 757 q 187 853 143 833 q 283 874 231 874 q 392 844 346 874 q 465 760 439 815 q 492 625 492 704 q 478 521 492 571 q 441 423 465 471 q 383 326 417 375 q 309 222 350 276 q 221 108 268 168 l 433 108 q 467 111 457 108 q 485 121 476 114 l 496 121 l 496 108 l 496 0 l 71 0 l 71 94 z "},"3":{"ha":556,"x_min":56,"x_max":488,"o":"m 264 -15 q 146 13 200 -15 q 56 92 92 40 l 126 171 l 136 179 l 143 172 q 147 152 144 163 q 164 125 150 142 q 205 97 182 107 q 257 88 228 88 q 319 106 294 88 q 356 159 343 124 q 369 243 369 194 q 358 323 369 290 q 323 374 346 356 q 266 399 300 392 q 188 400 232 406 l 188 500 q 271 510 239 499 q 320 544 303 522 q 344 593 338 565 q 350 651 350 621 q 344 701 350 679 q 326 739 338 724 q 298 762 314 754 q 263 769 282 769 q 222 763 242 769 q 183 741 201 756 q 150 704 165 726 l 74 768 q 163 848 113 822 q 267 874 213 874 q 371 848 326 874 q 440 773 415 822 q 465 656 465 724 q 453 571 465 610 q 417 503 440 532 q 360 460 393 475 q 424 415 396 444 q 470 342 453 386 q 488 239 488 299 q 460 106 488 164 q 383 17 433 49 q 264 -15 333 -15 l 264 -15 z "},"4":{"ha":556,"x_min":51,"x_max":532,"o":"m 333 0 l 333 207 l 51 207 l 51 297 l 358 867 l 450 867 l 450 313 l 532 313 l 532 206 l 450 206 l 450 0 l 333 0 m 172 313 l 335 313 l 335 619 l 172 313 z "},"5":{"ha":556,"x_min":61,"x_max":506,"o":"m 279 -15 q 152 17 210 -15 q 61 117 94 49 l 146 181 l 156 189 l 163 181 q 165 160 161 171 q 179 132 168 150 q 222 101 199 111 q 276 90 246 90 q 322 103 301 90 q 358 141 343 117 q 382 199 374 165 q 390 275 390 233 q 382 356 390 321 q 359 416 374 392 q 323 453 344 440 q 275 465 301 465 q 232 458 253 465 q 194 435 211 450 q 163 396 178 419 l 89 417 l 113 865 l 475 865 l 475 758 l 215 758 l 204 536 q 236 553 219 546 q 271 564 253 560 q 307 568 289 568 q 389 549 353 568 q 451 494 425 531 q 492 403 478 457 q 506 278 506 349 q 477 118 506 183 q 398 19 449 53 q 279 -15 347 -15 l 279 -15 z "},"6":{"ha":556,"x_min":64,"x_max":499,"o":"m 290 -14 q 167 33 217 -14 q 90 172 117 81 q 64 396 64 264 q 96 663 64 556 q 185 823 128 769 q 319 876 243 876 q 413 856 369 876 q 488 792 456 835 l 424 710 l 417 700 l 408 706 q 402 726 406 717 q 383 749 399 735 q 367 760 376 756 q 347 766 357 764 q 326 768 338 768 q 290 761 310 768 q 253 738 271 754 q 219 690 235 721 q 193 611 203 660 q 181 492 183 563 q 217 530 196 514 q 262 554 238 546 q 311 563 286 563 q 385 544 351 563 q 445 489 419 525 q 485 401 471 453 q 499 279 499 349 q 472 126 499 193 q 399 23 446 60 q 290 -14 353 -14 l 290 -14 m 293 93 q 330 105 313 93 q 360 140 347 117 q 380 198 374 164 q 386 279 386 232 q 378 358 386 325 q 358 413 371 392 q 327 445 344 435 q 292 456 310 456 q 258 449 274 456 q 229 430 243 442 q 204 401 215 418 q 183 363 193 383 q 185 258 179 307 q 207 172 192 210 q 244 114 222 135 q 293 93 265 93 l 293 93 z "},"7":{"ha":556,"x_min":78,"x_max":489,"o":"m 146 0 q 211 256 179 131 q 278 505 243 381 q 353 754 314 629 l 78 754 l 78 865 l 489 865 l 489 794 q 428 599 457 696 q 372 403 399 501 q 320 204 344 304 q 271 0 296 104 l 146 0 z "},"8":{"ha":556,"x_min":56,"x_max":501,"o":"m 278 -14 q 160 16 210 -14 q 83 99 110 46 q 56 219 56 151 q 72 321 56 275 q 117 403 88 367 q 188 464 147 439 q 135 516 157 486 q 100 583 113 546 q 88 661 88 619 q 111 772 88 724 q 178 849 135 821 q 283 878 222 878 q 392 851 349 878 q 456 776 435 824 q 478 669 478 729 q 472 606 478 636 q 453 548 465 575 q 423 499 440 521 q 382 460 406 476 q 433 417 411 442 q 471 363 456 392 q 494 299 486 333 q 501 225 501 264 q 474 100 501 154 q 397 16 447 46 q 278 -14 347 -14 m 281 93 q 338 110 315 93 q 374 157 361 126 q 386 229 386 188 q 378 287 386 260 q 354 336 369 314 q 316 376 339 358 q 265 407 293 394 q 227 377 244 394 q 197 338 210 360 q 178 290 185 317 q 172 233 172 264 q 185 159 172 190 q 223 110 199 128 q 281 93 247 93 m 297 508 q 327 538 314 521 q 349 576 340 556 q 363 618 358 596 q 367 663 367 640 q 357 718 367 694 q 328 756 347 742 q 282 771 308 771 q 235 757 253 771 q 208 719 217 743 q 199 667 199 696 q 206 615 199 638 q 226 573 213 592 q 257 538 239 554 q 297 508 275 522 z "},"9":{"ha":556,"x_min":61,"x_max":496,"o":"m 251 -14 q 150 5 197 -14 q 68 64 103 24 l 128 153 l 136 164 l 146 158 q 151 138 147 149 q 171 111 156 128 q 206 97 188 101 q 244 92 224 92 q 308 119 281 92 q 351 194 335 146 q 376 306 368 243 q 385 438 385 368 q 374 632 386 560 q 339 736 363 704 q 276 768 315 768 q 234 757 253 768 q 201 723 215 746 q 181 666 188 700 q 174 586 174 632 q 181 516 174 546 q 203 465 189 486 q 238 433 218 444 q 278 422 257 422 q 335 432 311 422 q 379 463 360 442 q 415 519 399 485 l 424 407 q 383 359 406 379 q 333 328 361 339 q 271 318 306 318 q 188 336 226 318 q 122 390 150 354 q 77 474 93 425 q 61 588 61 524 q 78 706 61 653 q 124 797 94 760 q 192 854 153 835 q 276 874 232 874 q 399 830 350 874 q 472 702 447 786 q 496 493 496 618 q 468 208 496 319 q 385 42 440 96 q 251 -14 331 -12 l 251 -14 z "},"A":{"ha":556,"x_min":15,"x_max":542,"o":"m 403 221 l 142 221 l 158 315 l 383 315 l 403 221 m 278 596 l 133 0 l 15 0 l 250 876 l 306 876 l 542 0 l 421 0 l 278 596 z "},"Á":{"ha":556,"x_min":15,"x_max":542,"o":"m 403 221 l 142 221 l 158 315 l 383 315 l 403 221 m 278 596 l 133 0 l 15 0 l 250 876 l 306 876 l 542 0 l 421 0 l 278 596 z "},"Ă":{"ha":556,"x_min":15,"x_max":542,"o":"m 403 221 l 142 221 l 158 315 l 383 315 l 403 221 m 278 596 l 133 0 l 15 0 l 250 876 l 306 876 l 542 0 l 421 0 l 278 596 z "},"Ắ":{"ha":556,"x_min":15,"x_max":542,"o":"m 403 221 l 142 221 l 158 315 l 383 315 l 403 221 m 278 596 l 133 0 l 15 0 l 250 876 l 306 876 l 542 0 l 421 0 l 278 596 z "},"Ặ":{"ha":556,"x_min":15,"x_max":542,"o":"m 403 221 l 142 221 l 158 315 l 383 315 l 403 221 m 278 596 l 133 0 l 15 0 l 250 876 l 306 876 l 542 0 l 421 0 l 278 596 z "},"Ằ":{"ha":556,"x_min":15,"x_max":542,"o":"m 403 221 l 142 221 l 158 315 l 383 315 l 403 221 m 278 596 l 133 0 l 15 0 l 250 876 l 306 876 l 542 0 l 421 0 l 278 596 z "},"Ẳ":{"ha":556,"x_min":15,"x_max":542,"o":"m 403 221 l 142 221 l 158 315 l 383 315 l 403 221 m 278 596 l 133 0 l 15 0 l 250 876 l 306 876 l 542 0 l 421 0 l 278 596 m 383 1231 q 373 1186 383 1204 q 349 1153 363 1168 q 326 1122 336 1139 q 315 1082 315 1106 l 315 1068 l 235 1068 l 235 1106 q 244 1140 235 1125 q 267 1169 254 1156 q 290 1195 281 1182 q 300 1221 300 1208 q 290 1247 300 1238 q 265 1256 281 1256 q 234 1247 249 1256 q 210 1213 219 1238 l 168 1285 q 217 1325 189 1313 q 276 1338 246 1338 q 331 1324 307 1338 q 369 1288 356 1311 q 383 1231 383 1264 z "},"Ẵ":{"ha":556,"x_min":15,"x_max":542,"o":"m 403 221 l 142 221 l 158 315 l 383 315 l 403 221 m 278 596 l 133 0 l 15 0 l 250 876 l 306 876 l 542 0 l 421 0 l 278 596 m 364 1290 l 428 1258 q 384 1181 410 1208 q 328 1153 358 1153 q 288 1164 306 1153 q 257 1189 271 1175 q 231 1213 243 1203 q 208 1224 219 1224 q 182 1209 193 1224 q 163 1171 171 1194 l 97 1203 q 140 1281 111 1251 q 199 1310 168 1310 q 239 1299 221 1310 q 272 1274 257 1289 q 299 1249 286 1260 q 322 1239 311 1239 q 344 1252 335 1239 q 364 1290 354 1265 z "},"Â":{"ha":556,"x_min":15,"x_max":542,"o":"m 403 221 l 142 221 l 158 315 l 383 315 l 403 221 m 278 596 l 133 0 l 15 0 l 250 876 l 306 876 l 542 0 l 421 0 l 278 596 m 133 904 l 90 968 l 263 1107 l 293 1107 l 465 969 l 422 904 l 279 999 l 133 904 z "},"Ấ":{"ha":556,"x_min":15,"x_max":611,"o":"m 403 221 l 142 221 l 158 315 l 383 315 l 403 221 m 278 596 l 133 0 l 15 0 l 250 876 l 306 876 l 542 0 l 421 0 l 278 596 z "},"Ậ":{"ha":556,"x_min":15,"x_max":542,"o":"m 403 221 l 142 221 l 158 315 l 383 315 l 403 221 m 278 596 l 133 0 l 15 0 l 250 876 l 306 876 l 542 0 l 421 0 l 278 596 m 133 904 l 90 968 l 263 1107 l 293 1107 l 465 969 l 422 904 l 279 999 l 133 904 z "},"Ầ":{"ha":556,"x_min":15,"x_max":542,"o":"m 403 221 l 142 221 l 158 315 l 383 315 l 403 221 m 278 596 l 133 0 l 15 0 l 250 876 l 306 876 l 542 0 l 421 0 l 278 596 z "},"Ẩ":{"ha":556,"x_min":15,"x_max":542,"o":"m 403 221 l 142 221 l 158 315 l 383 315 l 403 221 m 278 596 l 133 0 l 15 0 l 250 876 l 306 876 l 542 0 l 421 0 l 278 596 z "},"Ẫ":{"ha":556,"x_min":15,"x_max":542,"o":"m 403 221 l 142 221 l 158 315 l 383 315 l 403 221 m 278 596 l 133 0 l 15 0 l 250 876 l 306 876 l 542 0 l 421 0 l 278 596 z "},"Ȁ":{"ha":556,"x_min":15,"x_max":542,"o":"m 403 221 l 142 221 l 158 315 l 383 315 l 403 221 m 278 596 l 133 0 l 15 0 l 250 876 l 306 876 l 542 0 l 421 0 l 278 596 z "},"Ä":{"ha":556,"x_min":15,"x_max":542,"o":"m 403 221 l 142 221 l 158 315 l 383 315 l 403 221 m 278 596 l 133 0 l 15 0 l 250 876 l 306 876 l 542 0 l 421 0 l 278 596 z "},"Ạ":{"ha":556,"x_min":15,"x_max":542,"o":"m 403 221 l 142 221 l 158 315 l 383 315 l 403 221 m 278 596 l 133 0 l 15 0 l 250 876 l 306 876 l 542 0 l 421 0 l 278 596 z "},"À":{"ha":556,"x_min":15,"x_max":542,"o":"m 403 221 l 142 221 l 158 315 l 383 315 l 403 221 m 278 596 l 133 0 l 15 0 l 250 876 l 306 876 l 542 0 l 421 0 l 278 596 z "},"Ả":{"ha":556,"x_min":15,"x_max":542,"o":"m 403 221 l 142 221 l 158 315 l 383 315 l 403 221 m 278 596 l 133 0 l 15 0 l 250 876 l 306 876 l 542 0 l 421 0 l 278 596 m 393 1114 q 383 1069 393 1088 q 359 1037 372 1051 q 335 1006 346 1022 q 325 965 325 989 l 325 951 l 244 951 l 244 989 q 254 1024 244 1008 q 277 1052 264 1039 q 300 1078 290 1065 q 310 1104 310 1092 q 300 1130 310 1121 q 275 1139 290 1139 q 244 1130 258 1139 q 219 1096 229 1121 l 178 1168 q 227 1208 199 1196 q 286 1221 256 1221 q 341 1208 317 1221 q 379 1171 365 1194 q 393 1114 393 1147 z "},"Ȃ":{"ha":556,"x_min":15,"x_max":542,"o":"m 403 221 l 142 221 l 158 315 l 383 315 l 403 221 m 278 596 l 133 0 l 15 0 l 250 876 l 306 876 l 542 0 l 421 0 l 278 596 m 192 964 l 113 999 q 182 1097 139 1064 q 278 1131 225 1131 q 375 1097 331 1131 q 444 999 419 1064 l 365 964 q 328 1030 350 1008 q 278 1051 307 1051 q 242 1042 258 1051 q 214 1013 226 1032 q 192 964 201 993 z "},"Ā":{"ha":556,"x_min":15,"x_max":542,"o":"m 403 221 l 142 221 l 158 315 l 383 315 l 403 221 m 278 596 l 133 0 l 15 0 l 250 876 l 306 876 l 542 0 l 421 0 l 278 596 z "},"Ą":{"ha":556,"x_min":15,"x_max":542,"o":"m 403 221 l 142 221 l 158 315 l 383 315 l 403 221 m 278 596 l 133 0 l 15 0 l 250 876 l 306 876 l 542 0 l 421 0 l 278 596 m 494 -222 l 456 -325 q 379 -291 410 -312 q 332 -242 349 -269 q 315 -181 315 -214 q 333 -108 315 -144 q 383 -35 350 -71 q 463 33 415 1 l 506 0 q 460 -51 479 -25 q 432 -101 442 -78 q 422 -146 422 -125 q 440 -192 422 -172 q 494 -222 458 -212 z "},"Å":{"ha":556,"x_min":15,"x_max":542,"o":"m 403 221 l 142 221 l 158 315 l 383 315 l 403 221 m 278 596 l 133 0 l 15 0 l 250 876 l 306 876 l 542 0 l 421 0 l 278 596 z "},"Ǻ":{"ha":556,"x_min":15,"x_max":542,"o":"m 403 221 l 142 221 l 158 315 l 383 315 l 403 221 m 278 596 l 133 0 l 15 0 l 250 876 l 306 876 l 542 0 l 421 0 l 278 596 z "},"Ã":{"ha":556,"x_min":15,"x_max":542,"o":"m 403 221 l 142 221 l 158 315 l 383 315 l 403 221 m 278 596 l 133 0 l 15 0 l 250 876 l 306 876 l 542 0 l 421 0 l 278 596 z "},"Æ":{"ha":556,"x_min":8,"x_max":551,"o":"m 8 0 l 224 867 l 551 867 l 551 758 l 385 758 l 385 506 l 524 506 l 524 396 l 385 396 l 385 107 l 550 107 l 550 0 l 276 0 l 276 226 l 172 226 l 118 0 l 8 0 m 192 331 l 276 331 l 286 732 l 282 732 l 192 331 z "},"Ǽ":{"ha":556,"x_min":8,"x_max":551,"o":"m 8 0 l 224 867 l 551 867 l 551 758 l 385 758 l 385 506 l 524 506 l 524 396 l 385 396 l 385 107 l 550 107 l 550 0 l 276 0 l 276 226 l 172 226 l 118 0 l 8 0 m 192 331 l 276 331 l 286 732 l 282 732 l 192 331 z "},"B":{"ha":556,"x_min":46,"x_max":518,"o":"m 46 0 l 46 865 l 251 865 q 353 852 308 865 q 428 812 397 839 q 474 745 458 785 q 490 653 490 706 q 479 566 490 604 q 446 502 468 528 q 390 463 424 476 q 442 429 418 450 q 482 381 465 408 q 508 319 499 353 q 518 246 518 285 q 501 142 518 188 q 451 65 485 96 q 368 17 418 33 q 250 0 318 0 l 46 0 m 163 108 l 264 108 q 335 123 306 108 q 380 169 364 138 q 396 251 396 201 q 381 334 396 299 q 333 390 365 369 q 246 410 300 410 l 163 410 l 163 108 m 163 515 l 242 515 q 322 531 293 515 q 362 575 350 547 q 374 640 374 603 q 367 688 374 667 q 346 725 360 710 q 309 749 332 740 q 254 758 286 758 l 163 758 l 163 515 z "},"C":{"ha":556,"x_min":38,"x_max":529,"o":"m 314 -14 q 208 10 257 -14 q 120 86 158 33 q 60 223 82 139 q 39 428 39 307 q 54 610 38 533 q 99 738 71 688 q 164 819 128 789 q 240 862 200 849 q 318 875 279 875 q 448 836 394 875 q 529 728 501 797 l 458 656 l 449 646 l 442 654 q 440 677 442 665 q 428 710 439 689 q 377 755 404 743 q 321 767 350 767 q 256 747 286 767 q 203 687 226 728 q 168 583 181 646 q 156 433 156 521 q 168 287 156 350 q 203 181 181 224 q 255 116 225 138 q 319 94 285 94 q 370 105 347 94 q 413 136 393 115 q 449 188 433 157 l 519 110 q 433 15 482 44 q 314 -14 383 -14 l 314 -14 z "},"Ć":{"ha":556,"x_min":38,"x_max":529,"o":"m 314 -14 q 208 10 257 -14 q 120 86 158 33 q 60 223 82 139 q 39 428 39 307 q 54 610 38 533 q 99 738 71 688 q 164 819 128 789 q 240 862 200 849 q 318 875 279 875 q 448 836 394 875 q 529 728 501 797 l 458 656 l 449 646 l 442 654 q 440 677 442 665 q 428 710 439 689 q 377 755 404 743 q 321 767 350 767 q 256 747 286 767 q 203 687 226 728 q 168 583 181 646 q 156 433 156 521 q 168 287 156 350 q 203 181 181 224 q 255 116 225 138 q 319 94 285 94 q 370 105 347 94 q 413 136 393 115 q 449 188 433 157 l 519 110 q 433 15 482 44 q 314 -14 383 -14 l 314 -14 z "},"Č":{"ha":556,"x_min":38,"x_max":529,"o":"m 314 -14 q 208 10 257 -14 q 120 86 158 33 q 60 223 82 139 q 39 428 39 307 q 54 610 38 533 q 99 738 71 688 q 164 819 128 789 q 240 862 200 849 q 318 875 279 875 q 448 836 394 875 q 529 728 501 797 l 458 656 l 449 646 l 442 654 q 440 677 442 665 q 428 710 439 689 q 377 755 404 743 q 321 767 350 767 q 256 747 286 767 q 203 687 226 728 q 168 583 181 646 q 156 433 156 521 q 168 287 156 350 q 203 181 181 224 q 255 116 225 138 q 319 94 285 94 q 370 105 347 94 q 413 136 393 115 q 449 188 433 157 l 519 110 q 433 15 482 44 q 314 -14 383 -14 l 314 -14 z "},"Ç":{"ha":556,"x_min":38,"x_max":529,"o":"m 314 -14 q 208 10 257 -14 q 120 86 158 33 q 60 223 82 139 q 39 428 39 307 q 54 610 38 533 q 99 738 71 688 q 164 819 128 789 q 240 862 200 849 q 318 875 279 875 q 448 836 394 875 q 529 728 501 797 l 458 656 l 449 646 l 442 654 q 440 677 442 665 q 428 710 439 689 q 377 755 404 743 q 321 767 350 767 q 256 747 286 767 q 203 687 226 728 q 168 583 181 646 q 156 433 156 521 q 168 287 156 350 q 203 181 181 224 q 255 116 225 138 q 319 94 285 94 q 370 105 347 94 q 413 136 393 115 q 449 188 433 157 l 519 110 q 433 15 482 44 q 314 -14 383 -14 l 314 -14 z "},"Ḉ":{"ha":556,"x_min":38,"x_max":529,"o":"m 314 -14 q 208 10 257 -14 q 120 86 158 33 q 60 223 82 139 q 39 428 39 307 q 54 610 38 533 q 99 738 71 688 q 164 819 128 789 q 240 862 200 849 q 318 875 279 875 q 448 836 394 875 q 529 728 501 797 l 458 656 l 449 646 l 442 654 q 440 677 442 665 q 428 710 439 689 q 377 755 404 743 q 321 767 350 767 q 256 747 286 767 q 203 687 226 728 q 168 583 181 646 q 156 433 156 521 q 168 287 156 350 q 203 181 181 224 q 255 116 225 138 q 319 94 285 94 q 370 105 347 94 q 413 136 393 115 q 449 188 433 157 l 519 110 q 433 15 482 44 q 314 -14 383 -14 l 314 -14 z "},"Ĉ":{"ha":556,"x_min":38,"x_max":529,"o":"m 314 -14 q 208 10 257 -14 q 120 86 158 33 q 60 223 82 139 q 39 428 39 307 q 54 610 38 533 q 99 738 71 688 q 164 819 128 789 q 240 862 200 849 q 318 875 279 875 q 448 836 394 875 q 529 728 501 797 l 458 656 l 449 646 l 442 654 q 440 677 442 665 q 428 710 439 689 q 377 755 404 743 q 321 767 350 767 q 256 747 286 767 q 203 687 226 728 q 168 583 181 646 q 156 433 156 521 q 168 287 156 350 q 203 181 181 224 q 255 116 225 138 q 319 94 285 94 q 370 105 347 94 q 413 136 393 115 q 449 188 433 157 l 519 110 q 433 15 482 44 q 314 -14 383 -14 l 314 -14 m 156 904 l 113 968 l 285 1107 l 315 1107 l 488 969 l 444 904 l 301 999 l 156 904 z "},"Ċ":{"ha":556,"x_min":38,"x_max":529,"o":"m 314 -14 q 208 10 257 -14 q 120 86 158 33 q 60 223 82 139 q 39 428 39 307 q 54 610 38 533 q 99 738 71 688 q 164 819 128 789 q 240 862 200 849 q 318 875 279 875 q 448 836 394 875 q 529 728 501 797 l 458 656 l 449 646 l 442 654 q 440 677 442 665 q 428 710 439 689 q 377 755 404 743 q 321 767 350 767 q 256 747 286 767 q 203 687 226 728 q 168 583 181 646 q 156 433 156 521 q 168 287 156 350 q 203 181 181 224 q 255 116 225 138 q 319 94 285 94 q 370 105 347 94 q 413 136 393 115 q 449 188 433 157 l 519 110 q 433 15 482 44 q 314 -14 383 -14 l 314 -14 z "},"D":{"ha":556,"x_min":50,"x_max":521,"o":"m 50 -1 l 50 865 l 224 865 q 326 853 285 865 q 399 815 368 840 q 451 751 429 790 q 490 665 475 713 q 513 560 506 618 q 521 428 521 501 q 501 246 519 325 q 446 112 483 167 q 350 28 408 57 q 210 -1 292 -1 l 50 -1 m 167 103 l 211 103 q 323 141 281 103 q 385 251 365 179 q 406 424 406 322 q 388 603 406 528 q 331 719 371 678 q 224 760 292 760 l 167 760 l 167 103 z "},"Ð":{"ha":556,"x_min":24,"x_max":532,"o":"m 68 -1 l 68 406 l 24 406 l 24 510 l 68 510 l 68 865 l 239 865 q 330 852 290 865 q 399 817 369 839 q 449 767 428 794 q 485 710 471 739 q 508 645 497 685 q 526 551 519 606 q 532 428 532 497 q 513 238 532 319 q 456 104 494 157 q 360 25 418 51 q 226 -1 303 -1 l 68 -1 m 182 106 l 226 106 q 334 142 292 106 q 397 249 376 178 q 417 424 417 321 q 398 604 417 531 q 340 717 379 678 q 235 756 300 756 l 182 756 l 182 510 l 282 510 l 282 406 l 182 406 l 182 106 z "},"Ď":{"ha":556,"x_min":50,"x_max":521,"o":"m 50 -1 l 50 865 l 224 865 q 326 853 285 865 q 399 815 368 840 q 451 751 429 790 q 490 665 475 713 q 513 560 506 618 q 521 428 521 501 q 501 246 519 325 q 446 112 483 167 q 350 28 408 57 q 210 -1 292 -1 l 50 -1 m 167 103 l 211 103 q 323 141 281 103 q 385 251 365 179 q 406 424 406 322 q 388 603 406 528 q 331 719 371 678 q 224 760 292 760 l 167 760 l 167 103 z "},"Đ":{"ha":556,"x_min":24,"x_max":532,"o":"m 68 -1 l 68 406 l 24 406 l 24 510 l 68 510 l 68 865 l 239 865 q 330 852 290 865 q 399 817 369 839 q 449 767 428 794 q 485 710 471 739 q 508 645 497 685 q 526 551 519 606 q 532 428 532 497 q 513 238 532 319 q 456 104 494 157 q 360 25 418 51 q 226 -1 303 -1 l 68 -1 m 182 106 l 226 106 q 334 142 292 106 q 397 249 376 178 q 417 424 417 321 q 398 604 417 531 q 340 717 379 678 q 235 756 300 756 l 182 756 l 182 510 l 282 510 l 282 406 l 182 406 l 182 106 z "},"Ḍ":{"ha":556,"x_min":50,"x_max":521,"o":"m 50 -1 l 50 865 l 224 865 q 326 853 285 865 q 399 815 368 840 q 451 751 429 790 q 490 665 475 713 q 513 560 506 618 q 521 428 521 501 q 501 246 519 325 q 446 112 483 167 q 350 28 408 57 q 210 -1 292 -1 l 50 -1 m 167 103 l 211 103 q 323 141 281 103 q 385 251 365 179 q 406 424 406 322 q 388 603 406 528 q 331 719 371 678 q 224 760 292 760 l 167 760 l 167 103 z "},"Ḏ":{"ha":556,"x_min":50,"x_max":521,"o":"m 50 -1 l 50 865 l 224 865 q 326 853 285 865 q 399 815 368 840 q 451 751 429 790 q 490 665 475 713 q 513 560 506 618 q 521 428 521 501 q 501 246 519 325 q 446 112 483 167 q 350 28 408 57 q 210 -1 292 -1 l 50 -1 m 167 103 l 211 103 q 323 141 281 103 q 385 251 365 179 q 406 424 406 322 q 388 603 406 528 q 331 719 371 678 q 224 760 292 760 l 167 760 l 167 103 z "},"E":{"ha":556,"x_min":58,"x_max":500,"o":"m 58 0 l 58 867 l 500 867 l 500 758 l 175 758 l 175 506 l 442 506 l 442 397 l 175 397 l 175 108 l 497 108 l 497 0 l 58 0 z "},"É":{"ha":556,"x_min":58,"x_max":500,"o":"m 58 0 l 58 867 l 500 867 l 500 758 l 175 758 l 175 506 l 442 506 l 442 397 l 175 397 l 175 108 l 497 108 l 497 0 l 58 0 z "},"Ĕ":{"ha":556,"x_min":58,"x_max":500,"o":"m 58 0 l 58 867 l 500 867 l 500 758 l 175 758 l 175 506 l 442 506 l 442 397 l 175 397 l 175 108 l 497 108 l 497 0 l 58 0 z "},"Ě":{"ha":556,"x_min":58,"x_max":500,"o":"m 58 0 l 58 867 l 500 867 l 500 758 l 175 758 l 175 506 l 442 506 l 442 397 l 175 397 l 175 108 l 497 108 l 497 0 l 58 0 z "},"Ḝ":{"ha":556,"x_min":58,"x_max":500,"o":"m 58 0 l 58 867 l 500 867 l 500 758 l 175 758 l 175 506 l 442 506 l 442 397 l 175 397 l 175 108 l 497 108 l 497 0 l 58 0 z "},"Ê":{"ha":556,"x_min":58,"x_max":500,"o":"m 58 0 l 58 867 l 500 867 l 500 758 l 175 758 l 175 506 l 442 506 l 442 397 l 175 397 l 175 108 l 497 108 l 497 0 l 58 0 m 147 904 l 104 968 l 276 1107 l 307 1107 l 479 969 l 436 904 l 293 999 l 147 904 z "},"Ế":{"ha":556,"x_min":58,"x_max":625,"o":"m 58 0 l 58 867 l 500 867 l 500 758 l 175 758 l 175 506 l 442 506 l 442 397 l 175 397 l 175 108 l 497 108 l 497 0 l 58 0 z "},"Ệ":{"ha":556,"x_min":58,"x_max":500,"o":"m 58 0 l 58 867 l 500 867 l 500 758 l 175 758 l 175 506 l 442 506 l 442 397 l 175 397 l 175 108 l 497 108 l 497 0 l 58 0 m 147 904 l 104 968 l 276 1107 l 307 1107 l 479 969 l 436 904 l 293 999 l 147 904 z "},"Ề":{"ha":556,"x_min":58,"x_max":500,"o":"m 58 0 l 58 867 l 500 867 l 500 758 l 175 758 l 175 506 l 442 506 l 442 397 l 175 397 l 175 108 l 497 108 l 497 0 l 58 0 z "},"Ể":{"ha":556,"x_min":58,"x_max":544,"o":"m 58 0 l 58 867 l 500 867 l 500 758 l 175 758 l 175 506 l 442 506 l 442 397 l 175 397 l 175 108 l 497 108 l 497 0 l 58 0 z "},"Ễ":{"ha":556,"x_min":58,"x_max":500,"o":"m 58 0 l 58 867 l 500 867 l 500 758 l 175 758 l 175 506 l 442 506 l 442 397 l 175 397 l 175 108 l 497 108 l 497 0 l 58 0 z "},"Ȅ":{"ha":556,"x_min":58,"x_max":500,"o":"m 58 0 l 58 867 l 500 867 l 500 758 l 175 758 l 175 506 l 442 506 l 442 397 l 175 397 l 175 108 l 497 108 l 497 0 l 58 0 z "},"Ë":{"ha":556,"x_min":58,"x_max":500,"o":"m 58 0 l 58 867 l 500 867 l 500 758 l 175 758 l 175 506 l 442 506 l 442 397 l 175 397 l 175 108 l 497 108 l 497 0 l 58 0 z "},"Ė":{"ha":556,"x_min":58,"x_max":500,"o":"m 58 0 l 58 867 l 500 867 l 500 758 l 175 758 l 175 506 l 442 506 l 442 397 l 175 397 l 175 108 l 497 108 l 497 0 l 58 0 z "},"Ẹ":{"ha":556,"x_min":58,"x_max":500,"o":"m 58 0 l 58 867 l 500 867 l 500 758 l 175 758 l 175 506 l 442 506 l 442 397 l 175 397 l 175 108 l 497 108 l 497 0 l 58 0 z "},"È":{"ha":556,"x_min":58,"x_max":500,"o":"m 58 0 l 58 867 l 500 867 l 500 758 l 175 758 l 175 506 l 442 506 l 442 397 l 175 397 l 175 108 l 497 108 l 497 0 l 58 0 z "},"Ẻ":{"ha":556,"x_min":58,"x_max":500,"o":"m 58 0 l 58 867 l 500 867 l 500 758 l 175 758 l 175 506 l 442 506 l 442 397 l 175 397 l 175 108 l 497 108 l 497 0 l 58 0 m 408 1114 q 398 1069 408 1088 q 374 1037 388 1051 q 351 1006 361 1022 q 340 965 340 989 l 340 951 l 260 951 l 260 989 q 269 1024 260 1008 q 292 1052 279 1039 q 315 1078 306 1065 q 325 1104 325 1092 q 315 1130 325 1121 q 290 1139 306 1139 q 259 1130 274 1139 q 235 1096 244 1121 l 193 1168 q 242 1208 214 1196 q 301 1221 271 1221 q 356 1208 332 1221 q 394 1171 381 1194 q 408 1114 408 1147 z "},"Ȇ":{"ha":556,"x_min":58,"x_max":500,"o":"m 58 0 l 58 867 l 500 867 l 500 758 l 175 758 l 175 506 l 442 506 l 442 397 l 175 397 l 175 108 l 497 108 l 497 0 l 58 0 m 206 964 l 126 999 q 196 1097 153 1064 q 292 1131 239 1131 q 389 1097 344 1131 q 458 999 433 1064 l 379 964 q 342 1030 364 1008 q 292 1051 321 1051 q 256 1042 272 1051 q 228 1013 240 1032 q 206 964 215 993 z "},"Ē":{"ha":556,"x_min":58,"x_max":500,"o":"m 58 0 l 58 867 l 500 867 l 500 758 l 175 758 l 175 506 l 442 506 l 442 397 l 175 397 l 175 108 l 497 108 l 497 0 l 58 0 z "},"Ḗ":{"ha":556,"x_min":58,"x_max":500,"o":"m 58 0 l 58 867 l 500 867 l 500 758 l 175 758 l 175 506 l 442 506 l 442 397 l 175 397 l 175 108 l 497 108 l 497 0 l 58 0 z "},"Ḕ":{"ha":556,"x_min":58,"x_max":500,"o":"m 58 0 l 58 867 l 500 867 l 500 758 l 175 758 l 175 506 l 442 506 l 442 397 l 175 397 l 175 108 l 497 108 l 497 0 l 58 0 z "},"Ę":{"ha":556,"x_min":58,"x_max":500,"o":"m 58 0 l 58 867 l 500 867 l 500 758 l 175 758 l 175 506 l 442 506 l 442 397 l 175 397 l 175 108 l 497 108 l 497 0 l 58 0 m 432 -222 l 393 -325 q 317 -291 347 -312 q 269 -242 286 -269 q 253 -181 253 -214 q 270 -108 253 -144 q 320 -35 288 -71 q 400 33 353 1 l 443 0 q 398 -51 417 -25 q 369 -101 379 -78 q 360 -146 360 -125 q 378 -192 360 -172 q 432 -222 396 -212 z "},"Ẽ":{"ha":556,"x_min":58,"x_max":500,"o":"m 58 0 l 58 867 l 500 867 l 500 758 l 175 758 l 175 506 l 442 506 l 442 397 l 175 397 l 175 108 l 497 108 l 497 0 l 58 0 z "},"Ƹ":{"ha":556,"x_min":63,"x_max":490,"o":"m 297 -19 q 172 14 225 -19 q 90 106 118 47 q 63 239 63 164 q 81 358 63 306 q 135 449 100 411 q 217 508 169 488 q 319 529 264 529 l 374 529 l 374 426 q 285 419 322 429 q 224 388 247 410 q 190 331 201 365 q 179 247 179 296 q 195 158 179 193 q 240 107 211 124 q 307 90 269 90 q 366 100 342 90 q 410 129 390 110 q 426 156 422 147 q 426 176 429 165 l 433 185 l 443 178 l 490 75 q 405 3 453 25 q 297 -19 357 -19 l 297 -19 m 85 763 l 85 865 l 450 865 l 450 754 l 217 754 l 374 529 l 275 503 l 85 763 z "},"F":{"ha":556,"x_min":78,"x_max":497,"o":"m 78 0 l 78 867 l 497 867 l 497 758 l 189 758 l 189 521 l 438 521 l 438 414 l 189 414 l 189 0 l 78 0 z "},"G":{"ha":556,"x_min":32,"x_max":519,"o":"m 307 -14 q 160 38 222 -14 q 66 188 99 89 q 33 425 33 286 q 49 615 32 536 q 96 744 67 693 q 161 825 125 796 q 235 865 197 854 q 306 876 274 876 q 393 860 353 876 q 466 813 433 843 q 517 742 499 783 l 450 667 l 442 656 l 433 664 q 430 686 432 675 q 414 717 428 697 q 386 744 401 733 q 352 762 371 756 q 308 768 333 768 q 258 758 282 768 q 215 724 235 747 q 181 663 196 700 q 158 571 165 625 q 150 443 150 517 q 161 290 150 356 q 193 181 172 225 q 242 115 214 138 q 306 93 271 93 q 333 95 319 93 q 360 102 347 97 q 387 115 374 107 q 411 133 400 122 l 411 324 l 300 324 l 300 432 l 519 432 l 519 74 q 416 6 469 26 q 307 -14 363 -14 l 307 -14 z "},"Ğ":{"ha":556,"x_min":32,"x_max":519,"o":"m 307 -14 q 160 38 222 -14 q 66 188 99 89 q 33 425 33 286 q 49 615 32 536 q 96 744 67 693 q 161 825 125 796 q 235 865 197 854 q 306 876 274 876 q 393 860 353 876 q 466 813 433 843 q 517 742 499 783 l 450 667 l 442 656 l 433 664 q 430 686 432 675 q 414 717 428 697 q 386 744 401 733 q 352 762 371 756 q 308 768 333 768 q 258 758 282 768 q 215 724 235 747 q 181 663 196 700 q 158 571 165 625 q 150 443 150 517 q 161 290 150 356 q 193 181 172 225 q 242 115 214 138 q 306 93 271 93 q 333 95 319 93 q 360 102 347 97 q 387 115 374 107 q 411 133 400 122 l 411 324 l 300 324 l 300 432 l 519 432 l 519 74 q 416 6 469 26 q 307 -14 363 -14 l 307 -14 z "},"Ǧ":{"ha":556,"x_min":32,"x_max":519,"o":"m 307 -14 q 160 38 222 -14 q 66 188 99 89 q 33 425 33 286 q 49 615 32 536 q 96 744 67 693 q 161 825 125 796 q 235 865 197 854 q 306 876 274 876 q 393 860 353 876 q 466 813 433 843 q 517 742 499 783 l 450 667 l 442 656 l 433 664 q 430 686 432 675 q 414 717 428 697 q 386 744 401 733 q 352 762 371 756 q 308 768 333 768 q 258 758 282 768 q 215 724 235 747 q 181 663 196 700 q 158 571 165 625 q 150 443 150 517 q 161 290 150 356 q 193 181 172 225 q 242 115 214 138 q 306 93 271 93 q 333 95 319 93 q 360 102 347 97 q 387 115 374 107 q 411 133 400 122 l 411 324 l 300 324 l 300 432 l 519 432 l 519 74 q 416 6 469 26 q 307 -14 363 -14 l 307 -14 z "},"Ĝ":{"ha":556,"x_min":32,"x_max":519,"o":"m 307 -14 q 160 38 222 -14 q 66 188 99 89 q 33 425 33 286 q 49 615 32 536 q 96 744 67 693 q 161 825 125 796 q 235 865 197 854 q 306 876 274 876 q 393 860 353 876 q 466 813 433 843 q 517 742 499 783 l 450 667 l 442 656 l 433 664 q 430 686 432 675 q 414 717 428 697 q 386 744 401 733 q 352 762 371 756 q 308 768 333 768 q 258 758 282 768 q 215 724 235 747 q 181 663 196 700 q 158 571 165 625 q 150 443 150 517 q 161 290 150 356 q 193 181 172 225 q 242 115 214 138 q 306 93 271 93 q 333 95 319 93 q 360 102 347 97 q 387 115 374 107 q 411 133 400 122 l 411 324 l 300 324 l 300 432 l 519 432 l 519 74 q 416 6 469 26 q 307 -14 363 -14 l 307 -14 m 157 904 l 114 968 l 286 1107 l 317 1107 l 489 969 l 446 904 l 303 999 l 157 904 z "},"Ģ":{"ha":556,"x_min":32,"x_max":519,"o":"m 307 -14 q 160 38 222 -14 q 66 188 99 89 q 33 425 33 286 q 49 615 32 536 q 96 744 67 693 q 161 825 125 796 q 235 865 197 854 q 306 876 274 876 q 393 860 353 876 q 466 813 433 843 q 517 742 499 783 l 450 667 l 442 656 l 433 664 q 430 686 432 675 q 414 717 428 697 q 386 744 401 733 q 352 762 371 756 q 308 768 333 768 q 258 758 282 768 q 215 724 235 747 q 181 663 196 700 q 158 571 165 625 q 150 443 150 517 q 161 290 150 356 q 193 181 172 225 q 242 115 214 138 q 306 93 271 93 q 333 95 319 93 q 360 102 347 97 q 387 115 374 107 q 411 133 400 122 l 411 324 l 300 324 l 300 432 l 519 432 l 519 74 q 416 6 469 26 q 307 -14 363 -14 l 307 -14 m 278 -393 l 221 -346 q 267 -281 250 -314 q 285 -224 285 -247 q 273 -192 285 -207 q 249 -161 261 -178 q 236 -119 236 -144 q 258 -62 236 -83 q 311 -42 281 -42 q 369 -69 346 -42 q 393 -146 393 -97 q 381 -224 393 -183 q 342 -306 368 -264 q 278 -393 317 -347 z "},"Ġ":{"ha":556,"x_min":32,"x_max":519,"o":"m 307 -14 q 160 38 222 -14 q 66 188 99 89 q 33 425 33 286 q 49 615 32 536 q 96 744 67 693 q 161 825 125 796 q 235 865 197 854 q 306 876 274 876 q 393 860 353 876 q 466 813 433 843 q 517 742 499 783 l 450 667 l 442 656 l 433 664 q 430 686 432 675 q 414 717 428 697 q 386 744 401 733 q 352 762 371 756 q 308 768 333 768 q 258 758 282 768 q 215 724 235 747 q 181 663 196 700 q 158 571 165 625 q 150 443 150 517 q 161 290 150 356 q 193 181 172 225 q 242 115 214 138 q 306 93 271 93 q 333 95 319 93 q 360 102 347 97 q 387 115 374 107 q 411 133 400 122 l 411 324 l 300 324 l 300 432 l 519 432 l 519 74 q 416 6 469 26 q 307 -14 363 -14 l 307 -14 z "},"Ḡ":{"ha":556,"x_min":32,"x_max":519,"o":"m 307 -14 q 160 38 222 -14 q 66 188 99 89 q 33 425 33 286 q 49 615 32 536 q 96 744 67 693 q 161 825 125 796 q 235 865 197 854 q 306 876 274 876 q 393 860 353 876 q 466 813 433 843 q 517 742 499 783 l 450 667 l 442 656 l 433 664 q 430 686 432 675 q 414 717 428 697 q 386 744 401 733 q 352 762 371 756 q 308 768 333 768 q 258 758 282 768 q 215 724 235 747 q 181 663 196 700 q 158 571 165 625 q 150 443 150 517 q 161 290 150 356 q 193 181 172 225 q 242 115 214 138 q 306 93 271 93 q 333 95 319 93 q 360 102 347 97 q 387 115 374 107 q 411 133 400 122 l 411 324 l 300 324 l 300 432 l 519 432 l 519 74 q 416 6 469 26 q 307 -14 363 -14 l 307 -14 z "},"H":{"ha":556,"x_min":47,"x_max":511,"o":"m 47 865 l 165 865 l 176 865 l 176 854 q 168 836 169 846 q 167 803 167 826 l 167 507 l 381 507 l 381 865 l 500 865 l 511 865 l 511 854 q 503 836 504 846 q 501 803 501 826 l 501 0 l 381 0 l 381 400 l 167 400 l 167 0 l 47 0 l 47 865 z "},"Ħ":{"ha":556,"x_min":7,"x_max":546,"o":"m 7 679 l 7 783 l 546 783 l 546 679 l 7 679 m 47 865 l 165 865 l 176 865 l 176 854 q 168 836 169 846 q 167 803 167 826 l 167 507 l 381 507 l 381 865 l 500 865 l 511 865 l 511 854 q 503 836 504 846 q 501 803 501 826 l 501 0 l 381 0 l 381 400 l 167 400 l 167 0 l 47 0 l 47 865 z "},"Ḫ":{"ha":556,"x_min":47,"x_max":524,"o":"m 47 865 l 165 865 l 176 865 l 176 854 q 168 836 169 846 q 167 803 167 826 l 167 507 l 381 507 l 381 865 l 500 865 l 511 865 l 511 854 q 503 836 504 846 q 501 803 501 826 l 501 0 l 381 0 l 381 400 l 167 400 l 167 0 l 47 0 l 47 865 z "},"Ĥ":{"ha":556,"x_min":47,"x_max":511,"o":"m 47 865 l 165 865 l 176 865 l 176 854 q 168 836 169 846 q 167 803 167 826 l 167 507 l 381 507 l 381 865 l 500 865 l 511 865 l 511 854 q 503 836 504 846 q 501 803 501 826 l 501 0 l 381 0 l 381 400 l 167 400 l 167 0 l 47 0 l 47 865 m 175 904 l 132 968 l 304 1107 l 335 1107 l 507 969 l 464 904 l 321 999 l 175 904 z "},"Ḥ":{"ha":556,"x_min":47,"x_max":511,"o":"m 47 865 l 165 865 l 176 865 l 176 854 q 168 836 169 846 q 167 803 167 826 l 167 507 l 381 507 l 381 865 l 500 865 l 511 865 l 511 854 q 503 836 504 846 q 501 803 501 826 l 501 0 l 381 0 l 381 400 l 167 400 l 167 0 l 47 0 l 47 865 z "},"I":{"ha":556,"x_min":81,"x_max":465,"o":"m 81 0 l 81 107 l 213 107 l 213 758 l 86 758 l 86 865 l 458 865 l 458 758 l 328 758 l 328 106 l 465 106 l 465 0 l 81 0 z "},"Í":{"ha":556,"x_min":81,"x_max":465,"o":"m 81 0 l 81 107 l 213 107 l 213 758 l 86 758 l 86 865 l 458 865 l 458 758 l 328 758 l 328 106 l 465 106 l 465 0 l 81 0 z "},"Ĭ":{"ha":556,"x_min":81,"x_max":465,"o":"m 81 0 l 81 107 l 213 107 l 213 758 l 86 758 l 86 865 l 458 865 l 458 758 l 328 758 l 328 106 l 465 106 l 465 0 l 81 0 z "},"Î":{"ha":556,"x_min":81,"x_max":465,"o":"m 81 0 l 81 107 l 213 107 l 213 758 l 86 758 l 86 865 l 458 865 l 458 758 l 328 758 l 328 106 l 465 106 l 465 0 l 81 0 m 125 904 l 82 968 l 254 1107 l 285 1107 l 457 969 l 414 904 l 271 999 l 125 904 z "},"Ȉ":{"ha":556,"x_min":63,"x_max":465,"o":"m 81 0 l 81 107 l 213 107 l 213 758 l 86 758 l 86 865 l 458 865 l 458 758 l 328 758 l 328 106 l 465 106 l 465 0 l 81 0 z "},"Ï":{"ha":556,"x_min":81,"x_max":465,"o":"m 81 0 l 81 107 l 213 107 l 213 758 l 86 758 l 86 865 l 458 865 l 458 758 l 328 758 l 328 106 l 465 106 l 465 0 l 81 0 z "},"Ḯ":{"ha":556,"x_min":81,"x_max":465,"o":"m 81 0 l 81 107 l 213 107 l 213 758 l 86 758 l 86 865 l 458 865 l 458 758 l 328 758 l 328 106 l 465 106 l 465 0 l 81 0 z "},"İ":{"ha":556,"x_min":81,"x_max":465,"o":"m 81 0 l 81 107 l 213 107 l 213 758 l 86 758 l 86 865 l 458 865 l 458 758 l 328 758 l 328 106 l 465 106 l 465 0 l 81 0 z "},"Ị":{"ha":556,"x_min":81,"x_max":465,"o":"m 81 0 l 81 107 l 213 107 l 213 758 l 86 758 l 86 865 l 458 865 l 458 758 l 328 758 l 328 106 l 465 106 l 465 0 l 81 0 z "},"Ì":{"ha":556,"x_min":81,"x_max":465,"o":"m 81 0 l 81 107 l 213 107 l 213 758 l 86 758 l 86 865 l 458 865 l 458 758 l 328 758 l 328 106 l 465 106 l 465 0 l 81 0 z "},"Ỉ":{"ha":556,"x_min":81,"x_max":465,"o":"m 81 0 l 81 107 l 213 107 l 213 758 l 86 758 l 86 865 l 458 865 l 458 758 l 328 758 l 328 106 l 465 106 l 465 0 l 81 0 m 385 1114 q 374 1069 385 1088 q 351 1037 364 1051 q 327 1006 338 1022 q 317 965 317 989 l 317 951 l 236 951 l 236 989 q 246 1024 236 1008 q 269 1052 256 1039 q 292 1078 282 1065 q 301 1104 301 1092 q 292 1130 301 1121 q 267 1139 282 1139 q 235 1130 250 1139 q 211 1096 221 1121 l 169 1168 q 219 1208 190 1196 q 278 1221 247 1221 q 333 1208 308 1221 q 371 1171 357 1194 q 385 1114 385 1147 z "},"Ȋ":{"ha":556,"x_min":81,"x_max":465,"o":"m 81 0 l 81 107 l 213 107 l 213 758 l 86 758 l 86 865 l 458 865 l 458 758 l 328 758 l 328 106 l 465 106 l 465 0 l 81 0 m 183 964 l 104 999 q 174 1097 131 1064 q 269 1131 217 1131 q 367 1097 322 1131 q 436 999 411 1064 l 357 964 q 320 1030 342 1008 q 269 1051 299 1051 q 234 1042 250 1051 q 206 1013 218 1032 q 183 964 193 993 z "},"Ī":{"ha":556,"x_min":81,"x_max":465,"o":"m 81 0 l 81 107 l 213 107 l 213 758 l 86 758 l 86 865 l 458 865 l 458 758 l 328 758 l 328 106 l 465 106 l 465 0 l 81 0 z "},"Į":{"ha":556,"x_min":81,"x_max":468,"o":"m 81 0 l 81 107 l 213 107 l 213 758 l 86 758 l 86 865 l 458 865 l 458 758 l 328 758 l 328 106 l 465 106 l 465 0 l 81 0 m 457 -222 l 418 -325 q 342 -291 372 -312 q 294 -242 311 -269 q 278 -181 278 -214 q 295 -108 278 -144 q 345 -35 313 -71 q 425 33 378 1 l 468 0 q 423 -51 442 -25 q 394 -101 404 -78 q 385 -146 385 -125 q 403 -192 385 -172 q 457 -222 421 -212 z "},"Ĩ":{"ha":556,"x_min":81,"x_max":465,"o":"m 81 0 l 81 107 l 213 107 l 213 758 l 86 758 l 86 865 l 458 865 l 458 758 l 328 758 l 328 106 l 465 106 l 465 0 l 81 0 z "},"J":{"ha":556,"x_min":40,"x_max":515,"o":"m 214 -17 q 117 4 163 -17 q 40 68 72 25 l 93 175 l 100 188 l 110 182 q 117 158 114 171 q 133 128 119 146 q 168 106 150 114 q 207 99 186 99 q 256 118 236 99 q 287 181 276 138 q 297 296 297 225 l 297 758 l 167 758 l 167 865 l 515 865 l 515 758 l 414 758 l 414 292 q 400 149 415 208 q 356 52 385 89 q 291 -1 328 15 q 214 -17 254 -17 l 214 -17 z "},"Ĵ":{"ha":556,"x_min":40,"x_max":544,"o":"m 214 -17 q 117 4 163 -17 q 40 68 72 25 l 93 175 l 100 188 l 110 182 q 117 158 114 171 q 133 128 119 146 q 168 106 150 114 q 207 99 186 99 q 256 118 236 99 q 287 181 276 138 q 297 296 297 225 l 297 758 l 167 758 l 167 865 l 515 865 l 515 758 l 414 758 l 414 292 q 400 149 415 208 q 356 52 385 89 q 291 -1 328 15 q 214 -17 254 -17 l 214 -17 m 213 904 l 169 968 l 342 1107 l 372 1107 l 544 969 l 501 904 l 358 999 l 213 904 z "},"K":{"ha":556,"x_min":44,"x_max":538,"o":"m 206 396 l 163 329 l 163 0 l 44 0 l 44 865 l 161 865 l 175 865 l 175 854 q 165 836 167 846 q 163 803 163 826 l 163 503 l 396 872 q 415 869 404 871 q 438 867 426 868 q 460 866 450 867 q 479 865 471 865 l 522 865 l 289 490 l 538 0 l 404 -6 l 206 396 z "},"Ķ":{"ha":556,"x_min":44,"x_max":538,"o":"m 206 396 l 163 329 l 163 0 l 44 0 l 44 865 l 161 865 l 175 865 l 175 854 q 165 836 167 846 q 163 803 163 826 l 163 503 l 396 872 q 415 869 404 871 q 438 867 426 868 q 460 866 450 867 q 479 865 471 865 l 522 865 l 289 490 l 538 0 l 404 -6 l 206 396 m 246 -393 l 189 -346 q 235 -281 218 -314 q 253 -224 253 -247 q 241 -192 253 -207 q 217 -161 229 -178 q 204 -119 204 -144 q 226 -62 204 -83 q 279 -42 249 -42 q 338 -69 314 -42 q 361 -146 361 -97 q 349 -224 361 -183 q 310 -306 336 -264 q 246 -393 285 -347 z "},"Ƙ":{"ha":556,"x_min":46,"x_max":531,"o":"m 46 865 l 165 865 l 179 865 l 179 854 q 169 836 171 846 q 167 803 167 826 l 167 517 q 256 687 215 618 q 333 796 297 756 q 404 854 369 836 q 475 872 439 872 q 503 869 489 872 q 525 861 517 867 l 525 736 l 525 722 l 517 722 q 503 738 510 731 q 478 749 496 744 q 473 749 475 749 q 468 749 471 749 q 435 738 453 749 q 393 701 417 728 q 338 624 369 674 q 264 498 306 575 q 167 311 222 421 l 167 0 l 46 0 l 46 865 m 175 440 l 247 553 l 531 0 l 399 -7 l 175 440 z "},"L":{"ha":556,"x_min":65,"x_max":501,"o":"m 65 865 l 183 865 l 197 865 l 197 854 q 187 836 189 846 q 185 803 185 826 l 185 110 l 501 110 l 501 0 l 65 0 l 65 865 z "},"Ǉ":{"ha":556,"x_min":58,"x_max":514,"o":"m 319 -229 q 228 -209 269 -229 q 156 -150 188 -189 l 225 -54 q 234 -66 233 -61 q 236 -77 235 -71 q 246 -93 238 -83 q 260 -106 251 -99 q 283 -119 269 -114 q 314 -124 296 -124 q 360 -103 342 -124 q 387 -37 378 -83 q 396 86 396 8 l 396 760 l 282 760 l 282 865 l 513 865 l 513 764 l 513 764 l 513 79 q 499 -65 514 -6 q 458 -160 485 -124 q 395 -212 431 -196 q 319 -229 360 -229 m 58 0 l 58 865 l 189 865 q 186 853 189 856 q 181 845 183 851 q 178 817 178 839 l 178 107 l 322 107 l 322 0 l 58 0 z "},"Ĺ":{"ha":556,"x_min":65,"x_max":501,"o":"m 65 865 l 183 865 l 197 865 l 197 854 q 187 836 189 846 q 185 803 185 826 l 185 110 l 501 110 l 501 0 l 65 0 l 65 865 z "},"Ľ":{"ha":556,"x_min":65,"x_max":501,"o":"m 381 565 l 329 607 q 371 665 356 636 q 386 715 386 694 q 376 744 386 732 q 354 772 365 757 q 343 808 343 788 q 363 859 343 840 q 410 878 382 878 q 462 853 440 878 q 483 785 483 829 q 472 716 483 751 q 438 643 460 681 q 381 565 415 606 m 65 865 l 183 865 l 197 865 l 197 854 q 187 836 189 846 q 185 803 185 826 l 185 110 l 501 110 l 501 0 l 65 0 l 65 865 z "},"Ļ":{"ha":556,"x_min":65,"x_max":501,"o":"m 65 865 l 183 865 l 197 865 l 197 854 q 187 836 189 846 q 185 803 185 826 l 185 110 l 501 110 l 501 0 l 65 0 l 65 865 m 260 -393 l 203 -346 q 249 -281 232 -314 q 267 -224 267 -247 q 255 -192 267 -207 q 231 -161 243 -178 q 218 -119 218 -144 q 240 -62 218 -83 q 293 -42 263 -42 q 351 -69 328 -42 q 375 -146 375 -97 q 363 -224 375 -183 q 324 -306 350 -264 q 260 -393 299 -347 z "},"Ŀ":{"ha":556,"x_min":65,"x_max":501,"o":"m 65 865 l 183 865 l 197 865 l 197 854 q 187 836 189 846 q 185 803 185 826 l 185 110 l 501 110 l 501 0 l 65 0 l 65 865 m 347 378 q 288 402 313 378 q 264 463 264 426 q 288 522 264 497 q 347 547 313 547 q 406 522 381 547 q 431 463 431 497 q 406 403 431 428 q 347 378 382 378 z "},"Ḷ":{"ha":556,"x_min":65,"x_max":501,"o":"m 65 865 l 183 865 l 197 865 l 197 854 q 187 836 189 846 q 185 803 185 826 l 185 110 l 501 110 l 501 0 l 65 0 l 65 865 z "},"ǈ":{"ha":556,"x_min":67,"x_max":510,"o":"m 67 0 l 67 865 l 193 865 q 189 842 193 851 q 185 817 185 833 l 185 110 l 318 110 l 318 0 l 67 0 m 286 -244 q 230 -236 257 -244 q 180 -210 203 -228 q 139 -171 157 -193 l 207 -61 q 213 -73 213 -67 q 216 -87 214 -79 q 225 -103 218 -94 q 247 -121 232 -111 q 259 -127 253 -125 q 273 -131 265 -129 q 289 -132 281 -132 q 325 -124 308 -132 q 355 -98 342 -117 q 376 -49 368 -79 q 383 26 383 -18 l 383 538 l 256 538 l 256 643 l 496 643 l 496 32 q 480 -94 496 -42 q 436 -179 464 -146 q 369 -228 408 -212 q 286 -244 331 -244 m 432 764 q 378 787 400 764 q 356 842 356 810 q 377 897 356 875 q 432 919 399 919 q 486 897 463 919 q 510 842 510 874 q 486 787 510 810 q 432 764 463 764 z "},"Ḻ":{"ha":556,"x_min":65,"x_max":501,"o":"m 65 865 l 183 865 l 197 865 l 197 854 q 187 836 189 846 q 185 803 185 826 l 185 110 l 501 110 l 501 0 l 65 0 l 65 865 z "},"Ł":{"ha":556,"x_min":17,"x_max":506,"o":"m 74 0 l 74 318 l 17 294 l 17 410 l 74 433 l 74 865 l 203 865 q 206 864 206 865 q 206 861 206 863 q 201 848 206 856 q 193 818 196 840 l 193 482 l 353 547 q 372 557 364 553 q 388 567 381 561 l 388 442 l 194 364 l 194 110 l 506 110 l 506 0 l 74 0 z "},"M":{"ha":556,"x_min":39,"x_max":521,"o":"m 39 0 l 39 865 l 136 865 l 279 486 l 424 867 l 521 867 l 521 0 l 417 0 l 418 610 l 297 301 l 253 301 l 140 607 l 142 0 l 39 0 z "},"Ṃ":{"ha":556,"x_min":39,"x_max":521,"o":"m 39 0 l 39 865 l 136 865 l 279 486 l 424 867 l 521 867 l 521 0 l 417 0 l 418 610 l 297 301 l 253 301 l 140 607 l 142 0 l 39 0 z "},"N":{"ha":556,"x_min":46,"x_max":519,"o":"m 46 865 l 163 865 l 406 293 l 401 865 l 507 865 l 519 865 l 519 854 q 510 836 513 846 q 508 803 508 826 l 508 0 l 407 0 l 153 610 l 153 0 l 46 0 l 46 865 z "},"Ń":{"ha":556,"x_min":46,"x_max":519,"o":"m 46 865 l 163 865 l 406 293 l 401 865 l 507 865 l 519 865 l 519 854 q 510 836 513 846 q 508 803 508 826 l 508 0 l 407 0 l 153 610 l 153 0 l 46 0 l 46 865 z "},"Ň":{"ha":556,"x_min":46,"x_max":519,"o":"m 46 865 l 163 865 l 406 293 l 401 865 l 507 865 l 519 865 l 519 854 q 510 836 513 846 q 508 803 508 826 l 508 0 l 407 0 l 153 610 l 153 0 l 46 0 l 46 865 z "},"Ņ":{"ha":556,"x_min":46,"x_max":519,"o":"m 46 865 l 163 865 l 406 293 l 401 865 l 507 865 l 519 865 l 519 854 q 510 836 513 846 q 508 803 508 826 l 508 0 l 407 0 l 153 610 l 153 0 l 46 0 l 46 865 m 260 -393 l 203 -346 q 249 -281 232 -314 q 267 -224 267 -247 q 255 -192 267 -207 q 231 -161 243 -178 q 218 -119 218 -144 q 240 -62 218 -83 q 293 -42 263 -42 q 351 -69 328 -42 q 375 -146 375 -97 q 363 -224 375 -183 q 324 -306 350 -264 q 260 -393 299 -347 z "},"Ṅ":{"ha":556,"x_min":46,"x_max":519,"o":"m 46 865 l 163 865 l 406 293 l 401 865 l 507 865 l 519 865 l 519 854 q 510 836 513 846 q 508 803 508 826 l 508 0 l 407 0 l 153 610 l 153 0 l 46 0 l 46 865 z "},"Ṇ":{"ha":556,"x_min":46,"x_max":519,"o":"m 46 865 l 163 865 l 406 293 l 401 865 l 507 865 l 519 865 l 519 854 q 510 836 513 846 q 508 803 508 826 l 508 0 l 407 0 l 153 610 l 153 0 l 46 0 l 46 865 z "},"Ŋ":{"ha":556,"x_min":44,"x_max":519,"o":"m 408 865 l 519 865 q 515 844 519 853 q 511 819 511 836 l 511 0 q 488 -150 511 -92 q 425 -237 465 -208 q 333 -265 385 -265 q 275 -255 304 -265 q 218 -222 246 -244 l 268 -114 q 281 -122 276 -115 q 290 -134 286 -128 q 303 -146 294 -140 q 331 -151 313 -151 q 374 -133 358 -151 q 398 -77 390 -115 q 406 19 406 -39 l 151 610 l 151 0 l 44 0 l 44 865 l 157 865 l 408 293 l 408 865 z "},"Ṉ":{"ha":556,"x_min":46,"x_max":519,"o":"m 46 865 l 163 865 l 406 293 l 401 865 l 507 865 l 519 865 l 519 854 q 510 836 513 846 q 508 803 508 826 l 508 0 l 407 0 l 153 610 l 153 0 l 46 0 l 46 865 z "},"Ñ":{"ha":556,"x_min":46,"x_max":519,"o":"m 46 865 l 163 865 l 406 293 l 401 865 l 507 865 l 519 865 l 519 854 q 510 836 513 846 q 508 803 508 826 l 508 0 l 407 0 l 153 610 l 153 0 l 46 0 l 46 865 z "},"O":{"ha":556,"x_min":25,"x_max":532,"o":"m 279 -15 q 139 31 196 -15 q 53 176 82 78 q 25 429 25 275 q 53 678 25 581 q 139 825 82 776 q 279 874 196 874 q 419 825 363 874 q 503 678 475 776 q 532 429 532 581 q 503 176 532 275 q 419 31 475 78 q 279 -15 363 -15 m 279 92 q 352 125 322 92 q 399 233 382 158 q 415 431 415 307 q 399 622 415 547 q 352 731 382 696 q 279 767 322 767 q 206 731 236 767 q 159 622 175 696 q 143 431 143 547 q 159 233 143 307 q 206 125 175 158 q 279 92 236 92 z "},"Ó":{"ha":556,"x_min":25,"x_max":532,"o":"m 279 -15 q 139 31 196 -15 q 53 176 82 78 q 25 429 25 275 q 53 678 25 581 q 139 825 82 776 q 279 874 196 874 q 419 825 363 874 q 503 678 475 776 q 532 429 532 581 q 503 176 532 275 q 419 31 475 78 q 279 -15 363 -15 m 279 92 q 352 125 322 92 q 399 233 382 158 q 415 431 415 307 q 399 622 415 547 q 352 731 382 696 q 279 767 322 767 q 206 731 236 767 q 159 622 175 696 q 143 431 143 547 q 159 233 143 307 q 206 125 175 158 q 279 92 236 92 z "},"Ŏ":{"ha":556,"x_min":25,"x_max":532,"o":"m 279 -15 q 139 31 196 -15 q 53 176 82 78 q 25 429 25 275 q 53 678 25 581 q 139 825 82 776 q 279 874 196 874 q 419 825 363 874 q 503 678 475 776 q 532 429 532 581 q 503 176 532 275 q 419 31 475 78 q 279 -15 363 -15 m 279 92 q 352 125 322 92 q 399 233 382 158 q 415 431 415 307 q 399 622 415 547 q 352 731 382 696 q 279 767 322 767 q 206 731 236 767 q 159 622 175 696 q 143 431 143 547 q 159 233 143 307 q 206 125 175 158 q 279 92 236 92 z "},"Ô":{"ha":556,"x_min":25,"x_max":532,"o":"m 279 -15 q 139 31 196 -15 q 53 176 82 78 q 25 429 25 275 q 53 678 25 581 q 139 825 82 776 q 279 874 196 874 q 419 825 363 874 q 503 678 475 776 q 532 429 532 581 q 503 176 532 275 q 419 31 475 78 q 279 -15 363 -15 m 279 92 q 352 125 322 92 q 399 233 382 158 q 415 431 415 307 q 399 622 415 547 q 352 731 382 696 q 279 767 322 767 q 206 731 236 767 q 159 622 175 696 q 143 431 143 547 q 159 233 143 307 q 206 125 175 158 q 279 92 236 92 m 133 906 l 90 969 l 263 1108 l 293 1108 l 465 971 l 422 906 l 279 1000 l 133 906 z "},"Ố":{"ha":556,"x_min":25,"x_max":611,"o":"m 279 -15 q 139 31 196 -15 q 53 176 82 78 q 25 429 25 275 q 53 678 25 581 q 139 825 82 776 q 279 874 196 874 q 419 825 363 874 q 503 678 475 776 q 532 429 532 581 q 503 176 532 275 q 419 31 475 78 q 279 -15 363 -15 m 279 92 q 352 125 322 92 q 399 233 382 158 q 415 431 415 307 q 399 622 415 547 q 352 731 382 696 q 279 767 322 767 q 206 731 236 767 q 159 622 175 696 q 143 431 143 547 q 159 233 143 307 q 206 125 175 158 q 279 92 236 92 z "},"Ộ":{"ha":556,"x_min":25,"x_max":532,"o":"m 279 -15 q 139 31 196 -15 q 53 176 82 78 q 25 429 25 275 q 53 678 25 581 q 139 825 82 776 q 279 874 196 874 q 419 825 363 874 q 503 678 475 776 q 532 429 532 581 q 503 176 532 275 q 419 31 475 78 q 279 -15 363 -15 m 279 92 q 352 125 322 92 q 399 233 382 158 q 415 431 415 307 q 399 622 415 547 q 352 731 382 696 q 279 767 322 767 q 206 731 236 767 q 159 622 175 696 q 143 431 143 547 q 159 233 143 307 q 206 125 175 158 q 279 92 236 92 m 133 906 l 90 969 l 263 1108 l 293 1108 l 465 971 l 422 906 l 279 1000 l 133 906 z "},"Ồ":{"ha":556,"x_min":25,"x_max":532,"o":"m 279 -15 q 139 31 196 -15 q 53 176 82 78 q 25 429 25 275 q 53 678 25 581 q 139 825 82 776 q 279 874 196 874 q 419 825 363 874 q 503 678 475 776 q 532 429 532 581 q 503 176 532 275 q 419 31 475 78 q 279 -15 363 -15 m 279 92 q 352 125 322 92 q 399 233 382 158 q 415 431 415 307 q 399 622 415 547 q 352 731 382 696 q 279 767 322 767 q 206 731 236 767 q 159 622 175 696 q 143 431 143 547 q 159 233 143 307 q 206 125 175 158 q 279 92 236 92 z "},"Ổ":{"ha":556,"x_min":25,"x_max":532,"o":"m 279 -15 q 139 31 196 -15 q 53 176 82 78 q 25 429 25 275 q 53 678 25 581 q 139 825 82 776 q 279 874 196 874 q 419 825 363 874 q 503 678 475 776 q 532 429 532 581 q 503 176 532 275 q 419 31 475 78 q 279 -15 363 -15 m 279 92 q 352 125 322 92 q 399 233 382 158 q 415 431 415 307 q 399 622 415 547 q 352 731 382 696 q 279 767 322 767 q 206 731 236 767 q 159 622 175 696 q 143 431 143 547 q 159 233 143 307 q 206 125 175 158 q 279 92 236 92 z "},"Ỗ":{"ha":556,"x_min":25,"x_max":532,"o":"m 279 -15 q 139 31 196 -15 q 53 176 82 78 q 25 429 25 275 q 53 678 25 581 q 139 825 82 776 q 279 874 196 874 q 419 825 363 874 q 503 678 475 776 q 532 429 532 581 q 503 176 532 275 q 419 31 475 78 q 279 -15 363 -15 m 279 92 q 352 125 322 92 q 399 233 382 158 q 415 431 415 307 q 399 622 415 547 q 352 731 382 696 q 279 767 322 767 q 206 731 236 767 q 159 622 175 696 q 143 431 143 547 q 159 233 143 307 q 206 125 175 158 q 279 92 236 92 z "},"Ȍ":{"ha":556,"x_min":25,"x_max":532,"o":"m 279 -15 q 139 31 196 -15 q 53 176 82 78 q 25 429 25 275 q 53 678 25 581 q 139 825 82 776 q 279 874 196 874 q 419 825 363 874 q 503 678 475 776 q 532 429 532 581 q 503 176 532 275 q 419 31 475 78 q 279 -15 363 -15 m 279 92 q 352 125 322 92 q 399 233 382 158 q 415 431 415 307 q 399 622 415 547 q 352 731 382 696 q 279 767 322 767 q 206 731 236 767 q 159 622 175 696 q 143 431 143 547 q 159 233 143 307 q 206 125 175 158 q 279 92 236 92 z "},"Ö":{"ha":556,"x_min":25,"x_max":532,"o":"m 279 -15 q 139 31 196 -15 q 53 176 82 78 q 25 429 25 275 q 53 678 25 581 q 139 825 82 776 q 279 874 196 874 q 419 825 363 874 q 503 678 475 776 q 532 429 532 581 q 503 176 532 275 q 419 31 475 78 q 279 -15 363 -15 m 279 92 q 352 125 322 92 q 399 233 382 158 q 415 431 415 307 q 399 622 415 547 q 352 731 382 696 q 279 767 322 767 q 206 731 236 767 q 159 622 175 696 q 143 431 143 547 q 159 233 143 307 q 206 125 175 158 q 279 92 236 92 z "},"Ȫ":{"ha":556,"x_min":25,"x_max":532,"o":"m 279 -15 q 139 31 196 -15 q 53 176 82 78 q 25 429 25 275 q 53 678 25 581 q 139 825 82 776 q 279 874 196 874 q 419 825 363 874 q 503 678 475 776 q 532 429 532 581 q 503 176 532 275 q 419 31 475 78 q 279 -15 363 -15 m 279 92 q 352 125 322 92 q 399 233 382 158 q 415 431 415 307 q 399 622 415 547 q 352 731 382 696 q 279 767 322 767 q 206 731 236 767 q 159 622 175 696 q 143 431 143 547 q 159 233 143 307 q 206 125 175 158 q 279 92 236 92 z "},"Ȱ":{"ha":556,"x_min":25,"x_max":532,"o":"m 279 -15 q 139 31 196 -15 q 53 176 82 78 q 25 429 25 275 q 53 678 25 581 q 139 825 82 776 q 279 874 196 874 q 419 825 363 874 q 503 678 475 776 q 532 429 532 581 q 503 176 532 275 q 419 31 475 78 q 279 -15 363 -15 m 279 92 q 352 125 322 92 q 399 233 382 158 q 415 431 415 307 q 399 622 415 547 q 352 731 382 696 q 279 767 322 767 q 206 731 236 767 q 159 622 175 696 q 143 431 143 547 q 159 233 143 307 q 206 125 175 158 q 279 92 236 92 z "},"Ọ":{"ha":556,"x_min":25,"x_max":532,"o":"m 279 -15 q 139 31 196 -15 q 53 176 82 78 q 25 429 25 275 q 53 678 25 581 q 139 825 82 776 q 279 874 196 874 q 419 825 363 874 q 503 678 475 776 q 532 429 532 581 q 503 176 532 275 q 419 31 475 78 q 279 -15 363 -15 m 279 92 q 352 125 322 92 q 399 233 382 158 q 415 431 415 307 q 399 622 415 547 q 352 731 382 696 q 279 767 322 767 q 206 731 236 767 q 159 622 175 696 q 143 431 143 547 q 159 233 143 307 q 206 125 175 158 q 279 92 236 92 z "},"Ò":{"ha":556,"x_min":25,"x_max":532,"o":"m 279 -15 q 139 31 196 -15 q 53 176 82 78 q 25 429 25 275 q 53 678 25 581 q 139 825 82 776 q 279 874 196 874 q 419 825 363 874 q 503 678 475 776 q 532 429 532 581 q 503 176 532 275 q 419 31 475 78 q 279 -15 363 -15 m 279 92 q 352 125 322 92 q 399 233 382 158 q 415 431 415 307 q 399 622 415 547 q 352 731 382 696 q 279 767 322 767 q 206 731 236 767 q 159 622 175 696 q 143 431 143 547 q 159 233 143 307 q 206 125 175 158 q 279 92 236 92 z "},"Ỏ":{"ha":556,"x_min":25,"x_max":532,"o":"m 279 -15 q 139 31 196 -15 q 53 176 82 78 q 25 429 25 275 q 53 678 25 581 q 139 825 82 776 q 279 874 196 874 q 419 825 363 874 q 503 678 475 776 q 532 429 532 581 q 503 176 532 275 q 419 31 475 78 q 279 -15 363 -15 m 279 92 q 352 125 322 92 q 399 233 382 158 q 415 431 415 307 q 399 622 415 547 q 352 731 382 696 q 279 767 322 767 q 206 731 236 767 q 159 622 175 696 q 143 431 143 547 q 159 233 143 307 q 206 125 175 158 q 279 92 236 92 m 394 1115 q 384 1071 394 1089 q 360 1038 374 1053 q 337 1007 347 1024 q 326 967 326 990 l 326 953 l 246 953 l 246 990 q 256 1025 246 1010 q 278 1053 265 1040 q 301 1080 292 1067 q 311 1106 311 1093 q 301 1131 311 1122 q 276 1140 292 1140 q 245 1131 260 1140 q 221 1097 231 1122 l 179 1169 q 228 1210 200 1197 q 288 1222 257 1222 q 342 1209 318 1222 q 381 1172 367 1196 q 394 1115 394 1149 z "},"Ơ":{"ha":556,"x_min":25,"x_max":535,"o":"m 279 -15 q 139 31 196 -15 q 53 176 82 78 q 25 429 25 275 q 53 678 25 581 q 139 825 82 776 q 279 874 196 874 q 419 825 363 874 q 503 678 475 776 q 532 429 532 581 q 503 176 532 275 q 419 31 475 78 q 279 -15 363 -15 m 279 92 q 352 125 322 92 q 399 233 382 158 q 415 431 415 307 q 399 622 415 547 q 352 731 382 696 q 279 767 322 767 q 206 731 236 767 q 159 622 175 696 q 143 431 143 547 q 159 233 143 307 q 206 125 175 158 q 279 92 236 92 m 432 724 l 419 808 q 444 819 436 808 q 453 859 451 831 q 456 939 456 888 l 533 939 q 526 816 533 864 q 498 746 519 768 q 432 724 476 724 z "},"Ớ":{"ha":556,"x_min":25,"x_max":535,"o":"m 279 -15 q 139 31 196 -15 q 53 176 82 78 q 25 429 25 275 q 53 678 25 581 q 139 825 82 776 q 279 874 196 874 q 419 825 363 874 q 503 678 475 776 q 532 429 532 581 q 503 176 532 275 q 419 31 475 78 q 279 -15 363 -15 m 279 92 q 352 125 322 92 q 399 233 382 158 q 415 431 415 307 q 399 622 415 547 q 352 731 382 696 q 279 767 322 767 q 206 731 236 767 q 159 622 175 696 q 143 431 143 547 q 159 233 143 307 q 206 125 175 158 q 279 92 236 92 m 432 724 l 419 808 q 444 819 436 808 q 453 859 451 831 q 456 939 456 888 l 533 939 q 526 816 533 864 q 498 746 519 768 q 432 724 476 724 z "},"Ợ":{"ha":556,"x_min":25,"x_max":535,"o":"m 279 -15 q 139 31 196 -15 q 53 176 82 78 q 25 429 25 275 q 53 678 25 581 q 139 825 82 776 q 279 874 196 874 q 419 825 363 874 q 503 678 475 776 q 532 429 532 581 q 503 176 532 275 q 419 31 475 78 q 279 -15 363 -15 m 279 92 q 352 125 322 92 q 399 233 382 158 q 415 431 415 307 q 399 622 415 547 q 352 731 382 696 q 279 767 322 767 q 206 731 236 767 q 159 622 175 696 q 143 431 143 547 q 159 233 143 307 q 206 125 175 158 q 279 92 236 92 m 432 724 l 419 808 q 444 819 436 808 q 453 859 451 831 q 456 939 456 888 l 533 939 q 526 816 533 864 q 498 746 519 768 q 432 724 476 724 z "},"Ờ":{"ha":556,"x_min":25,"x_max":535,"o":"m 279 -15 q 139 31 196 -15 q 53 176 82 78 q 25 429 25 275 q 53 678 25 581 q 139 825 82 776 q 279 874 196 874 q 419 825 363 874 q 503 678 475 776 q 532 429 532 581 q 503 176 532 275 q 419 31 475 78 q 279 -15 363 -15 m 279 92 q 352 125 322 92 q 399 233 382 158 q 415 431 415 307 q 399 622 415 547 q 352 731 382 696 q 279 767 322 767 q 206 731 236 767 q 159 622 175 696 q 143 431 143 547 q 159 233 143 307 q 206 125 175 158 q 279 92 236 92 m 432 724 l 419 808 q 444 819 436 808 q 453 859 451 831 q 456 939 456 888 l 533 939 q 526 816 533 864 q 498 746 519 768 q 432 724 476 724 z "},"Ở":{"ha":556,"x_min":25,"x_max":535,"o":"m 279 -15 q 139 31 196 -15 q 53 176 82 78 q 25 429 25 275 q 53 678 25 581 q 139 825 82 776 q 279 874 196 874 q 419 825 363 874 q 503 678 475 776 q 532 429 532 581 q 503 176 532 275 q 419 31 475 78 q 279 -15 363 -15 m 279 92 q 352 125 322 92 q 399 233 382 158 q 415 431 415 307 q 399 622 415 547 q 352 731 382 696 q 279 767 322 767 q 206 731 236 767 q 159 622 175 696 q 143 431 143 547 q 159 233 143 307 q 206 125 175 158 q 279 92 236 92 m 432 724 l 419 808 q 444 819 436 808 q 453 859 451 831 q 456 939 456 888 l 533 939 q 526 816 533 864 q 498 746 519 768 q 432 724 476 724 m 394 1115 q 384 1071 394 1089 q 360 1038 374 1053 q 337 1007 347 1024 q 326 967 326 990 l 326 953 l 246 953 l 246 990 q 256 1025 246 1010 q 278 1053 265 1040 q 301 1080 292 1067 q 311 1106 311 1093 q 301 1131 311 1122 q 276 1140 292 1140 q 245 1131 260 1140 q 221 1097 231 1122 l 179 1169 q 228 1210 200 1197 q 288 1222 257 1222 q 342 1209 318 1222 q 381 1172 367 1196 q 394 1115 394 1149 z "},"Ỡ":{"ha":556,"x_min":25,"x_max":535,"o":"m 279 -15 q 139 31 196 -15 q 53 176 82 78 q 25 429 25 275 q 53 678 25 581 q 139 825 82 776 q 279 874 196 874 q 419 825 363 874 q 503 678 475 776 q 532 429 532 581 q 503 176 532 275 q 419 31 475 78 q 279 -15 363 -15 m 279 92 q 352 125 322 92 q 399 233 382 158 q 415 431 415 307 q 399 622 415 547 q 352 731 382 696 q 279 767 322 767 q 206 731 236 767 q 159 622 175 696 q 143 431 143 547 q 159 233 143 307 q 206 125 175 158 q 279 92 236 92 m 432 724 l 419 808 q 444 819 436 808 q 453 859 451 831 q 456 939 456 888 l 533 939 q 526 816 533 864 q 498 746 519 768 q 432 724 476 724 z "},"Ő":{"ha":556,"x_min":25,"x_max":532,"o":"m 279 -15 q 139 31 196 -15 q 53 176 82 78 q 25 429 25 275 q 53 678 25 581 q 139 825 82 776 q 279 874 196 874 q 419 825 363 874 q 503 678 475 776 q 532 429 532 581 q 503 176 532 275 q 419 31 475 78 q 279 -15 363 -15 m 279 92 q 352 125 322 92 q 399 233 382 158 q 415 431 415 307 q 399 622 415 547 q 352 731 382 696 q 279 767 322 767 q 206 731 236 767 q 159 622 175 696 q 143 431 143 547 q 159 233 143 307 q 206 125 175 158 q 279 92 236 92 z "},"Ȏ":{"ha":556,"x_min":25,"x_max":532,"o":"m 279 -15 q 139 31 196 -15 q 53 176 82 78 q 25 429 25 275 q 53 678 25 581 q 139 825 82 776 q 279 874 196 874 q 419 825 363 874 q 503 678 475 776 q 532 429 532 581 q 503 176 532 275 q 419 31 475 78 q 279 -15 363 -15 m 279 92 q 352 125 322 92 q 399 233 382 158 q 415 431 415 307 q 399 622 415 547 q 352 731 382 696 q 279 767 322 767 q 206 731 236 767 q 159 622 175 696 q 143 431 143 547 q 159 233 143 307 q 206 125 175 158 q 279 92 236 92 m 192 965 l 113 1000 q 182 1099 139 1065 q 278 1132 225 1132 q 375 1099 331 1132 q 444 1000 419 1065 l 365 965 q 328 1031 350 1010 q 278 1053 307 1053 q 242 1043 258 1053 q 214 1014 226 1033 q 192 965 201 994 z "},"Ō":{"ha":556,"x_min":25,"x_max":532,"o":"m 279 -15 q 139 31 196 -15 q 53 176 82 78 q 25 429 25 275 q 53 678 25 581 q 139 825 82 776 q 279 874 196 874 q 419 825 363 874 q 503 678 475 776 q 532 429 532 581 q 503 176 532 275 q 419 31 475 78 q 279 -15 363 -15 m 279 92 q 352 125 322 92 q 399 233 382 158 q 415 431 415 307 q 399 622 415 547 q 352 731 382 696 q 279 767 322 767 q 206 731 236 767 q 159 622 175 696 q 143 431 143 547 q 159 233 143 307 q 206 125 175 158 q 279 92 236 92 z "},"Ṓ":{"ha":556,"x_min":25,"x_max":532,"o":"m 279 -15 q 139 31 196 -15 q 53 176 82 78 q 25 429 25 275 q 53 678 25 581 q 139 825 82 776 q 279 874 196 874 q 419 825 363 874 q 503 678 475 776 q 532 429 532 581 q 503 176 532 275 q 419 31 475 78 q 279 -15 363 -15 m 279 92 q 352 125 322 92 q 399 233 382 158 q 415 431 415 307 q 399 622 415 547 q 352 731 382 696 q 279 767 322 767 q 206 731 236 767 q 159 622 175 696 q 143 431 143 547 q 159 233 143 307 q 206 125 175 158 q 279 92 236 92 z "},"Ṑ":{"ha":556,"x_min":25,"x_max":532,"o":"m 279 -15 q 139 31 196 -15 q 53 176 82 78 q 25 429 25 275 q 53 678 25 581 q 139 825 82 776 q 279 874 196 874 q 419 825 363 874 q 503 678 475 776 q 532 429 532 581 q 503 176 532 275 q 419 31 475 78 q 279 -15 363 -15 m 279 92 q 352 125 322 92 q 399 233 382 158 q 415 431 415 307 q 399 622 415 547 q 352 731 382 696 q 279 767 322 767 q 206 731 236 767 q 159 622 175 696 q 143 431 143 547 q 159 233 143 307 q 206 125 175 158 q 279 92 236 92 z "},"Ǫ":{"ha":556,"x_min":25,"x_max":532,"o":"m 279 -15 q 139 31 196 -15 q 53 176 82 78 q 25 429 25 275 q 53 678 25 581 q 139 825 82 776 q 279 874 196 874 q 419 825 363 874 q 503 678 475 776 q 532 429 532 581 q 503 176 532 275 q 419 31 475 78 q 279 -15 363 -15 m 279 92 q 352 125 322 92 q 399 233 382 158 q 415 431 415 307 q 399 622 415 547 q 352 731 382 696 q 279 767 322 767 q 206 731 236 767 q 159 622 175 696 q 143 431 143 547 q 159 233 143 307 q 206 125 175 158 q 279 92 236 92 m 378 -206 l 339 -308 q 263 -274 293 -296 q 215 -225 232 -253 q 199 -164 199 -197 q 216 -91 199 -128 q 266 -18 233 -54 q 346 50 299 18 l 389 17 q 344 -35 363 -8 q 315 -85 325 -61 q 306 -129 306 -108 q 324 -176 306 -156 q 378 -206 342 -196 z "},"Ø":{"ha":556,"x_min":25,"x_max":532,"o":"m 104 -67 l 40 -36 l 449 947 l 511 915 l 104 -67 m 279 -15 q 139 31 196 -15 q 53 176 82 78 q 25 429 25 275 q 53 678 25 581 q 139 825 82 776 q 279 874 196 874 q 419 825 363 874 q 503 678 475 776 q 532 429 532 581 q 503 176 532 275 q 419 31 475 78 q 279 -15 363 -15 m 279 92 q 352 125 322 92 q 399 233 382 158 q 415 431 415 307 q 399 622 415 547 q 352 731 382 696 q 279 767 322 767 q 206 731 236 767 q 159 622 175 696 q 143 431 143 547 q 159 233 143 307 q 206 125 175 158 q 279 92 236 92 z "},"Ǿ":{"ha":556,"x_min":25,"x_max":532,"o":"m 104 -67 l 40 -36 l 449 947 l 511 915 l 104 -67 m 279 -15 q 139 31 196 -15 q 53 176 82 78 q 25 429 25 275 q 53 678 25 581 q 139 825 82 776 q 279 874 196 874 q 419 825 363 874 q 503 678 475 776 q 532 429 532 581 q 503 176 532 275 q 419 31 475 78 q 279 -15 363 -15 m 279 92 q 352 125 322 92 q 399 233 382 158 q 415 431 415 307 q 399 622 415 547 q 352 731 382 696 q 279 767 322 767 q 206 731 236 767 q 159 622 175 696 q 143 431 143 547 q 159 233 143 307 q 206 125 175 158 q 279 92 236 92 z "},"Õ":{"ha":556,"x_min":25,"x_max":532,"o":"m 279 -15 q 139 31 196 -15 q 53 176 82 78 q 25 429 25 275 q 53 678 25 581 q 139 825 82 776 q 279 874 196 874 q 419 825 363 874 q 503 678 475 776 q 532 429 532 581 q 503 176 532 275 q 419 31 475 78 q 279 -15 363 -15 m 279 92 q 352 125 322 92 q 399 233 382 158 q 415 431 415 307 q 399 622 415 547 q 352 731 382 696 q 279 767 322 767 q 206 731 236 767 q 159 622 175 696 q 143 431 143 547 q 159 233 143 307 q 206 125 175 158 q 279 92 236 92 z "},"Ṍ":{"ha":556,"x_min":25,"x_max":532,"o":"m 279 -15 q 139 31 196 -15 q 53 176 82 78 q 25 429 25 275 q 53 678 25 581 q 139 825 82 776 q 279 874 196 874 q 419 825 363 874 q 503 678 475 776 q 532 429 532 581 q 503 176 532 275 q 419 31 475 78 q 279 -15 363 -15 m 279 92 q 352 125 322 92 q 399 233 382 158 q 415 431 415 307 q 399 622 415 547 q 352 731 382 696 q 279 767 322 767 q 206 731 236 767 q 159 622 175 696 q 143 431 143 547 q 159 233 143 307 q 206 125 175 158 q 279 92 236 92 z "},"Ṏ":{"ha":556,"x_min":25,"x_max":532,"o":"m 279 -15 q 139 31 196 -15 q 53 176 82 78 q 25 429 25 275 q 53 678 25 581 q 139 825 82 776 q 279 874 196 874 q 419 825 363 874 q 503 678 475 776 q 532 429 532 581 q 503 176 532 275 q 419 31 475 78 q 279 -15 363 -15 m 279 92 q 352 125 322 92 q 399 233 382 158 q 415 431 415 307 q 399 622 415 547 q 352 731 382 696 q 279 767 322 767 q 206 731 236 767 q 159 622 175 696 q 143 431 143 547 q 159 233 143 307 q 206 125 175 158 q 279 92 236 92 z "},"Ȭ":{"ha":556,"x_min":25,"x_max":532,"o":"m 279 -15 q 139 31 196 -15 q 53 176 82 78 q 25 429 25 275 q 53 678 25 581 q 139 825 82 776 q 279 874 196 874 q 419 825 363 874 q 503 678 475 776 q 532 429 532 581 q 503 176 532 275 q 419 31 475 78 q 279 -15 363 -15 m 279 92 q 352 125 322 92 q 399 233 382 158 q 415 431 415 307 q 399 622 415 547 q 352 731 382 696 q 279 767 322 767 q 206 731 236 767 q 159 622 175 696 q 143 431 143 547 q 159 233 143 307 q 206 125 175 158 q 279 92 236 92 m 382 1160 l 446 1128 q 402 1050 428 1078 q 346 1022 376 1022 q 306 1033 324 1022 q 275 1058 289 1044 q 249 1083 261 1072 q 226 1093 238 1093 q 200 1078 211 1093 q 181 1040 189 1064 l 115 1072 q 158 1150 129 1121 q 217 1179 186 1179 q 257 1169 239 1179 q 290 1144 275 1158 q 317 1119 304 1129 q 340 1108 329 1108 q 363 1122 353 1108 q 382 1160 372 1135 z "},"Œ":{"ha":556,"x_min":7,"x_max":543,"o":"m 190 -10 q 116 14 150 -10 q 58 90 82 38 q 20 226 33 142 q 7 433 7 311 q 29 687 7 589 q 92 831 51 785 q 193 878 133 878 q 233 867 213 878 q 269 836 253 857 l 269 867 l 543 867 l 543 760 l 375 760 l 375 506 l 518 506 l 518 397 l 375 397 l 375 107 l 540 107 l 540 0 l 268 0 l 268 31 q 232 0 253 10 q 190 -10 211 -10 m 207 100 q 245 124 231 100 q 265 190 260 149 l 265 667 q 242 743 257 714 q 199 772 226 772 q 167 756 182 772 q 142 703 153 740 q 125 600 131 665 q 119 435 119 535 q 129 250 119 325 q 158 138 139 175 q 207 100 176 100 z "},"P":{"ha":556,"x_min":56,"x_max":518,"o":"m 56 0 l 56 865 l 283 865 q 416 834 364 865 q 493 747 468 803 q 518 615 518 692 q 503 516 518 561 q 460 438 489 471 q 388 386 431 404 q 290 368 346 368 l 176 368 l 176 0 l 56 0 m 176 476 l 281 476 q 346 494 319 476 q 385 542 372 511 q 399 614 399 574 q 385 689 399 658 q 345 736 371 719 q 281 753 319 753 l 176 753 l 176 476 z "},"Þ":{"ha":556,"x_min":57,"x_max":522,"o":"m 57 0 l 57 865 l 185 865 q 187 863 186 864 q 188 860 188 863 q 183 848 188 856 q 176 824 178 840 l 176 708 l 290 708 q 422 676 371 708 q 497 586 472 643 q 522 458 522 529 q 498 331 522 386 q 422 243 474 275 q 292 211 371 211 l 175 211 l 175 0 l 57 0 m 175 317 l 286 317 q 355 335 329 317 q 392 385 381 353 q 404 454 404 417 q 391 526 404 493 q 351 578 378 558 q 283 599 325 599 l 176 599 l 175 317 z "},"Q":{"ha":556,"x_min":26,"x_max":532,"o":"m 432 -200 q 341 -194 379 -203 q 278 -162 303 -185 q 242 -101 254 -139 q 231 -8 231 -64 q 125 58 171 7 q 53 200 79 108 q 26 429 26 292 q 47 644 26 558 q 104 782 68 731 q 185 855 140 833 q 279 876 231 876 q 377 853 331 876 q 458 778 424 829 q 513 641 493 726 q 531 432 532 556 q 517 249 531 326 q 480 118 504 171 q 419 35 456 65 q 338 -8 383 4 q 345 -55 339 -35 q 366 -85 351 -75 q 406 -96 381 -96 l 493 -92 l 490 -200 l 432 -200 m 283 96 q 333 113 310 96 q 376 169 357 131 q 405 267 394 207 q 415 414 415 328 q 404 585 415 517 q 374 694 393 654 q 330 752 354 735 q 279 769 306 769 q 222 748 247 769 q 178 685 196 726 q 151 585 161 644 q 142 447 142 525 q 159 250 142 328 q 208 134 176 172 q 283 96 240 96 z "},"R":{"ha":556,"x_min":56,"x_max":525,"o":"m 56 0 l 56 865 l 265 865 q 401 835 349 865 q 480 750 454 806 q 506 617 506 694 q 490 513 506 561 q 444 432 474 465 q 374 382 415 399 l 525 0 l 403 0 l 258 371 l 174 371 l 174 0 l 56 0 m 174 478 l 274 478 q 358 513 329 478 q 386 615 386 547 q 374 690 386 658 q 336 737 361 721 q 274 753 311 753 l 174 753 l 174 478 z "},"Ŕ":{"ha":556,"x_min":56,"x_max":525,"o":"m 56 0 l 56 865 l 265 865 q 401 835 349 865 q 480 750 454 806 q 506 617 506 694 q 490 513 506 561 q 444 432 474 465 q 374 382 415 399 l 525 0 l 403 0 l 258 371 l 174 371 l 174 0 l 56 0 m 174 478 l 274 478 q 358 513 329 478 q 386 615 386 547 q 374 690 386 658 q 336 737 361 721 q 274 753 311 753 l 174 753 l 174 478 z "},"Ř":{"ha":556,"x_min":56,"x_max":525,"o":"m 56 0 l 56 865 l 265 865 q 401 835 349 865 q 480 750 454 806 q 506 617 506 694 q 490 513 506 561 q 444 432 474 465 q 374 382 415 399 l 525 0 l 403 0 l 258 371 l 174 371 l 174 0 l 56 0 m 174 478 l 274 478 q 358 513 329 478 q 386 615 386 547 q 374 690 386 658 q 336 737 361 721 q 274 753 311 753 l 174 753 l 174 478 z "},"Ŗ":{"ha":556,"x_min":56,"x_max":525,"o":"m 56 0 l 56 865 l 265 865 q 401 835 349 865 q 480 750 454 806 q 506 617 506 694 q 490 513 506 561 q 444 432 474 465 q 374 382 415 399 l 525 0 l 403 0 l 258 371 l 174 371 l 174 0 l 56 0 m 174 478 l 274 478 q 358 513 329 478 q 386 615 386 547 q 374 690 386 658 q 336 737 361 721 q 274 753 311 753 l 174 753 l 174 478 m 260 -393 l 203 -346 q 249 -281 232 -314 q 267 -224 267 -247 q 255 -192 267 -207 q 231 -161 243 -178 q 218 -119 218 -144 q 240 -62 218 -83 q 293 -42 263 -42 q 351 -69 328 -42 q 375 -146 375 -97 q 363 -224 375 -183 q 324 -306 350 -264 q 260 -393 299 -347 z "},"Ȑ":{"ha":556,"x_min":56,"x_max":525,"o":"m 56 0 l 56 865 l 265 865 q 401 835 349 865 q 480 750 454 806 q 506 617 506 694 q 490 513 506 561 q 444 432 474 465 q 374 382 415 399 l 525 0 l 403 0 l 258 371 l 174 371 l 174 0 l 56 0 m 174 478 l 274 478 q 358 513 329 478 q 386 615 386 547 q 374 690 386 658 q 336 737 361 721 q 274 753 311 753 l 174 753 l 174 478 z "},"Ṛ":{"ha":556,"x_min":56,"x_max":525,"o":"m 56 0 l 56 865 l 265 865 q 401 835 349 865 q 480 750 454 806 q 506 617 506 694 q 490 513 506 561 q 444 432 474 465 q 374 382 415 399 l 525 0 l 403 0 l 258 371 l 174 371 l 174 0 l 56 0 m 174 478 l 274 478 q 358 513 329 478 q 386 615 386 547 q 374 690 386 658 q 336 737 361 721 q 274 753 311 753 l 174 753 l 174 478 z "},"Ȓ":{"ha":556,"x_min":56,"x_max":525,"o":"m 56 0 l 56 865 l 265 865 q 401 835 349 865 q 480 750 454 806 q 506 617 506 694 q 490 513 506 561 q 444 432 474 465 q 374 382 415 399 l 525 0 l 403 0 l 258 371 l 174 371 l 174 0 l 56 0 m 174 478 l 274 478 q 358 513 329 478 q 386 615 386 547 q 374 690 386 658 q 336 737 361 721 q 274 753 311 753 l 174 753 l 174 478 m 192 964 l 113 999 q 182 1097 139 1064 q 278 1131 225 1131 q 375 1097 331 1131 q 444 999 419 1064 l 365 964 q 328 1030 350 1008 q 278 1051 307 1051 q 242 1042 258 1051 q 214 1013 226 1032 q 192 964 201 993 z "},"Ṟ":{"ha":556,"x_min":56,"x_max":525,"o":"m 56 0 l 56 865 l 265 865 q 401 835 349 865 q 480 750 454 806 q 506 617 506 694 q 490 513 506 561 q 444 432 474 465 q 374 382 415 399 l 525 0 l 403 0 l 258 371 l 174 371 l 174 0 l 56 0 m 174 478 l 274 478 q 358 513 329 478 q 386 615 386 547 q 374 690 386 658 q 336 737 361 721 q 274 753 311 753 l 174 753 l 174 478 z "},"S":{"ha":556,"x_min":46,"x_max":511,"o":"m 271 -14 q 143 10 200 -14 q 46 82 86 33 l 99 199 l 103 211 l 114 206 q 120 183 118 196 q 136 151 122 169 q 198 110 164 126 q 272 94 232 94 q 323 103 300 94 q 362 129 346 113 q 386 171 378 146 q 394 226 394 196 q 392 263 394 246 q 381 296 389 281 q 358 327 374 311 q 319 360 343 343 q 258 397 294 378 q 147 473 189 433 q 88 558 106 513 q 71 658 71 604 q 98 776 71 726 q 174 851 125 825 q 288 878 224 878 q 367 866 331 878 q 435 833 404 854 q 492 778 467 811 l 433 679 l 428 668 l 418 674 q 413 698 415 685 q 397 728 411 711 q 349 762 374 753 q 289 771 324 771 q 247 764 265 771 q 215 742 228 757 q 194 708 201 728 q 188 665 188 689 q 191 627 188 644 q 203 594 194 610 q 229 561 213 578 q 272 527 246 544 q 336 490 299 510 q 420 435 386 463 q 474 378 454 408 q 503 314 494 349 q 511 239 511 279 q 485 112 511 169 q 405 20 458 54 q 271 -14 351 -14 l 271 -14 z "},"Ś":{"ha":556,"x_min":46,"x_max":511,"o":"m 271 -14 q 143 10 200 -14 q 46 82 86 33 l 99 199 l 103 211 l 114 206 q 120 183 118 196 q 136 151 122 169 q 198 110 164 126 q 272 94 232 94 q 323 103 300 94 q 362 129 346 113 q 386 171 378 146 q 394 226 394 196 q 392 263 394 246 q 381 296 389 281 q 358 327 374 311 q 319 360 343 343 q 258 397 294 378 q 147 473 189 433 q 88 558 106 513 q 71 658 71 604 q 98 776 71 726 q 174 851 125 825 q 288 878 224 878 q 367 866 331 878 q 435 833 404 854 q 492 778 467 811 l 433 679 l 428 668 l 418 674 q 413 698 415 685 q 397 728 411 711 q 349 762 374 753 q 289 771 324 771 q 247 764 265 771 q 215 742 228 757 q 194 708 201 728 q 188 665 188 689 q 191 627 188 644 q 203 594 194 610 q 229 561 213 578 q 272 527 246 544 q 336 490 299 510 q 420 435 386 463 q 474 378 454 408 q 503 314 494 349 q 511 239 511 279 q 485 112 511 169 q 405 20 458 54 q 271 -14 351 -14 l 271 -14 z "},"Ṥ":{"ha":556,"x_min":46,"x_max":511,"o":"m 271 -14 q 143 10 200 -14 q 46 82 86 33 l 99 199 l 103 211 l 114 206 q 120 183 118 196 q 136 151 122 169 q 198 110 164 126 q 272 94 232 94 q 323 103 300 94 q 362 129 346 113 q 386 171 378 146 q 394 226 394 196 q 392 263 394 246 q 381 296 389 281 q 358 327 374 311 q 319 360 343 343 q 258 397 294 378 q 147 473 189 433 q 88 558 106 513 q 71 658 71 604 q 98 776 71 726 q 174 851 125 825 q 288 878 224 878 q 367 866 331 878 q 435 833 404 854 q 492 778 467 811 l 433 679 l 428 668 l 418 674 q 413 698 415 685 q 397 728 411 711 q 349 762 374 753 q 289 771 324 771 q 247 764 265 771 q 215 742 228 757 q 194 708 201 728 q 188 665 188 689 q 191 627 188 644 q 203 594 194 610 q 229 561 213 578 q 272 527 246 544 q 336 490 299 510 q 420 435 386 463 q 474 378 454 408 q 503 314 494 349 q 511 239 511 279 q 485 112 511 169 q 405 20 458 54 q 271 -14 351 -14 l 271 -14 z "},"Š":{"ha":556,"x_min":46,"x_max":511,"o":"m 271 -14 q 143 10 200 -14 q 46 82 86 33 l 99 199 l 103 211 l 114 206 q 120 183 118 196 q 136 151 122 169 q 198 110 164 126 q 272 94 232 94 q 323 103 300 94 q 362 129 346 113 q 386 171 378 146 q 394 226 394 196 q 392 263 394 246 q 381 296 389 281 q 358 327 374 311 q 319 360 343 343 q 258 397 294 378 q 147 473 189 433 q 88 558 106 513 q 71 658 71 604 q 98 776 71 726 q 174 851 125 825 q 288 878 224 878 q 367 866 331 878 q 435 833 404 854 q 492 778 467 811 l 433 679 l 428 668 l 418 674 q 413 698 415 685 q 397 728 411 711 q 349 762 374 753 q 289 771 324 771 q 247 764 265 771 q 215 742 228 757 q 194 708 201 728 q 188 665 188 689 q 191 627 188 644 q 203 594 194 610 q 229 561 213 578 q 272 527 246 544 q 336 490 299 510 q 420 435 386 463 q 474 378 454 408 q 503 314 494 349 q 511 239 511 279 q 485 112 511 169 q 405 20 458 54 q 271 -14 351 -14 l 271 -14 z "},"Ṧ":{"ha":556,"x_min":46,"x_max":511,"o":"m 271 -14 q 143 10 200 -14 q 46 82 86 33 l 99 199 l 103 211 l 114 206 q 120 183 118 196 q 136 151 122 169 q 198 110 164 126 q 272 94 232 94 q 323 103 300 94 q 362 129 346 113 q 386 171 378 146 q 394 226 394 196 q 392 263 394 246 q 381 296 389 281 q 358 327 374 311 q 319 360 343 343 q 258 397 294 378 q 147 473 189 433 q 88 558 106 513 q 71 658 71 604 q 98 776 71 726 q 174 851 125 825 q 288 878 224 878 q 367 866 331 878 q 435 833 404 854 q 492 778 467 811 l 433 679 l 428 668 l 418 674 q 413 698 415 685 q 397 728 411 711 q 349 762 374 753 q 289 771 324 771 q 247 764 265 771 q 215 742 228 757 q 194 708 201 728 q 188 665 188 689 q 191 627 188 644 q 203 594 194 610 q 229 561 213 578 q 272 527 246 544 q 336 490 299 510 q 420 435 386 463 q 474 378 454 408 q 503 314 494 349 q 511 239 511 279 q 485 112 511 169 q 405 20 458 54 q 271 -14 351 -14 l 271 -14 z "},"Ş":{"ha":556,"x_min":46,"x_max":511,"o":"m 271 -14 q 143 10 200 -14 q 46 82 86 33 l 99 199 l 103 211 l 114 206 q 120 183 118 196 q 136 151 122 169 q 198 110 164 126 q 272 94 232 94 q 323 103 300 94 q 362 129 346 113 q 386 171 378 146 q 394 226 394 196 q 392 263 394 246 q 381 296 389 281 q 358 327 374 311 q 319 360 343 343 q 258 397 294 378 q 147 473 189 433 q 88 558 106 513 q 71 658 71 604 q 98 776 71 726 q 174 851 125 825 q 288 878 224 878 q 367 866 331 878 q 435 833 404 854 q 492 778 467 811 l 433 679 l 428 668 l 418 674 q 413 698 415 685 q 397 728 411 711 q 349 762 374 753 q 289 771 324 771 q 247 764 265 771 q 215 742 228 757 q 194 708 201 728 q 188 665 188 689 q 191 627 188 644 q 203 594 194 610 q 229 561 213 578 q 272 527 246 544 q 336 490 299 510 q 420 435 386 463 q 474 378 454 408 q 503 314 494 349 q 511 239 511 279 q 485 112 511 169 q 405 20 458 54 q 271 -14 351 -14 l 271 -14 z "},"Ŝ":{"ha":556,"x_min":46,"x_max":511,"o":"m 271 -14 q 143 10 200 -14 q 46 82 86 33 l 99 199 l 103 211 l 114 206 q 120 183 118 196 q 136 151 122 169 q 198 110 164 126 q 272 94 232 94 q 323 103 300 94 q 362 129 346 113 q 386 171 378 146 q 394 226 394 196 q 392 263 394 246 q 381 296 389 281 q 358 327 374 311 q 319 360 343 343 q 258 397 294 378 q 147 473 189 433 q 88 558 106 513 q 71 658 71 604 q 98 776 71 726 q 174 851 125 825 q 288 878 224 878 q 367 866 331 878 q 435 833 404 854 q 492 778 467 811 l 433 679 l 428 668 l 418 674 q 413 698 415 685 q 397 728 411 711 q 349 762 374 753 q 289 771 324 771 q 247 764 265 771 q 215 742 228 757 q 194 708 201 728 q 188 665 188 689 q 191 627 188 644 q 203 594 194 610 q 229 561 213 578 q 272 527 246 544 q 336 490 299 510 q 420 435 386 463 q 474 378 454 408 q 503 314 494 349 q 511 239 511 279 q 485 112 511 169 q 405 20 458 54 q 271 -14 351 -14 l 271 -14 m 140 904 l 97 968 l 269 1107 l 300 1107 l 472 969 l 429 904 l 286 999 l 140 904 z "},"Ș":{"ha":556,"x_min":46,"x_max":511,"o":"m 271 -14 q 143 10 200 -14 q 46 82 86 33 l 99 199 l 103 211 l 114 206 q 120 183 118 196 q 136 151 122 169 q 198 110 164 126 q 272 94 232 94 q 323 103 300 94 q 362 129 346 113 q 386 171 378 146 q 394 226 394 196 q 392 263 394 246 q 381 296 389 281 q 358 327 374 311 q 319 360 343 343 q 258 397 294 378 q 147 473 189 433 q 88 558 106 513 q 71 658 71 604 q 98 776 71 726 q 174 851 125 825 q 288 878 224 878 q 367 866 331 878 q 435 833 404 854 q 492 778 467 811 l 433 679 l 428 668 l 418 674 q 413 698 415 685 q 397 728 411 711 q 349 762 374 753 q 289 771 324 771 q 247 764 265 771 q 215 742 228 757 q 194 708 201 728 q 188 665 188 689 q 191 627 188 644 q 203 594 194 610 q 229 561 213 578 q 272 527 246 544 q 336 490 299 510 q 420 435 386 463 q 474 378 454 408 q 503 314 494 349 q 511 239 511 279 q 485 112 511 169 q 405 20 458 54 q 271 -14 351 -14 l 271 -14 m 260 -393 l 203 -346 q 249 -281 232 -314 q 267 -224 267 -247 q 255 -192 267 -207 q 231 -161 243 -178 q 218 -119 218 -144 q 240 -62 218 -83 q 293 -42 263 -42 q 351 -69 328 -42 q 375 -146 375 -97 q 363 -224 375 -183 q 324 -306 350 -264 q 260 -393 299 -347 z "},"Ṡ":{"ha":556,"x_min":46,"x_max":511,"o":"m 271 -14 q 143 10 200 -14 q 46 82 86 33 l 99 199 l 103 211 l 114 206 q 120 183 118 196 q 136 151 122 169 q 198 110 164 126 q 272 94 232 94 q 323 103 300 94 q 362 129 346 113 q 386 171 378 146 q 394 226 394 196 q 392 263 394 246 q 381 296 389 281 q 358 327 374 311 q 319 360 343 343 q 258 397 294 378 q 147 473 189 433 q 88 558 106 513 q 71 658 71 604 q 98 776 71 726 q 174 851 125 825 q 288 878 224 878 q 367 866 331 878 q 435 833 404 854 q 492 778 467 811 l 433 679 l 428 668 l 418 674 q 413 698 415 685 q 397 728 411 711 q 349 762 374 753 q 289 771 324 771 q 247 764 265 771 q 215 742 228 757 q 194 708 201 728 q 188 665 188 689 q 191 627 188 644 q 203 594 194 610 q 229 561 213 578 q 272 527 246 544 q 336 490 299 510 q 420 435 386 463 q 474 378 454 408 q 503 314 494 349 q 511 239 511 279 q 485 112 511 169 q 405 20 458 54 q 271 -14 351 -14 l 271 -14 z "},"Ṣ":{"ha":556,"x_min":46,"x_max":511,"o":"m 271 -14 q 143 10 200 -14 q 46 82 86 33 l 99 199 l 103 211 l 114 206 q 120 183 118 196 q 136 151 122 169 q 198 110 164 126 q 272 94 232 94 q 323 103 300 94 q 362 129 346 113 q 386 171 378 146 q 394 226 394 196 q 392 263 394 246 q 381 296 389 281 q 358 327 374 311 q 319 360 343 343 q 258 397 294 378 q 147 473 189 433 q 88 558 106 513 q 71 658 71 604 q 98 776 71 726 q 174 851 125 825 q 288 878 224 878 q 367 866 331 878 q 435 833 404 854 q 492 778 467 811 l 433 679 l 428 668 l 418 674 q 413 698 415 685 q 397 728 411 711 q 349 762 374 753 q 289 771 324 771 q 247 764 265 771 q 215 742 228 757 q 194 708 201 728 q 188 665 188 689 q 191 627 188 644 q 203 594 194 610 q 229 561 213 578 q 272 527 246 544 q 336 490 299 510 q 420 435 386 463 q 474 378 454 408 q 503 314 494 349 q 511 239 511 279 q 485 112 511 169 q 405 20 458 54 q 271 -14 351 -14 l 271 -14 z "},"Ṩ":{"ha":556,"x_min":46,"x_max":511,"o":"m 271 -14 q 143 10 200 -14 q 46 82 86 33 l 99 199 l 103 211 l 114 206 q 120 183 118 196 q 136 151 122 169 q 198 110 164 126 q 272 94 232 94 q 323 103 300 94 q 362 129 346 113 q 386 171 378 146 q 394 226 394 196 q 392 263 394 246 q 381 296 389 281 q 358 327 374 311 q 319 360 343 343 q 258 397 294 378 q 147 473 189 433 q 88 558 106 513 q 71 658 71 604 q 98 776 71 726 q 174 851 125 825 q 288 878 224 878 q 367 866 331 878 q 435 833 404 854 q 492 778 467 811 l 433 679 l 428 668 l 418 674 q 413 698 415 685 q 397 728 411 711 q 349 762 374 753 q 289 771 324 771 q 247 764 265 771 q 215 742 228 757 q 194 708 201 728 q 188 665 188 689 q 191 627 188 644 q 203 594 194 610 q 229 561 213 578 q 272 527 246 544 q 336 490 299 510 q 420 435 386 463 q 474 378 454 408 q 503 314 494 349 q 511 239 511 279 q 485 112 511 169 q 405 20 458 54 q 271 -14 351 -14 l 271 -14 z "},"ẞ":{"ha":556,"x_min":50,"x_max":521,"o":"m 324 -15 q 259 -6 288 -15 q 207 22 231 4 l 240 124 q 262 108 251 114 q 284 98 272 101 q 307 94 296 94 q 347 106 329 94 q 378 138 365 117 q 399 191 392 160 q 406 263 406 222 q 394 348 406 310 q 353 410 383 386 q 268 433 324 433 l 238 433 l 238 539 l 365 693 q 355 760 364 731 q 326 808 346 790 q 272 826 307 826 q 233 817 251 826 q 199 786 214 807 q 175 732 183 765 q 167 653 167 699 l 167 0 l 50 0 l 50 633 q 68 775 50 718 q 117 867 86 832 q 187 916 147 901 q 271 931 226 931 q 383 899 338 931 q 452 810 429 867 q 475 676 475 753 l 292 467 l 269 536 q 410 502 354 536 q 493 405 465 468 q 521 251 521 342 q 507 135 521 185 q 467 51 493 85 q 403 1 440 18 q 324 -15 367 -15 z "},"Ə":{"ha":556,"x_min":25,"x_max":532,"o":"m 279 -15 q 139 31 196 -15 q 53 176 82 78 q 25 429 25 275 q 53 678 25 581 q 139 825 82 776 q 279 874 196 874 q 419 825 363 874 q 503 678 475 776 q 532 429 532 581 q 503 176 532 275 q 419 31 475 78 q 279 -15 363 -15 m 279 92 q 352 125 322 92 q 399 233 382 158 q 415 431 415 307 q 399 622 415 547 q 352 731 382 696 q 279 767 322 767 q 206 731 236 767 q 159 622 175 696 q 143 431 143 547 q 159 233 143 307 q 206 125 175 158 q 279 92 236 92 z "},"T":{"ha":556,"x_min":29,"x_max":524,"o":"m 214 0 l 214 757 l 29 757 l 29 867 l 524 867 l 524 757 l 331 757 l 331 0 l 214 0 z "},"Ŧ":{"ha":556,"x_min":29,"x_max":524,"o":"m 214 0 l 214 757 l 29 757 l 29 867 l 524 867 l 524 757 l 331 757 l 331 0 l 214 0 m 86 389 l 86 483 l 460 483 l 460 389 l 86 389 z "},"Ť":{"ha":556,"x_min":29,"x_max":524,"o":"m 214 0 l 214 757 l 29 757 l 29 867 l 524 867 l 524 757 l 331 757 l 331 0 l 214 0 z "},"Ţ":{"ha":556,"x_min":29,"x_max":524,"o":"m 214 0 l 214 757 l 29 757 l 29 867 l 524 867 l 524 757 l 331 757 l 331 0 l 214 0 z "},"Ț":{"ha":556,"x_min":29,"x_max":524,"o":"m 214 0 l 214 757 l 29 757 l 29 867 l 524 867 l 524 757 l 331 757 l 331 0 l 214 0 m 260 -393 l 203 -346 q 249 -281 232 -314 q 267 -224 267 -247 q 255 -192 267 -207 q 231 -161 243 -178 q 218 -119 218 -144 q 240 -62 218 -83 q 293 -42 263 -42 q 351 -69 328 -42 q 375 -146 375 -97 q 363 -224 375 -183 q 324 -306 350 -264 q 260 -393 299 -347 z "},"Ṭ":{"ha":556,"x_min":29,"x_max":524,"o":"m 214 0 l 214 757 l 29 757 l 29 867 l 524 867 l 524 757 l 331 757 l 331 0 l 214 0 z "},"Ṯ":{"ha":556,"x_min":29,"x_max":524,"o":"m 214 0 l 214 757 l 29 757 l 29 867 l 524 867 l 524 757 l 331 757 l 331 0 l 214 0 z "},"U":{"ha":556,"x_min":47,"x_max":513,"o":"m 279 -17 q 103 63 158 -17 q 47 289 47 142 l 47 865 l 163 865 l 176 865 l 176 854 q 166 836 168 846 q 164 803 164 826 l 164 288 q 190 140 164 192 q 279 90 215 89 q 371 144 346 90 q 396 292 396 197 l 396 865 l 513 865 l 513 293 q 485 116 513 185 q 405 15 457 47 q 279 -17 353 -17 l 279 -17 z "},"Ú":{"ha":556,"x_min":47,"x_max":513,"o":"m 279 -17 q 103 63 158 -17 q 47 289 47 142 l 47 865 l 163 865 l 176 865 l 176 854 q 166 836 168 846 q 164 803 164 826 l 164 288 q 190 140 164 192 q 279 90 215 89 q 371 144 346 90 q 396 292 396 197 l 396 865 l 513 865 l 513 293 q 485 116 513 185 q 405 15 457 47 q 279 -17 353 -17 l 279 -17 z "},"Ŭ":{"ha":556,"x_min":47,"x_max":513,"o":"m 279 -17 q 103 63 158 -17 q 47 289 47 142 l 47 865 l 163 865 l 176 865 l 176 854 q 166 836 168 846 q 164 803 164 826 l 164 288 q 190 140 164 192 q 279 90 215 89 q 371 144 346 90 q 396 292 396 197 l 396 865 l 513 865 l 513 293 q 485 116 513 185 q 405 15 457 47 q 279 -17 353 -17 l 279 -17 z "},"Û":{"ha":556,"x_min":47,"x_max":513,"o":"m 279 -17 q 103 63 158 -17 q 47 289 47 142 l 47 865 l 163 865 l 176 865 l 176 854 q 166 836 168 846 q 164 803 164 826 l 164 288 q 190 140 164 192 q 279 90 215 89 q 371 144 346 90 q 396 292 396 197 l 396 865 l 513 865 l 513 293 q 485 116 513 185 q 405 15 457 47 q 279 -17 353 -17 l 279 -17 m 133 904 l 90 968 l 263 1107 l 293 1107 l 465 969 l 422 904 l 279 999 l 133 904 z "},"Ȕ":{"ha":556,"x_min":47,"x_max":513,"o":"m 279 -17 q 103 63 158 -17 q 47 289 47 142 l 47 865 l 163 865 l 176 865 l 176 854 q 166 836 168 846 q 164 803 164 826 l 164 288 q 190 140 164 192 q 279 90 215 89 q 371 144 346 90 q 396 292 396 197 l 396 865 l 513 865 l 513 293 q 485 116 513 185 q 405 15 457 47 q 279 -17 353 -17 l 279 -17 z "},"Ü":{"ha":556,"x_min":47,"x_max":513,"o":"m 279 -17 q 103 63 158 -17 q 47 289 47 142 l 47 865 l 163 865 l 176 865 l 176 854 q 166 836 168 846 q 164 803 164 826 l 164 288 q 190 140 164 192 q 279 90 215 89 q 371 144 346 90 q 396 292 396 197 l 396 865 l 513 865 l 513 293 q 485 116 513 185 q 405 15 457 47 q 279 -17 353 -17 l 279 -17 z "},"Ụ":{"ha":556,"x_min":47,"x_max":513,"o":"m 279 -17 q 103 63 158 -17 q 47 289 47 142 l 47 865 l 163 865 l 176 865 l 176 854 q 166 836 168 846 q 164 803 164 826 l 164 288 q 190 140 164 192 q 279 90 215 89 q 371 144 346 90 q 396 292 396 197 l 396 865 l 513 865 l 513 293 q 485 116 513 185 q 405 15 457 47 q 279 -17 353 -17 l 279 -17 z "},"Ù":{"ha":556,"x_min":47,"x_max":513,"o":"m 279 -17 q 103 63 158 -17 q 47 289 47 142 l 47 865 l 163 865 l 176 865 l 176 854 q 166 836 168 846 q 164 803 164 826 l 164 288 q 190 140 164 192 q 279 90 215 89 q 371 144 346 90 q 396 292 396 197 l 396 865 l 513 865 l 513 293 q 485 116 513 185 q 405 15 457 47 q 279 -17 353 -17 l 279 -17 z "},"Ủ":{"ha":556,"x_min":47,"x_max":513,"o":"m 279 -17 q 103 63 158 -17 q 47 289 47 142 l 47 865 l 163 865 l 176 865 l 176 854 q 166 836 168 846 q 164 803 164 826 l 164 288 q 190 140 164 192 q 279 90 215 89 q 371 144 346 90 q 396 292 396 197 l 396 865 l 513 865 l 513 293 q 485 116 513 185 q 405 15 457 47 q 279 -17 353 -17 l 279 -17 m 393 1114 q 383 1069 393 1088 q 359 1037 372 1051 q 335 1006 346 1022 q 325 965 325 989 l 325 951 l 244 951 l 244 989 q 254 1024 244 1008 q 277 1052 264 1039 q 300 1078 290 1065 q 310 1104 310 1092 q 300 1130 310 1121 q 275 1139 290 1139 q 244 1130 258 1139 q 219 1096 229 1121 l 178 1168 q 227 1208 199 1196 q 286 1221 256 1221 q 341 1208 317 1221 q 379 1171 365 1194 q 393 1114 393 1147 z "},"Ư":{"ha":556,"x_min":42,"x_max":556,"o":"m 250 -17 q 92 63 143 -17 q 42 289 42 142 l 42 865 l 147 865 l 160 865 l 160 854 q 149 836 151 846 q 149 803 147 826 l 149 288 q 171 140 149 192 q 251 90 193 89 q 333 144 311 90 q 356 292 356 197 l 356 865 l 461 865 l 461 293 q 436 116 461 185 q 365 15 411 47 q 250 -17 318 -17 l 250 -17 m 453 781 l 440 865 q 465 876 457 865 q 474 916 472 888 q 476 996 476 944 l 554 996 q 547 873 554 921 q 519 803 540 825 q 453 781 497 781 z "},"Ứ":{"ha":556,"x_min":42,"x_max":556,"o":"m 250 -17 q 92 63 143 -17 q 42 289 42 142 l 42 865 l 147 865 l 160 865 l 160 854 q 149 836 151 846 q 149 803 147 826 l 149 288 q 171 140 149 192 q 251 90 193 89 q 333 144 311 90 q 356 292 356 197 l 356 865 l 461 865 l 461 293 q 436 116 461 185 q 365 15 411 47 q 250 -17 318 -17 l 250 -17 m 453 781 l 440 865 q 465 876 457 865 q 474 916 472 888 q 476 996 476 944 l 554 996 q 547 873 554 921 q 519 803 540 825 q 453 781 497 781 z "},"Ự":{"ha":556,"x_min":42,"x_max":556,"o":"m 250 -17 q 92 63 143 -17 q 42 289 42 142 l 42 865 l 147 865 l 160 865 l 160 854 q 149 836 151 846 q 149 803 147 826 l 149 288 q 171 140 149 192 q 251 90 193 89 q 333 144 311 90 q 356 292 356 197 l 356 865 l 461 865 l 461 293 q 436 116 461 185 q 365 15 411 47 q 250 -17 318 -17 l 250 -17 m 453 781 l 440 865 q 465 876 457 865 q 474 916 472 888 q 476 996 476 944 l 554 996 q 547 873 554 921 q 519 803 540 825 q 453 781 497 781 z "},"Ừ":{"ha":556,"x_min":42,"x_max":556,"o":"m 250 -17 q 92 63 143 -17 q 42 289 42 142 l 42 865 l 147 865 l 160 865 l 160 854 q 149 836 151 846 q 149 803 147 826 l 149 288 q 171 140 149 192 q 251 90 193 89 q 333 144 311 90 q 356 292 356 197 l 356 865 l 461 865 l 461 293 q 436 116 461 185 q 365 15 411 47 q 250 -17 318 -17 l 250 -17 m 453 781 l 440 865 q 465 876 457 865 q 474 916 472 888 q 476 996 476 944 l 554 996 q 547 873 554 921 q 519 803 540 825 q 453 781 497 781 z "},"Ử":{"ha":556,"x_min":42,"x_max":556,"o":"m 250 -17 q 92 63 143 -17 q 42 289 42 142 l 42 865 l 147 865 l 160 865 l 160 854 q 149 836 151 846 q 149 803 147 826 l 149 288 q 171 140 149 192 q 251 90 193 89 q 333 144 311 90 q 356 292 356 197 l 356 865 l 461 865 l 461 293 q 436 116 461 185 q 365 15 411 47 q 250 -17 318 -17 l 250 -17 m 453 781 l 440 865 q 465 876 457 865 q 474 916 472 888 q 476 996 476 944 l 554 996 q 547 873 554 921 q 519 803 540 825 q 453 781 497 781 m 365 1114 q 355 1069 365 1088 q 331 1037 344 1051 q 308 1006 318 1022 q 297 965 297 989 l 297 951 l 217 951 l 217 989 q 226 1024 217 1008 q 249 1052 236 1039 q 272 1078 263 1065 q 282 1104 282 1092 q 272 1130 282 1121 q 247 1139 263 1139 q 216 1130 231 1139 q 192 1096 201 1121 l 150 1168 q 199 1208 171 1196 q 258 1221 228 1221 q 313 1208 289 1221 q 351 1171 338 1194 q 365 1114 365 1147 z "},"Ữ":{"ha":556,"x_min":42,"x_max":556,"o":"m 250 -17 q 92 63 143 -17 q 42 289 42 142 l 42 865 l 147 865 l 160 865 l 160 854 q 149 836 151 846 q 149 803 147 826 l 149 288 q 171 140 149 192 q 251 90 193 89 q 333 144 311 90 q 356 292 356 197 l 356 865 l 461 865 l 461 293 q 436 116 461 185 q 365 15 411 47 q 250 -17 318 -17 l 250 -17 m 453 781 l 440 865 q 465 876 457 865 q 474 916 472 888 q 476 996 476 944 l 554 996 q 547 873 554 921 q 519 803 540 825 q 453 781 497 781 z "},"Ű":{"ha":556,"x_min":47,"x_max":513,"o":"m 279 -17 q 103 63 158 -17 q 47 289 47 142 l 47 865 l 163 865 l 176 865 l 176 854 q 166 836 168 846 q 164 803 164 826 l 164 288 q 190 140 164 192 q 279 90 215 89 q 371 144 346 90 q 396 292 396 197 l 396 865 l 513 865 l 513 293 q 485 116 513 185 q 405 15 457 47 q 279 -17 353 -17 l 279 -17 z "},"Ȗ":{"ha":556,"x_min":47,"x_max":513,"o":"m 279 -17 q 103 63 158 -17 q 47 289 47 142 l 47 865 l 163 865 l 176 865 l 176 854 q 166 836 168 846 q 164 803 164 826 l 164 288 q 190 140 164 192 q 279 90 215 89 q 371 144 346 90 q 396 292 396 197 l 396 865 l 513 865 l 513 293 q 485 116 513 185 q 405 15 457 47 q 279 -17 353 -17 l 279 -17 m 192 964 l 113 999 q 182 1097 139 1064 q 278 1131 225 1131 q 375 1097 331 1131 q 444 999 419 1064 l 365 964 q 328 1030 350 1008 q 278 1051 307 1051 q 242 1042 258 1051 q 214 1013 226 1032 q 192 964 201 993 z "},"Ū":{"ha":556,"x_min":47,"x_max":513,"o":"m 279 -17 q 103 63 158 -17 q 47 289 47 142 l 47 865 l 163 865 l 176 865 l 176 854 q 166 836 168 846 q 164 803 164 826 l 164 288 q 190 140 164 192 q 279 90 215 89 q 371 144 346 90 q 396 292 396 197 l 396 865 l 513 865 l 513 293 q 485 116 513 185 q 405 15 457 47 q 279 -17 353 -17 l 279 -17 z "},"Ṻ":{"ha":556,"x_min":47,"x_max":513,"o":"m 279 -17 q 103 63 158 -17 q 47 289 47 142 l 47 865 l 163 865 l 176 865 l 176 854 q 166 836 168 846 q 164 803 164 826 l 164 288 q 190 140 164 192 q 279 90 215 89 q 371 144 346 90 q 396 292 396 197 l 396 865 l 513 865 l 513 293 q 485 116 513 185 q 405 15 457 47 q 279 -17 353 -17 l 279 -17 z "},"Ų":{"ha":556,"x_min":47,"x_max":513,"o":"m 279 -17 q 103 63 158 -17 q 47 289 47 142 l 47 865 l 163 865 l 176 865 l 176 854 q 166 836 168 846 q 164 803 164 826 l 164 288 q 190 140 164 192 q 279 90 215 89 q 371 144 346 90 q 396 292 396 197 l 396 865 l 513 865 l 513 293 q 485 116 513 185 q 405 15 457 47 q 279 -17 353 -17 l 279 -17 m 388 -208 l 349 -311 q 272 -277 303 -299 q 225 -228 242 -256 q 208 -167 208 -200 q 226 -94 208 -131 q 276 -21 243 -57 q 356 47 308 15 l 399 14 q 353 -37 372 -11 q 325 -87 335 -64 q 315 -132 315 -111 q 333 -178 315 -158 q 388 -208 351 -199 z "},"Ů":{"ha":556,"x_min":47,"x_max":513,"o":"m 279 -17 q 103 63 158 -17 q 47 289 47 142 l 47 865 l 163 865 l 176 865 l 176 854 q 166 836 168 846 q 164 803 164 826 l 164 288 q 190 140 164 192 q 279 90 215 89 q 371 144 346 90 q 396 292 396 197 l 396 865 l 513 865 l 513 293 q 485 116 513 185 q 405 15 457 47 q 279 -17 353 -17 l 279 -17 z "},"Ũ":{"ha":556,"x_min":47,"x_max":513,"o":"m 279 -17 q 103 63 158 -17 q 47 289 47 142 l 47 865 l 163 865 l 176 865 l 176 854 q 166 836 168 846 q 164 803 164 826 l 164 288 q 190 140 164 192 q 279 90 215 89 q 371 144 346 90 q 396 292 396 197 l 396 865 l 513 865 l 513 293 q 485 116 513 185 q 405 15 457 47 q 279 -17 353 -17 l 279 -17 z "},"Ṹ":{"ha":556,"x_min":47,"x_max":513,"o":"m 279 -17 q 103 63 158 -17 q 47 289 47 142 l 47 865 l 163 865 l 176 865 l 176 854 q 166 836 168 846 q 164 803 164 826 l 164 288 q 190 140 164 192 q 279 90 215 89 q 371 144 346 90 q 396 292 396 197 l 396 865 l 513 865 l 513 293 q 485 116 513 185 q 405 15 457 47 q 279 -17 353 -17 l 279 -17 z "},"V":{"ha":556,"x_min":22,"x_max":539,"o":"m 243 -4 l 22 867 l 140 867 l 288 257 l 425 865 l 539 865 l 321 -4 l 243 -4 z "},"W":{"ha":556,"x_min":15,"x_max":547,"o":"m 114 0 l 15 865 l 117 865 l 169 335 l 261 786 l 317 786 l 408 333 l 451 865 l 547 865 l 449 0 l 385 0 l 283 514 l 182 0 l 114 0 z "},"Ẃ":{"ha":556,"x_min":15,"x_max":547,"o":"m 114 0 l 15 865 l 117 865 l 169 335 l 261 786 l 317 786 l 408 333 l 451 865 l 547 865 l 449 0 l 385 0 l 283 514 l 182 0 l 114 0 z "},"Ŵ":{"ha":556,"x_min":15,"x_max":547,"o":"m 114 0 l 15 865 l 117 865 l 169 335 l 261 786 l 317 786 l 408 333 l 451 865 l 547 865 l 449 0 l 385 0 l 283 514 l 182 0 l 114 0 m 143 904 l 100 968 l 272 1107 l 303 1107 l 475 969 l 432 904 l 289 999 l 143 904 z "},"Ẅ":{"ha":556,"x_min":15,"x_max":547,"o":"m 114 0 l 15 865 l 117 865 l 169 335 l 261 786 l 317 786 l 408 333 l 451 865 l 547 865 l 449 0 l 385 0 l 283 514 l 182 0 l 114 0 z "},"Ẁ":{"ha":556,"x_min":15,"x_max":547,"o":"m 114 0 l 15 865 l 117 865 l 169 335 l 261 786 l 317 786 l 408 333 l 451 865 l 547 865 l 449 0 l 385 0 l 283 514 l 182 0 l 114 0 z "},"X":{"ha":556,"x_min":39,"x_max":531,"o":"m 39 0 l 215 442 l 42 867 l 160 867 l 279 571 l 397 867 l 508 867 l 346 443 l 531 0 l 408 0 l 281 308 l 156 0 l 39 0 z "},"Y":{"ha":556,"x_min":24,"x_max":535,"o":"m 228 0 l 228 332 l 24 865 l 146 865 l 289 486 l 418 865 l 535 865 l 347 332 l 347 0 l 228 0 z "},"Ý":{"ha":556,"x_min":24,"x_max":535,"o":"m 228 0 l 228 332 l 24 865 l 146 865 l 289 486 l 418 865 l 535 865 l 347 332 l 347 0 l 228 0 z "},"Ŷ":{"ha":556,"x_min":24,"x_max":535,"o":"m 228 0 l 228 332 l 24 865 l 146 865 l 289 486 l 418 865 l 535 865 l 347 332 l 347 0 l 228 0 m 133 904 l 90 968 l 263 1107 l 293 1107 l 465 969 l 422 904 l 279 999 l 133 904 z "},"Ÿ":{"ha":556,"x_min":24,"x_max":535,"o":"m 228 0 l 228 332 l 24 865 l 146 865 l 289 486 l 418 865 l 535 865 l 347 332 l 347 0 l 228 0 z "},"Ẏ":{"ha":556,"x_min":24,"x_max":535,"o":"m 228 0 l 228 332 l 24 865 l 146 865 l 289 486 l 418 865 l 535 865 l 347 332 l 347 0 l 228 0 z "},"Ỵ":{"ha":556,"x_min":24,"x_max":535,"o":"m 228 0 l 228 332 l 24 865 l 146 865 l 289 486 l 418 865 l 535 865 l 347 332 l 347 0 l 228 0 z "},"Ỳ":{"ha":556,"x_min":24,"x_max":535,"o":"m 228 0 l 228 332 l 24 865 l 146 865 l 289 486 l 418 865 l 535 865 l 347 332 l 347 0 l 228 0 z "},"Ỷ":{"ha":556,"x_min":24,"x_max":535,"o":"m 228 0 l 228 332 l 24 865 l 146 865 l 289 486 l 418 865 l 535 865 l 347 332 l 347 0 l 228 0 m 393 1114 q 383 1069 393 1088 q 359 1037 372 1051 q 335 1006 346 1022 q 325 965 325 989 l 325 951 l 244 951 l 244 989 q 254 1024 244 1008 q 277 1052 264 1039 q 300 1078 290 1065 q 310 1104 310 1092 q 300 1130 310 1121 q 275 1139 290 1139 q 244 1130 258 1139 q 219 1096 229 1121 l 178 1168 q 227 1208 199 1196 q 286 1221 256 1221 q 341 1208 317 1221 q 379 1171 365 1194 q 393 1114 393 1147 z "},"Ȳ":{"ha":556,"x_min":24,"x_max":535,"o":"m 228 0 l 228 332 l 24 865 l 146 865 l 289 486 l 418 865 l 535 865 l 347 332 l 347 0 l 228 0 z "},"Ỹ":{"ha":556,"x_min":24,"x_max":535,"o":"m 228 0 l 228 332 l 24 865 l 146 865 l 289 486 l 418 865 l 535 865 l 347 332 l 347 0 l 228 0 z "},"Z":{"ha":556,"x_min":47,"x_max":524,"o":"m 47 79 l 369 756 l 61 756 l 61 865 l 507 865 l 507 786 l 190 110 l 461 110 q 494 113 485 110 q 513 122 504 115 l 524 122 l 524 110 l 524 0 l 47 0 l 47 79 z "},"Ź":{"ha":556,"x_min":47,"x_max":524,"o":"m 47 79 l 369 756 l 61 756 l 61 865 l 507 865 l 507 786 l 190 110 l 461 110 q 494 113 485 110 q 513 122 504 115 l 524 122 l 524 110 l 524 0 l 47 0 l 47 79 z "},"Ž":{"ha":556,"x_min":47,"x_max":524,"o":"m 47 79 l 369 756 l 61 756 l 61 865 l 507 865 l 507 786 l 190 110 l 461 110 q 494 113 485 110 q 513 122 504 115 l 524 122 l 524 110 l 524 0 l 47 0 l 47 79 z "},"Ż":{"ha":556,"x_min":47,"x_max":524,"o":"m 47 79 l 369 756 l 61 756 l 61 865 l 507 865 l 507 786 l 190 110 l 461 110 q 494 113 485 110 q 513 122 504 115 l 524 122 l 524 110 l 524 0 l 47 0 l 47 79 z "},"Ẓ":{"ha":556,"x_min":47,"x_max":524,"o":"m 47 79 l 369 756 l 61 756 l 61 865 l 507 865 l 507 786 l 190 110 l 461 110 q 494 113 485 110 q 513 122 504 115 l 524 122 l 524 110 l 524 0 l 47 0 l 47 79 z "},"a":{"ha":556,"x_min":44,"x_max":499,"o":"m 224 -15 q 91 37 138 -15 q 44 168 44 89 q 63 267 44 225 q 118 339 82 310 q 205 383 154 368 q 318 397 256 397 q 349 397 333 397 q 384 393 365 396 q 421 388 403 390 l 424 292 q 390 297 408 296 q 354 299 372 299 q 321 300 336 300 q 250 292 281 300 q 199 270 219 285 q 169 233 179 256 q 160 181 160 211 q 166 139 160 157 q 184 110 172 121 q 211 92 196 99 q 246 86 226 86 q 307 101 281 86 q 351 145 333 115 q 378 221 369 175 q 388 328 388 267 q 374 468 388 419 q 334 535 361 517 q 263 553 307 553 q 195 540 226 553 q 133 493 164 526 l 74 571 q 163 635 113 614 q 271 657 213 657 q 365 643 324 657 q 437 595 407 629 q 483 502 467 561 q 499 351 499 443 l 499 0 l 379 0 l 379 78 q 349 32 367 50 q 311 3 332 14 q 269 -11 290 -7 q 224 -15 247 -15 z "},"á":{"ha":556,"x_min":44,"x_max":499,"o":"m 224 -15 q 91 37 138 -15 q 44 168 44 89 q 63 267 44 225 q 118 339 82 310 q 205 383 154 368 q 318 397 256 397 q 349 397 333 397 q 384 393 365 396 q 421 388 403 390 l 424 292 q 390 297 408 296 q 354 299 372 299 q 321 300 336 300 q 250 292 281 300 q 199 270 219 285 q 169 233 179 256 q 160 181 160 211 q 166 139 160 157 q 184 110 172 121 q 211 92 196 99 q 246 86 226 86 q 307 101 281 86 q 351 145 333 115 q 378 221 369 175 q 388 328 388 267 q 374 468 388 419 q 334 535 361 517 q 263 553 307 553 q 195 540 226 553 q 133 493 164 526 l 74 571 q 163 635 113 614 q 271 657 213 657 q 365 643 324 657 q 437 595 407 629 q 483 502 467 561 q 499 351 499 443 l 499 0 l 379 0 l 379 78 q 349 32 367 50 q 311 3 332 14 q 269 -11 290 -7 q 224 -15 247 -15 z "},"ă":{"ha":556,"x_min":44,"x_max":499,"o":"m 224 -15 q 91 37 138 -15 q 44 168 44 89 q 63 267 44 225 q 118 339 82 310 q 205 383 154 368 q 318 397 256 397 q 349 397 333 397 q 384 393 365 396 q 421 388 403 390 l 424 292 q 390 297 408 296 q 354 299 372 299 q 321 300 336 300 q 250 292 281 300 q 199 270 219 285 q 169 233 179 256 q 160 181 160 211 q 166 139 160 157 q 184 110 172 121 q 211 92 196 99 q 246 86 226 86 q 307 101 281 86 q 351 145 333 115 q 378 221 369 175 q 388 328 388 267 q 374 468 388 419 q 334 535 361 517 q 263 553 307 553 q 195 540 226 553 q 133 493 164 526 l 74 571 q 163 635 113 614 q 271 657 213 657 q 365 643 324 657 q 437 595 407 629 q 483 502 467 561 q 499 351 499 443 l 499 0 l 379 0 l 379 78 q 349 32 367 50 q 311 3 332 14 q 269 -11 290 -7 q 224 -15 247 -15 m 361 906 l 440 869 q 372 772 415 806 q 275 739 329 739 q 178 772 222 739 q 108 869 135 806 l 188 904 q 225 839 204 861 q 275 817 246 817 q 311 827 296 817 q 340 858 326 838 q 361 906 353 878 z "},"ắ":{"ha":556,"x_min":44,"x_max":499,"o":"m 224 -15 q 91 37 138 -15 q 44 168 44 89 q 63 267 44 225 q 118 339 82 310 q 205 383 154 368 q 318 397 256 397 q 349 397 333 397 q 384 393 365 396 q 421 388 403 390 l 424 292 q 390 297 408 296 q 354 299 372 299 q 321 300 336 300 q 250 292 281 300 q 199 270 219 285 q 169 233 179 256 q 160 181 160 211 q 166 139 160 157 q 184 110 172 121 q 211 92 196 99 q 246 86 226 86 q 307 101 281 86 q 351 145 333 115 q 378 221 369 175 q 388 328 388 267 q 374 468 388 419 q 334 535 361 517 q 263 553 307 553 q 195 540 226 553 q 133 493 164 526 l 74 571 q 163 635 113 614 q 271 657 213 657 q 365 643 324 657 q 437 595 407 629 q 483 502 467 561 q 499 351 499 443 l 499 0 l 379 0 l 379 78 q 349 32 367 50 q 311 3 332 14 q 269 -11 290 -7 q 224 -15 247 -15 z "},"ặ":{"ha":556,"x_min":44,"x_max":499,"o":"m 224 -15 q 91 37 138 -15 q 44 168 44 89 q 63 267 44 225 q 118 339 82 310 q 205 383 154 368 q 318 397 256 397 q 349 397 333 397 q 384 393 365 396 q 421 388 403 390 l 424 292 q 390 297 408 296 q 354 299 372 299 q 321 300 336 300 q 250 292 281 300 q 199 270 219 285 q 169 233 179 256 q 160 181 160 211 q 166 139 160 157 q 184 110 172 121 q 211 92 196 99 q 246 86 226 86 q 307 101 281 86 q 351 145 333 115 q 378 221 369 175 q 388 328 388 267 q 374 468 388 419 q 334 535 361 517 q 263 553 307 553 q 195 540 226 553 q 133 493 164 526 l 74 571 q 163 635 113 614 q 271 657 213 657 q 365 643 324 657 q 437 595 407 629 q 483 502 467 561 q 499 351 499 443 l 499 0 l 379 0 l 379 78 q 349 32 367 50 q 311 3 332 14 q 269 -11 290 -7 q 224 -15 247 -15 m 361 906 l 440 869 q 372 772 415 806 q 275 739 329 739 q 178 772 222 739 q 108 869 135 806 l 188 904 q 225 839 204 861 q 275 817 246 817 q 311 827 296 817 q 340 858 326 838 q 361 906 353 878 z "},"ằ":{"ha":556,"x_min":44,"x_max":499,"o":"m 224 -15 q 91 37 138 -15 q 44 168 44 89 q 63 267 44 225 q 118 339 82 310 q 205 383 154 368 q 318 397 256 397 q 349 397 333 397 q 384 393 365 396 q 421 388 403 390 l 424 292 q 390 297 408 296 q 354 299 372 299 q 321 300 336 300 q 250 292 281 300 q 199 270 219 285 q 169 233 179 256 q 160 181 160 211 q 166 139 160 157 q 184 110 172 121 q 211 92 196 99 q 246 86 226 86 q 307 101 281 86 q 351 145 333 115 q 378 221 369 175 q 388 328 388 267 q 374 468 388 419 q 334 535 361 517 q 263 553 307 553 q 195 540 226 553 q 133 493 164 526 l 74 571 q 163 635 113 614 q 271 657 213 657 q 365 643 324 657 q 437 595 407 629 q 483 502 467 561 q 499 351 499 443 l 499 0 l 379 0 l 379 78 q 349 32 367 50 q 311 3 332 14 q 269 -11 290 -7 q 224 -15 247 -15 z "},"ẳ":{"ha":556,"x_min":44,"x_max":499,"o":"m 224 -15 q 91 37 138 -15 q 44 168 44 89 q 63 267 44 225 q 118 339 82 310 q 205 383 154 368 q 318 397 256 397 q 349 397 333 397 q 384 393 365 396 q 421 388 403 390 l 424 292 q 390 297 408 296 q 354 299 372 299 q 321 300 336 300 q 250 292 281 300 q 199 270 219 285 q 169 233 179 256 q 160 181 160 211 q 166 139 160 157 q 184 110 172 121 q 211 92 196 99 q 246 86 226 86 q 307 101 281 86 q 351 145 333 115 q 378 221 369 175 q 388 328 388 267 q 374 468 388 419 q 334 535 361 517 q 263 553 307 553 q 195 540 226 553 q 133 493 164 526 l 74 571 q 163 635 113 614 q 271 657 213 657 q 365 643 324 657 q 437 595 407 629 q 483 502 467 561 q 499 351 499 443 l 499 0 l 379 0 l 379 78 q 349 32 367 50 q 311 3 332 14 q 269 -11 290 -7 q 224 -15 247 -15 z "},"ẵ":{"ha":556,"x_min":44,"x_max":499,"o":"m 224 -15 q 91 37 138 -15 q 44 168 44 89 q 63 267 44 225 q 118 339 82 310 q 205 383 154 368 q 318 397 256 397 q 349 397 333 397 q 384 393 365 396 q 421 388 403 390 l 424 292 q 390 297 408 296 q 354 299 372 299 q 321 300 336 300 q 250 292 281 300 q 199 270 219 285 q 169 233 179 256 q 160 181 160 211 q 166 139 160 157 q 184 110 172 121 q 211 92 196 99 q 246 86 226 86 q 307 101 281 86 q 351 145 333 115 q 378 221 369 175 q 388 328 388 267 q 374 468 388 419 q 334 535 361 517 q 263 553 307 553 q 195 540 226 553 q 133 493 164 526 l 74 571 q 163 635 113 614 q 271 657 213 657 q 365 643 324 657 q 437 595 407 629 q 483 502 467 561 q 499 351 499 443 l 499 0 l 379 0 l 379 78 q 349 32 367 50 q 311 3 332 14 q 269 -11 290 -7 q 224 -15 247 -15 z "},"â":{"ha":556,"x_min":44,"x_max":499,"o":"m 224 -15 q 91 37 138 -15 q 44 168 44 89 q 63 267 44 225 q 118 339 82 310 q 205 383 154 368 q 318 397 256 397 q 349 397 333 397 q 384 393 365 396 q 421 388 403 390 l 424 292 q 390 297 408 296 q 354 299 372 299 q 321 300 336 300 q 250 292 281 300 q 199 270 219 285 q 169 233 179 256 q 160 181 160 211 q 166 139 160 157 q 184 110 172 121 q 211 92 196 99 q 246 86 226 86 q 307 101 281 86 q 351 145 333 115 q 378 221 369 175 q 388 328 388 267 q 374 468 388 419 q 334 535 361 517 q 263 553 307 553 q 195 540 226 553 q 133 493 164 526 l 74 571 q 163 635 113 614 q 271 657 213 657 q 365 643 324 657 q 437 595 407 629 q 483 502 467 561 q 499 351 499 443 l 499 0 l 379 0 l 379 78 q 349 32 367 50 q 311 3 332 14 q 269 -11 290 -7 q 224 -15 247 -15 m 161 699 l 100 753 l 258 947 l 292 947 l 450 753 l 389 699 l 275 829 l 161 699 z "},"ấ":{"ha":556,"x_min":44,"x_max":556,"o":"m 224 -15 q 91 37 138 -15 q 44 168 44 89 q 63 267 44 225 q 118 339 82 310 q 205 383 154 368 q 318 397 256 397 q 349 397 333 397 q 384 393 365 396 q 421 388 403 390 l 424 292 q 390 297 408 296 q 354 299 372 299 q 321 300 336 300 q 250 292 281 300 q 199 270 219 285 q 169 233 179 256 q 160 181 160 211 q 166 139 160 157 q 184 110 172 121 q 211 92 196 99 q 246 86 226 86 q 307 101 281 86 q 351 145 333 115 q 378 221 369 175 q 388 328 388 267 q 374 468 388 419 q 334 535 361 517 q 263 553 307 553 q 195 540 226 553 q 133 493 164 526 l 74 571 q 163 635 113 614 q 271 657 213 657 q 365 643 324 657 q 437 595 407 629 q 483 502 467 561 q 499 351 499 443 l 499 0 l 379 0 l 379 78 q 349 32 367 50 q 311 3 332 14 q 269 -11 290 -7 q 224 -15 247 -15 z "},"ậ":{"ha":556,"x_min":44,"x_max":499,"o":"m 224 -15 q 91 37 138 -15 q 44 168 44 89 q 63 267 44 225 q 118 339 82 310 q 205 383 154 368 q 318 397 256 397 q 349 397 333 397 q 384 393 365 396 q 421 388 403 390 l 424 292 q 390 297 408 296 q 354 299 372 299 q 321 300 336 300 q 250 292 281 300 q 199 270 219 285 q 169 233 179 256 q 160 181 160 211 q 166 139 160 157 q 184 110 172 121 q 211 92 196 99 q 246 86 226 86 q 307 101 281 86 q 351 145 333 115 q 378 221 369 175 q 388 328 388 267 q 374 468 388 419 q 334 535 361 517 q 263 553 307 553 q 195 540 226 553 q 133 493 164 526 l 74 571 q 163 635 113 614 q 271 657 213 657 q 365 643 324 657 q 437 595 407 629 q 483 502 467 561 q 499 351 499 443 l 499 0 l 379 0 l 379 78 q 349 32 367 50 q 311 3 332 14 q 269 -11 290 -7 q 224 -15 247 -15 m 161 699 l 100 753 l 258 947 l 292 947 l 450 753 l 389 699 l 275 829 l 161 699 z "},"ầ":{"ha":556,"x_min":44,"x_max":499,"o":"m 224 -15 q 91 37 138 -15 q 44 168 44 89 q 63 267 44 225 q 118 339 82 310 q 205 383 154 368 q 318 397 256 397 q 349 397 333 397 q 384 393 365 396 q 421 388 403 390 l 424 292 q 390 297 408 296 q 354 299 372 299 q 321 300 336 300 q 250 292 281 300 q 199 270 219 285 q 169 233 179 256 q 160 181 160 211 q 166 139 160 157 q 184 110 172 121 q 211 92 196 99 q 246 86 226 86 q 307 101 281 86 q 351 145 333 115 q 378 221 369 175 q 388 328 388 267 q 374 468 388 419 q 334 535 361 517 q 263 553 307 553 q 195 540 226 553 q 133 493 164 526 l 74 571 q 163 635 113 614 q 271 657 213 657 q 365 643 324 657 q 437 595 407 629 q 483 502 467 561 q 499 351 499 443 l 499 0 l 379 0 l 379 78 q 349 32 367 50 q 311 3 332 14 q 269 -11 290 -7 q 224 -15 247 -15 z "},"ẩ":{"ha":556,"x_min":44,"x_max":531,"o":"m 224 -15 q 91 37 138 -15 q 44 168 44 89 q 63 267 44 225 q 118 339 82 310 q 205 383 154 368 q 318 397 256 397 q 349 397 333 397 q 384 393 365 396 q 421 388 403 390 l 424 292 q 390 297 408 296 q 354 299 372 299 q 321 300 336 300 q 250 292 281 300 q 199 270 219 285 q 169 233 179 256 q 160 181 160 211 q 166 139 160 157 q 184 110 172 121 q 211 92 196 99 q 246 86 226 86 q 307 101 281 86 q 351 145 333 115 q 378 221 369 175 q 388 328 388 267 q 374 468 388 419 q 334 535 361 517 q 263 553 307 553 q 195 540 226 553 q 133 493 164 526 l 74 571 q 163 635 113 614 q 271 657 213 657 q 365 643 324 657 q 437 595 407 629 q 483 502 467 561 q 499 351 499 443 l 499 0 l 379 0 l 379 78 q 349 32 367 50 q 311 3 332 14 q 269 -11 290 -7 q 224 -15 247 -15 z "},"ẫ":{"ha":556,"x_min":44,"x_max":499,"o":"m 224 -15 q 91 37 138 -15 q 44 168 44 89 q 63 267 44 225 q 118 339 82 310 q 205 383 154 368 q 318 397 256 397 q 349 397 333 397 q 384 393 365 396 q 421 388 403 390 l 424 292 q 390 297 408 296 q 354 299 372 299 q 321 300 336 300 q 250 292 281 300 q 199 270 219 285 q 169 233 179 256 q 160 181 160 211 q 166 139 160 157 q 184 110 172 121 q 211 92 196 99 q 246 86 226 86 q 307 101 281 86 q 351 145 333 115 q 378 221 369 175 q 388 328 388 267 q 374 468 388 419 q 334 535 361 517 q 263 553 307 553 q 195 540 226 553 q 133 493 164 526 l 74 571 q 163 635 113 614 q 271 657 213 657 q 365 643 324 657 q 437 595 407 629 q 483 502 467 561 q 499 351 499 443 l 499 0 l 379 0 l 379 78 q 349 32 367 50 q 311 3 332 14 q 269 -11 290 -7 q 224 -15 247 -15 z "},"ȁ":{"ha":556,"x_min":44,"x_max":499,"o":"m 224 -15 q 91 37 138 -15 q 44 168 44 89 q 63 267 44 225 q 118 339 82 310 q 205 383 154 368 q 318 397 256 397 q 349 397 333 397 q 384 393 365 396 q 421 388 403 390 l 424 292 q 390 297 408 296 q 354 299 372 299 q 321 300 336 300 q 250 292 281 300 q 199 270 219 285 q 169 233 179 256 q 160 181 160 211 q 166 139 160 157 q 184 110 172 121 q 211 92 196 99 q 246 86 226 86 q 307 101 281 86 q 351 145 333 115 q 378 221 369 175 q 388 328 388 267 q 374 468 388 419 q 334 535 361 517 q 263 553 307 553 q 195 540 226 553 q 133 493 164 526 l 74 571 q 163 635 113 614 q 271 657 213 657 q 365 643 324 657 q 437 595 407 629 q 483 502 467 561 q 499 351 499 443 l 499 0 l 379 0 l 379 78 q 349 32 367 50 q 311 3 332 14 q 269 -11 290 -7 q 224 -15 247 -15 z "},"ä":{"ha":556,"x_min":44,"x_max":499,"o":"m 224 -15 q 91 37 138 -15 q 44 168 44 89 q 63 267 44 225 q 118 339 82 310 q 205 383 154 368 q 318 397 256 397 q 349 397 333 397 q 384 393 365 396 q 421 388 403 390 l 424 292 q 390 297 408 296 q 354 299 372 299 q 321 300 336 300 q 250 292 281 300 q 199 270 219 285 q 169 233 179 256 q 160 181 160 211 q 166 139 160 157 q 184 110 172 121 q 211 92 196 99 q 246 86 226 86 q 307 101 281 86 q 351 145 333 115 q 378 221 369 175 q 388 328 388 267 q 374 468 388 419 q 334 535 361 517 q 263 553 307 553 q 195 540 226 553 q 133 493 164 526 l 74 571 q 163 635 113 614 q 271 657 213 657 q 365 643 324 657 q 437 595 407 629 q 483 502 467 561 q 499 351 499 443 l 499 0 l 379 0 l 379 78 q 349 32 367 50 q 311 3 332 14 q 269 -11 290 -7 q 224 -15 247 -15 z "},"ạ":{"ha":556,"x_min":44,"x_max":499,"o":"m 224 -15 q 91 37 138 -15 q 44 168 44 89 q 63 267 44 225 q 118 339 82 310 q 205 383 154 368 q 318 397 256 397 q 349 397 333 397 q 384 393 365 396 q 421 388 403 390 l 424 292 q 390 297 408 296 q 354 299 372 299 q 321 300 336 300 q 250 292 281 300 q 199 270 219 285 q 169 233 179 256 q 160 181 160 211 q 166 139 160 157 q 184 110 172 121 q 211 92 196 99 q 246 86 226 86 q 307 101 281 86 q 351 145 333 115 q 378 221 369 175 q 388 328 388 267 q 374 468 388 419 q 334 535 361 517 q 263 553 307 553 q 195 540 226 553 q 133 493 164 526 l 74 571 q 163 635 113 614 q 271 657 213 657 q 365 643 324 657 q 437 595 407 629 q 483 502 467 561 q 499 351 499 443 l 499 0 l 379 0 l 379 78 q 349 32 367 50 q 311 3 332 14 q 269 -11 290 -7 q 224 -15 247 -15 z "},"à":{"ha":556,"x_min":44,"x_max":499,"o":"m 224 -15 q 91 37 138 -15 q 44 168 44 89 q 63 267 44 225 q 118 339 82 310 q 205 383 154 368 q 318 397 256 397 q 349 397 333 397 q 384 393 365 396 q 421 388 403 390 l 424 292 q 390 297 408 296 q 354 299 372 299 q 321 300 336 300 q 250 292 281 300 q 199 270 219 285 q 169 233 179 256 q 160 181 160 211 q 166 139 160 157 q 184 110 172 121 q 211 92 196 99 q 246 86 226 86 q 307 101 281 86 q 351 145 333 115 q 378 221 369 175 q 388 328 388 267 q 374 468 388 419 q 334 535 361 517 q 263 553 307 553 q 195 540 226 553 q 133 493 164 526 l 74 571 q 163 635 113 614 q 271 657 213 657 q 365 643 324 657 q 437 595 407 629 q 483 502 467 561 q 499 351 499 443 l 499 0 l 379 0 l 379 78 q 349 32 367 50 q 311 3 332 14 q 269 -11 290 -7 q 224 -15 247 -15 z "},"ả":{"ha":556,"x_min":44,"x_max":499,"o":"m 224 -15 q 91 37 138 -15 q 44 168 44 89 q 63 267 44 225 q 118 339 82 310 q 205 383 154 368 q 318 397 256 397 q 349 397 333 397 q 384 393 365 396 q 421 388 403 390 l 424 292 q 390 297 408 296 q 354 299 372 299 q 321 300 336 300 q 250 292 281 300 q 199 270 219 285 q 169 233 179 256 q 160 181 160 211 q 166 139 160 157 q 184 110 172 121 q 211 92 196 99 q 246 86 226 86 q 307 101 281 86 q 351 145 333 115 q 378 221 369 175 q 388 328 388 267 q 374 468 388 419 q 334 535 361 517 q 263 553 307 553 q 195 540 226 553 q 133 493 164 526 l 74 571 q 163 635 113 614 q 271 657 213 657 q 365 643 324 657 q 437 595 407 629 q 483 502 467 561 q 499 351 499 443 l 499 0 l 379 0 l 379 78 q 349 32 367 50 q 311 3 332 14 q 269 -11 290 -7 q 224 -15 247 -15 m 390 882 q 380 838 390 856 q 356 805 369 819 q 333 774 343 790 q 322 733 322 757 l 322 719 l 242 719 l 242 757 q 251 792 242 776 q 274 820 261 807 q 297 847 288 833 q 307 872 307 860 q 297 898 307 889 q 272 907 288 907 q 241 898 256 907 q 217 864 226 889 l 175 936 q 224 976 196 964 q 283 989 253 989 q 338 976 314 989 q 376 939 363 963 q 390 882 390 915 z "},"ȃ":{"ha":556,"x_min":44,"x_max":499,"o":"m 224 -15 q 91 37 138 -15 q 44 168 44 89 q 63 267 44 225 q 118 339 82 310 q 205 383 154 368 q 318 397 256 397 q 349 397 333 397 q 384 393 365 396 q 421 388 403 390 l 424 292 q 390 297 408 296 q 354 299 372 299 q 321 300 336 300 q 250 292 281 300 q 199 270 219 285 q 169 233 179 256 q 160 181 160 211 q 166 139 160 157 q 184 110 172 121 q 211 92 196 99 q 246 86 226 86 q 307 101 281 86 q 351 145 333 115 q 378 221 369 175 q 388 328 388 267 q 374 468 388 419 q 334 535 361 517 q 263 553 307 553 q 195 540 226 553 q 133 493 164 526 l 74 571 q 163 635 113 614 q 271 657 213 657 q 365 643 324 657 q 437 595 407 629 q 483 502 467 561 q 499 351 499 443 l 499 0 l 379 0 l 379 78 q 349 32 367 50 q 311 3 332 14 q 269 -11 290 -7 q 224 -15 247 -15 m 189 732 l 110 767 q 179 865 136 832 q 275 899 222 899 q 372 865 328 899 q 442 767 417 832 l 363 732 q 326 798 347 776 q 275 819 304 819 q 240 810 256 819 q 211 781 224 800 q 189 732 199 761 z "},"ā":{"ha":556,"x_min":44,"x_max":499,"o":"m 224 -15 q 91 37 138 -15 q 44 168 44 89 q 63 267 44 225 q 118 339 82 310 q 205 383 154 368 q 318 397 256 397 q 349 397 333 397 q 384 393 365 396 q 421 388 403 390 l 424 292 q 390 297 408 296 q 354 299 372 299 q 321 300 336 300 q 250 292 281 300 q 199 270 219 285 q 169 233 179 256 q 160 181 160 211 q 166 139 160 157 q 184 110 172 121 q 211 92 196 99 q 246 86 226 86 q 307 101 281 86 q 351 145 333 115 q 378 221 369 175 q 388 328 388 267 q 374 468 388 419 q 334 535 361 517 q 263 553 307 553 q 195 540 226 553 q 133 493 164 526 l 74 571 q 163 635 113 614 q 271 657 213 657 q 365 643 324 657 q 437 595 407 629 q 483 502 467 561 q 499 351 499 443 l 499 0 l 379 0 l 379 78 q 349 32 367 50 q 311 3 332 14 q 269 -11 290 -7 q 224 -15 247 -15 z "},"ą":{"ha":556,"x_min":44,"x_max":499,"o":"m 224 -15 q 91 37 138 -15 q 44 168 44 89 q 63 267 44 225 q 118 339 82 310 q 205 383 154 368 q 318 397 256 397 q 349 397 333 397 q 384 393 365 396 q 421 388 403 390 l 424 292 q 390 297 408 296 q 354 299 372 299 q 321 300 336 300 q 250 292 281 300 q 199 270 219 285 q 169 233 179 256 q 160 181 160 211 q 166 139 160 157 q 184 110 172 121 q 211 92 196 99 q 246 86 226 86 q 307 101 281 86 q 351 145 333 115 q 378 221 369 175 q 388 328 388 267 q 374 468 388 419 q 334 535 361 517 q 263 553 307 553 q 195 540 226 553 q 133 493 164 526 l 74 571 q 163 635 113 614 q 271 657 213 657 q 365 643 324 657 q 437 595 407 629 q 483 502 467 561 q 499 351 499 443 l 499 0 l 379 0 l 379 78 q 349 32 367 50 q 311 3 332 14 q 269 -11 290 -7 q 224 -15 247 -15 m 432 -222 l 393 -325 q 317 -291 347 -312 q 269 -242 286 -269 q 253 -181 253 -214 q 270 -108 253 -144 q 320 -35 288 -71 q 400 33 353 1 l 443 0 q 398 -51 417 -25 q 369 -101 379 -78 q 360 -146 360 -125 q 378 -192 360 -172 q 432 -222 396 -212 z "},"å":{"ha":556,"x_min":44,"x_max":499,"o":"m 224 -15 q 91 37 138 -15 q 44 168 44 89 q 63 267 44 225 q 118 339 82 310 q 205 383 154 368 q 318 397 256 397 q 349 397 333 397 q 384 393 365 396 q 421 388 403 390 l 424 292 q 390 297 408 296 q 354 299 372 299 q 321 300 336 300 q 250 292 281 300 q 199 270 219 285 q 169 233 179 256 q 160 181 160 211 q 166 139 160 157 q 184 110 172 121 q 211 92 196 99 q 246 86 226 86 q 307 101 281 86 q 351 145 333 115 q 378 221 369 175 q 388 328 388 267 q 374 468 388 419 q 334 535 361 517 q 263 553 307 553 q 195 540 226 553 q 133 493 164 526 l 74 571 q 163 635 113 614 q 271 657 213 657 q 365 643 324 657 q 437 595 407 629 q 483 502 467 561 q 499 351 499 443 l 499 0 l 379 0 l 379 78 q 349 32 367 50 q 311 3 332 14 q 269 -11 290 -7 q 224 -15 247 -15 z "},"ǻ":{"ha":556,"x_min":44,"x_max":499,"o":"m 224 -15 q 91 37 138 -15 q 44 168 44 89 q 63 267 44 225 q 118 339 82 310 q 205 383 154 368 q 318 397 256 397 q 349 397 333 397 q 384 393 365 396 q 421 388 403 390 l 424 292 q 390 297 408 296 q 354 299 372 299 q 321 300 336 300 q 250 292 281 300 q 199 270 219 285 q 169 233 179 256 q 160 181 160 211 q 166 139 160 157 q 184 110 172 121 q 211 92 196 99 q 246 86 226 86 q 307 101 281 86 q 351 145 333 115 q 378 221 369 175 q 388 328 388 267 q 374 468 388 419 q 334 535 361 517 q 263 553 307 553 q 195 540 226 553 q 133 493 164 526 l 74 571 q 163 635 113 614 q 271 657 213 657 q 365 643 324 657 q 437 595 407 629 q 483 502 467 561 q 499 351 499 443 l 499 0 l 379 0 l 379 78 q 349 32 367 50 q 311 3 332 14 q 269 -11 290 -7 q 224 -15 247 -15 z "},"ã":{"ha":556,"x_min":44,"x_max":499,"o":"m 224 -15 q 91 37 138 -15 q 44 168 44 89 q 63 267 44 225 q 118 339 82 310 q 205 383 154 368 q 318 397 256 397 q 349 397 333 397 q 384 393 365 396 q 421 388 403 390 l 424 292 q 390 297 408 296 q 354 299 372 299 q 321 300 336 300 q 250 292 281 300 q 199 270 219 285 q 169 233 179 256 q 160 181 160 211 q 166 139 160 157 q 184 110 172 121 q 211 92 196 99 q 246 86 226 86 q 307 101 281 86 q 351 145 333 115 q 378 221 369 175 q 388 328 388 267 q 374 468 388 419 q 334 535 361 517 q 263 553 307 553 q 195 540 226 553 q 133 493 164 526 l 74 571 q 163 635 113 614 q 271 657 213 657 q 365 643 324 657 q 437 595 407 629 q 483 502 467 561 q 499 351 499 443 l 499 0 l 379 0 l 379 78 q 349 32 367 50 q 311 3 332 14 q 269 -11 290 -7 q 224 -15 247 -15 m 401 929 l 467 890 q 419 812 446 840 q 357 783 393 783 q 307 794 328 783 q 272 821 286 806 q 244 847 257 836 q 215 858 231 858 q 184 844 197 858 q 160 800 171 829 l 86 832 q 135 915 104 885 q 210 946 165 946 q 256 935 236 946 q 291 909 276 924 q 320 883 306 894 q 350 872 335 872 q 378 887 368 872 q 401 929 389 901 z "},"æ":{"ha":556,"x_min":7,"x_max":553,"o":"m 160 -15 q 78 8 113 -15 q 25 75 43 32 q 7 174 7 118 q 21 266 7 226 q 63 333 35 306 q 132 375 90 360 q 229 394 174 390 q 222 485 229 449 q 197 539 214 521 q 157 557 181 557 q 114 543 133 557 q 78 504 94 529 l 28 579 q 88 635 53 615 q 165 654 122 654 q 215 643 192 654 q 258 615 239 632 q 286 575 276 597 q 316 616 299 599 q 355 644 333 633 q 397 654 376 654 q 483 621 450 654 q 531 525 515 588 q 547 372 547 463 l 547 315 l 328 306 l 328 244 q 334 177 328 207 q 352 125 340 147 q 382 92 364 103 q 422 81 400 81 q 453 86 439 81 q 481 103 468 92 q 503 131 493 115 l 553 57 q 492 3 526 22 q 417 -15 457 -15 q 365 -6 390 -15 q 319 22 340 4 q 282 65 297 40 q 251 22 271 40 q 209 -6 232 4 q 160 -15 186 -15 m 167 83 q 209 109 196 83 q 227 183 222 135 q 232 297 232 231 q 159 281 186 296 q 121 240 132 267 q 110 174 110 213 q 116 122 110 142 q 135 93 122 103 q 167 83 149 83 m 328 399 l 456 403 q 449 489 456 454 q 430 540 443 524 q 396 557 417 557 q 360 538 375 557 q 336 485 344 519 q 328 399 328 450 z "},"ǽ":{"ha":556,"x_min":7,"x_max":553,"o":"m 160 -15 q 78 8 113 -15 q 25 75 43 32 q 7 174 7 118 q 21 266 7 226 q 63 333 35 306 q 132 375 90 360 q 229 394 174 390 q 222 485 229 449 q 197 539 214 521 q 157 557 181 557 q 114 543 133 557 q 78 504 94 529 l 28 579 q 88 635 53 615 q 165 654 122 654 q 215 643 192 654 q 258 615 239 632 q 286 575 276 597 q 316 616 299 599 q 355 644 333 633 q 397 654 376 654 q 483 621 450 654 q 531 525 515 588 q 547 372 547 463 l 547 315 l 328 306 l 328 244 q 334 177 328 207 q 352 125 340 147 q 382 92 364 103 q 422 81 400 81 q 453 86 439 81 q 481 103 468 92 q 503 131 493 115 l 553 57 q 492 3 526 22 q 417 -15 457 -15 q 365 -6 390 -15 q 319 22 340 4 q 282 65 297 40 q 251 22 271 40 q 209 -6 232 4 q 160 -15 186 -15 m 167 83 q 209 109 196 83 q 227 183 222 135 q 232 297 232 231 q 159 281 186 296 q 121 240 132 267 q 110 174 110 213 q 116 122 110 142 q 135 93 122 103 q 167 83 149 83 m 328 399 l 456 403 q 449 489 456 454 q 430 540 443 524 q 396 557 417 557 q 360 538 375 557 q 336 485 344 519 q 328 399 328 450 z "},"b":{"ha":556,"x_min":56,"x_max":522,"o":"m 308 -15 q 253 -5 279 -15 q 204 26 226 6 q 167 76 182 47 l 146 0 l 56 0 l 56 926 l 172 926 l 185 926 l 185 915 q 176 897 178 907 q 174 864 174 888 l 174 558 q 201 601 185 583 q 236 633 217 619 q 276 652 256 646 q 317 658 297 658 q 401 640 364 657 q 466 583 439 622 q 508 481 493 544 q 522 328 522 418 q 505 166 522 232 q 458 60 488 100 q 389 3 428 21 q 308 -15 350 -15 l 308 -15 m 288 90 q 333 100 311 90 q 370 135 354 110 q 395 204 386 160 q 404 318 404 249 q 397 427 404 382 q 374 501 389 472 q 338 542 360 529 q 289 554 315 554 q 229 528 256 554 q 188 451 203 503 q 174 319 174 399 q 181 219 174 261 q 201 148 188 176 q 236 105 215 119 q 288 90 257 90 l 288 90 z "},"ʘ":{"ha":556,"x_min":25,"x_max":532,"o":"m 279 -15 q 139 31 196 -15 q 53 176 82 78 q 25 429 25 275 q 53 678 25 581 q 139 825 82 776 q 279 874 196 874 q 419 825 363 874 q 503 678 475 776 q 532 429 532 581 q 503 176 532 275 q 419 31 475 78 q 279 -15 363 -15 m 279 92 q 352 125 322 92 q 399 233 382 158 q 415 431 415 307 q 399 622 415 547 q 352 731 382 696 q 279 767 322 767 q 206 731 236 767 q 159 622 175 696 q 143 431 143 547 q 159 233 143 307 q 206 125 175 158 q 279 92 236 92 m 290 371 q 245 390 264 371 q 226 435 226 408 q 245 481 226 463 q 290 500 264 500 q 335 481 317 500 q 354 435 354 461 q 335 390 354 408 q 290 371 317 371 z "},"c":{"ha":556,"x_min":51,"x_max":514,"o":"m 315 -15 q 207 7 256 -15 q 124 73 158 29 q 70 178 89 117 q 51 318 51 240 q 72 463 51 400 q 127 568 92 525 q 210 634 163 611 q 313 657 258 657 q 433 628 382 657 q 514 547 485 600 l 454 464 l 447 453 l 438 460 q 433 483 436 471 q 417 511 431 494 q 372 540 396 532 q 314 549 347 549 q 262 535 288 549 q 215 495 236 522 q 182 424 194 468 q 169 321 169 381 q 181 219 169 263 q 213 149 193 176 q 261 106 233 121 q 321 92 289 92 q 368 99 346 92 q 410 122 390 106 q 449 163 431 138 l 507 72 q 419 6 469 28 q 315 -15 369 -15 l 315 -15 z "},"ć":{"ha":556,"x_min":51,"x_max":514,"o":"m 315 -15 q 207 7 256 -15 q 124 73 158 29 q 70 178 89 117 q 51 318 51 240 q 72 463 51 400 q 127 568 92 525 q 210 634 163 611 q 313 657 258 657 q 433 628 382 657 q 514 547 485 600 l 454 464 l 447 453 l 438 460 q 433 483 436 471 q 417 511 431 494 q 372 540 396 532 q 314 549 347 549 q 262 535 288 549 q 215 495 236 522 q 182 424 194 468 q 169 321 169 381 q 181 219 169 263 q 213 149 193 176 q 261 106 233 121 q 321 92 289 92 q 368 99 346 92 q 410 122 390 106 q 449 163 431 138 l 507 72 q 419 6 469 28 q 315 -15 369 -15 l 315 -15 z "},"č":{"ha":556,"x_min":51,"x_max":514,"o":"m 315 -15 q 207 7 256 -15 q 124 73 158 29 q 70 178 89 117 q 51 318 51 240 q 72 463 51 400 q 127 568 92 525 q 210 634 163 611 q 313 657 258 657 q 433 628 382 657 q 514 547 485 600 l 454 464 l 447 453 l 438 460 q 433 483 436 471 q 417 511 431 494 q 372 540 396 532 q 314 549 347 549 q 262 535 288 549 q 215 495 236 522 q 182 424 194 468 q 169 321 169 381 q 181 219 169 263 q 213 149 193 176 q 261 106 233 121 q 321 92 289 92 q 368 99 346 92 q 410 122 390 106 q 449 163 431 138 l 507 72 q 419 6 469 28 q 315 -15 369 -15 l 315 -15 m 196 967 l 310 835 l 425 967 l 485 911 l 326 717 l 293 717 l 135 911 l 196 967 z "},"ç":{"ha":556,"x_min":51,"x_max":514,"o":"m 315 -15 q 207 7 256 -15 q 124 73 158 29 q 70 178 89 117 q 51 318 51 240 q 72 463 51 400 q 127 568 92 525 q 210 634 163 611 q 313 657 258 657 q 433 628 382 657 q 514 547 485 600 l 454 464 l 447 453 l 438 460 q 433 483 436 471 q 417 511 431 494 q 372 540 396 532 q 314 549 347 549 q 262 535 288 549 q 215 495 236 522 q 182 424 194 468 q 169 321 169 381 q 181 219 169 263 q 213 149 193 176 q 261 106 233 121 q 321 92 289 92 q 368 99 346 92 q 410 122 390 106 q 449 163 431 138 l 507 72 q 419 6 469 28 q 315 -15 369 -15 l 315 -15 z "},"ḉ":{"ha":556,"x_min":51,"x_max":514,"o":"m 315 -15 q 207 7 256 -15 q 124 73 158 29 q 70 178 89 117 q 51 318 51 240 q 72 463 51 400 q 127 568 92 525 q 210 634 163 611 q 313 657 258 657 q 433 628 382 657 q 514 547 485 600 l 454 464 l 447 453 l 438 460 q 433 483 436 471 q 417 511 431 494 q 372 540 396 532 q 314 549 347 549 q 262 535 288 549 q 215 495 236 522 q 182 424 194 468 q 169 321 169 381 q 181 219 169 263 q 213 149 193 176 q 261 106 233 121 q 321 92 289 92 q 368 99 346 92 q 410 122 390 106 q 449 163 431 138 l 507 72 q 419 6 469 28 q 315 -15 369 -15 l 315 -15 z "},"ĉ":{"ha":556,"x_min":51,"x_max":514,"o":"m 315 -15 q 207 7 256 -15 q 124 73 158 29 q 70 178 89 117 q 51 318 51 240 q 72 463 51 400 q 127 568 92 525 q 210 634 163 611 q 313 657 258 657 q 433 628 382 657 q 514 547 485 600 l 454 464 l 447 453 l 438 460 q 433 483 436 471 q 417 511 431 494 q 372 540 396 532 q 314 549 347 549 q 262 535 288 549 q 215 495 236 522 q 182 424 194 468 q 169 321 169 381 q 181 219 169 263 q 213 149 193 176 q 261 106 233 121 q 321 92 289 92 q 368 99 346 92 q 410 122 390 106 q 449 163 431 138 l 507 72 q 419 6 469 28 q 315 -15 369 -15 l 315 -15 m 197 707 l 136 761 l 294 956 l 328 956 l 486 761 l 425 707 l 311 838 l 197 707 z "},"ċ":{"ha":556,"x_min":51,"x_max":514,"o":"m 315 -15 q 207 7 256 -15 q 124 73 158 29 q 70 178 89 117 q 51 318 51 240 q 72 463 51 400 q 127 568 92 525 q 210 634 163 611 q 313 657 258 657 q 433 628 382 657 q 514 547 485 600 l 454 464 l 447 453 l 438 460 q 433 483 436 471 q 417 511 431 494 q 372 540 396 532 q 314 549 347 549 q 262 535 288 549 q 215 495 236 522 q 182 424 194 468 q 169 321 169 381 q 181 219 169 263 q 213 149 193 176 q 261 106 233 121 q 321 92 289 92 q 368 99 346 92 q 410 122 390 106 q 449 163 431 138 l 507 72 q 419 6 469 28 q 315 -15 369 -15 l 315 -15 z "},"d":{"ha":556,"x_min":40,"x_max":510,"o":"m 249 -14 q 169 3 207 -14 q 103 61 132 21 q 57 166 74 101 q 40 325 40 231 q 57 481 40 417 q 103 583 74 544 q 169 640 132 622 q 251 658 207 658 q 308 648 283 658 q 353 618 333 638 q 383 568 372 599 l 383 926 l 497 926 l 510 926 l 510 915 q 500 897 503 907 q 499 864 497 888 l 499 93 q 500 47 499 69 q 510 0 501 24 l 394 0 q 386 26 389 14 q 383 51 383 38 q 382 79 382 64 q 347 29 368 50 q 301 -3 326 8 q 249 -14 276 -14 l 249 -14 m 269 93 q 318 108 297 93 q 353 151 339 122 q 374 222 367 179 q 381 322 381 265 q 368 451 381 400 q 331 528 356 503 q 268 554 306 554 q 220 542 242 554 q 184 502 199 529 q 163 433 169 475 q 156 335 156 392 q 170 197 156 250 q 211 118 185 143 q 269 93 238 93 l 269 93 z "},"ð":{"ha":556,"x_min":40,"x_max":518,"o":"m 285 -18 q 189 2 233 -18 q 111 63 144 22 q 59 164 78 103 q 40 308 40 225 q 58 453 40 390 q 106 561 75 517 q 176 628 136 606 q 260 650 215 650 q 306 644 285 650 q 346 628 328 639 q 379 599 364 617 q 344 678 364 639 q 297 750 324 718 l 174 708 l 142 792 l 239 824 q 208 856 224 840 q 174 885 192 871 q 135 908 157 899 l 254 938 q 299 901 278 919 q 343 858 321 883 l 461 899 l 492 817 l 404 785 q 453 697 432 743 q 489 597 475 650 q 510 482 503 543 q 518 351 518 421 q 503 187 518 257 q 458 72 488 117 q 385 4 428 26 q 285 -18 342 -18 m 285 88 q 331 100 310 88 q 367 140 351 113 q 392 211 383 167 q 401 321 401 256 q 394 404 401 368 q 376 467 388 440 q 350 511 365 494 q 317 537 335 528 q 282 546 300 546 q 236 533 258 546 q 197 492 214 519 q 169 422 179 464 q 160 321 160 379 q 169 219 160 263 q 197 147 179 176 q 236 103 214 118 q 285 88 258 88 z "},"ď":{"ha":556,"x_min":32,"x_max":542,"o":"m 192 -14 q 131 1 160 -14 q 79 54 101 17 q 44 158 57 92 q 32 324 32 224 q 44 487 32 422 q 77 589 56 551 q 128 642 99 626 q 194 658 158 658 q 261 637 235 658 q 299 567 288 615 l 299 925 l 400 925 l 414 925 l 414 914 q 403 896 406 906 q 401 863 401 886 l 401 96 q 403 48 401 71 q 411 0 404 25 l 310 0 q 303 24 306 13 q 298 49 300 36 q 296 78 296 61 q 269 29 286 50 q 233 -3 253 8 q 192 -14 214 -14 l 192 -14 m 214 90 q 260 115 242 90 q 288 192 278 140 q 297 322 297 243 q 288 456 297 404 q 260 533 278 508 q 217 557 242 557 q 181 546 196 557 q 155 510 165 535 q 139 442 144 485 q 133 338 133 400 q 140 219 133 267 q 157 143 146 171 q 183 103 168 115 q 214 90 197 90 l 214 90 m 485 928 q 526 907 510 928 q 542 850 542 886 q 533 785 542 819 q 508 713 525 750 q 469 636 492 676 l 417 669 q 440 708 429 690 q 456 745 450 726 q 463 781 463 764 q 454 805 463 794 q 438 830 446 815 q 429 869 429 844 q 444 910 429 893 q 485 928 460 928 z "},"đ":{"ha":556,"x_min":40,"x_max":556,"o":"m 249 -14 q 169 3 207 -14 q 103 61 132 21 q 57 166 74 101 q 40 325 40 231 q 57 481 40 417 q 103 583 74 544 q 169 640 132 622 q 251 658 207 658 q 308 648 283 658 q 353 618 333 638 q 383 568 372 599 l 383 926 l 497 926 l 510 926 l 510 915 q 500 897 503 907 q 499 864 497 888 l 499 93 q 500 47 499 69 q 510 0 501 24 l 394 0 q 386 26 389 14 q 383 51 383 38 q 382 79 382 64 q 347 29 368 50 q 301 -3 326 8 q 249 -14 276 -14 l 249 -14 m 269 93 q 318 108 297 93 q 353 151 339 122 q 374 222 367 179 q 381 322 381 265 q 368 451 381 400 q 331 528 356 503 q 268 554 306 554 q 220 542 242 554 q 184 502 199 529 q 163 433 169 475 q 156 335 156 392 q 170 197 156 250 q 211 118 185 143 q 269 93 238 93 l 269 93 m 251 722 l 251 818 l 556 818 l 556 722 l 251 722 z "},"ḍ":{"ha":556,"x_min":40,"x_max":510,"o":"m 249 -14 q 169 3 207 -14 q 103 61 132 21 q 57 166 74 101 q 40 325 40 231 q 57 481 40 417 q 103 583 74 544 q 169 640 132 622 q 251 658 207 658 q 308 648 283 658 q 353 618 333 638 q 383 568 372 599 l 383 926 l 497 926 l 510 926 l 510 915 q 500 897 503 907 q 499 864 497 888 l 499 93 q 500 47 499 69 q 510 0 501 24 l 394 0 q 386 26 389 14 q 383 51 383 38 q 382 79 382 64 q 347 29 368 50 q 301 -3 326 8 q 249 -14 276 -14 l 249 -14 m 269 93 q 318 108 297 93 q 353 151 339 122 q 374 222 367 179 q 381 322 381 265 q 368 451 381 400 q 331 528 356 503 q 268 554 306 554 q 220 542 242 554 q 184 502 199 529 q 163 433 169 475 q 156 335 156 392 q 170 197 156 250 q 211 118 185 143 q 269 93 238 93 l 269 93 z "},"ḏ":{"ha":556,"x_min":40,"x_max":510,"o":"m 249 -14 q 169 3 207 -14 q 103 61 132 21 q 57 166 74 101 q 40 325 40 231 q 57 481 40 417 q 103 583 74 544 q 169 640 132 622 q 251 658 207 658 q 308 648 283 658 q 353 618 333 638 q 383 568 372 599 l 383 926 l 497 926 l 510 926 l 510 915 q 500 897 503 907 q 499 864 497 888 l 499 93 q 500 47 499 69 q 510 0 501 24 l 394 0 q 386 26 389 14 q 383 51 383 38 q 382 79 382 64 q 347 29 368 50 q 301 -3 326 8 q 249 -14 276 -14 l 249 -14 m 269 93 q 318 108 297 93 q 353 151 339 122 q 374 222 367 179 q 381 322 381 265 q 368 451 381 400 q 331 528 356 503 q 268 554 306 554 q 220 542 242 554 q 184 502 199 529 q 163 433 169 475 q 156 335 156 392 q 170 197 156 250 q 211 118 185 143 q 269 93 238 93 l 269 93 z "},"e":{"ha":556,"x_min":46,"x_max":503,"o":"m 301 -14 q 196 6 243 -14 q 115 67 149 26 q 64 171 82 108 q 46 317 46 233 q 63 467 46 403 q 113 574 81 532 q 189 637 144 615 q 286 658 233 658 q 373 640 333 658 q 442 584 413 622 q 487 486 471 546 q 503 343 503 426 q 503 315 503 329 q 501 289 503 301 l 161 289 q 174 197 163 235 q 206 135 186 158 q 251 100 225 111 q 306 89 276 89 q 353 96 332 89 q 393 117 375 103 q 428 150 411 131 l 489 82 q 438 29 467 51 q 374 -3 408 7 q 301 -14 340 -14 m 163 390 l 388 390 q 381 463 388 432 q 360 514 374 493 q 328 545 347 535 q 282 556 308 556 q 238 547 258 556 q 203 517 218 538 q 178 466 188 497 q 163 390 168 435 z "},"é":{"ha":556,"x_min":46,"x_max":503,"o":"m 301 -14 q 196 6 243 -14 q 115 67 149 26 q 64 171 82 108 q 46 317 46 233 q 63 467 46 403 q 113 574 81 532 q 189 637 144 615 q 286 658 233 658 q 373 640 333 658 q 442 584 413 622 q 487 486 471 546 q 503 343 503 426 q 503 315 503 329 q 501 289 503 301 l 161 289 q 174 197 163 235 q 206 135 186 158 q 251 100 225 111 q 306 89 276 89 q 353 96 332 89 q 393 117 375 103 q 428 150 411 131 l 489 82 q 438 29 467 51 q 374 -3 408 7 q 301 -14 340 -14 m 163 390 l 388 390 q 381 463 388 432 q 360 514 374 493 q 328 545 347 535 q 282 556 308 556 q 238 547 258 556 q 203 517 218 538 q 178 466 188 497 q 163 390 168 435 z "},"ĕ":{"ha":556,"x_min":46,"x_max":503,"o":"m 301 -14 q 196 6 243 -14 q 115 67 149 26 q 64 171 82 108 q 46 317 46 233 q 63 467 46 403 q 113 574 81 532 q 189 637 144 615 q 286 658 233 658 q 373 640 333 658 q 442 584 413 622 q 487 486 471 546 q 503 343 503 426 q 503 315 503 329 q 501 289 503 301 l 161 289 q 174 197 163 235 q 206 135 186 158 q 251 100 225 111 q 306 89 276 89 q 353 96 332 89 q 393 117 375 103 q 428 150 411 131 l 489 82 q 438 29 467 51 q 374 -3 408 7 q 301 -14 340 -14 m 163 390 l 388 390 q 381 463 388 432 q 360 514 374 493 q 328 545 347 535 q 282 556 308 556 q 238 547 258 556 q 203 517 218 538 q 178 466 188 497 q 163 390 168 435 m 372 910 l 451 874 q 383 776 426 810 q 286 743 340 743 q 190 776 233 743 q 119 874 146 810 l 199 908 q 236 843 215 865 q 286 821 257 821 q 322 831 307 821 q 351 862 338 842 q 372 910 364 882 z "},"ě":{"ha":556,"x_min":46,"x_max":503,"o":"m 301 -14 q 196 6 243 -14 q 115 67 149 26 q 64 171 82 108 q 46 317 46 233 q 63 467 46 403 q 113 574 81 532 q 189 637 144 615 q 286 658 233 658 q 373 640 333 658 q 442 584 413 622 q 487 486 471 546 q 503 343 503 426 q 503 315 503 329 q 501 289 503 301 l 161 289 q 174 197 163 235 q 206 135 186 158 q 251 100 225 111 q 306 89 276 89 q 353 96 332 89 q 393 117 375 103 q 428 150 411 131 l 489 82 q 438 29 467 51 q 374 -3 408 7 q 301 -14 340 -14 m 163 390 l 388 390 q 381 463 388 432 q 360 514 374 493 q 328 545 347 535 q 282 556 308 556 q 238 547 258 556 q 203 517 218 538 q 178 466 188 497 q 163 390 168 435 m 171 963 l 285 831 l 400 963 l 460 907 l 301 713 l 268 713 l 110 907 l 171 963 z "},"ḝ":{"ha":556,"x_min":46,"x_max":503,"o":"m 301 -14 q 196 6 243 -14 q 115 67 149 26 q 64 171 82 108 q 46 317 46 233 q 63 467 46 403 q 113 574 81 532 q 189 637 144 615 q 286 658 233 658 q 373 640 333 658 q 442 584 413 622 q 487 486 471 546 q 503 343 503 426 q 503 315 503 329 q 501 289 503 301 l 161 289 q 174 197 163 235 q 206 135 186 158 q 251 100 225 111 q 306 89 276 89 q 353 96 332 89 q 393 117 375 103 q 428 150 411 131 l 489 82 q 438 29 467 51 q 374 -3 408 7 q 301 -14 340 -14 m 163 390 l 388 390 q 381 463 388 432 q 360 514 374 493 q 328 545 347 535 q 282 556 308 556 q 238 547 258 556 q 203 517 218 538 q 178 466 188 497 q 163 390 168 435 m 372 910 l 451 874 q 383 776 426 810 q 286 743 340 743 q 190 776 233 743 q 119 874 146 810 l 199 908 q 236 843 215 865 q 286 821 257 821 q 322 831 307 821 q 351 862 338 842 q 372 910 364 882 z "},"ê":{"ha":556,"x_min":46,"x_max":503,"o":"m 301 -14 q 196 6 243 -14 q 115 67 149 26 q 64 171 82 108 q 46 317 46 233 q 63 467 46 403 q 113 574 81 532 q 189 637 144 615 q 286 658 233 658 q 373 640 333 658 q 442 584 413 622 q 487 486 471 546 q 503 343 503 426 q 503 315 503 329 q 501 289 503 301 l 161 289 q 174 197 163 235 q 206 135 186 158 q 251 100 225 111 q 306 89 276 89 q 353 96 332 89 q 393 117 375 103 q 428 150 411 131 l 489 82 q 438 29 467 51 q 374 -3 408 7 q 301 -14 340 -14 m 163 390 l 388 390 q 381 463 388 432 q 360 514 374 493 q 328 545 347 535 q 282 556 308 556 q 238 547 258 556 q 203 517 218 538 q 178 466 188 497 q 163 390 168 435 m 172 703 l 111 757 l 269 951 l 303 951 l 461 757 l 400 703 l 286 833 l 172 703 z "},"ế":{"ha":556,"x_min":46,"x_max":567,"o":"m 301 -14 q 196 6 243 -14 q 115 67 149 26 q 64 171 82 108 q 46 317 46 233 q 63 467 46 403 q 113 574 81 532 q 189 637 144 615 q 286 658 233 658 q 373 640 333 658 q 442 584 413 622 q 487 486 471 546 q 503 343 503 426 q 503 315 503 329 q 501 289 503 301 l 161 289 q 174 197 163 235 q 206 135 186 158 q 251 100 225 111 q 306 89 276 89 q 353 96 332 89 q 393 117 375 103 q 428 150 411 131 l 489 82 q 438 29 467 51 q 374 -3 408 7 q 301 -14 340 -14 m 163 390 l 388 390 q 381 463 388 432 q 360 514 374 493 q 328 545 347 535 q 282 556 308 556 q 238 547 258 556 q 203 517 218 538 q 178 466 188 497 q 163 390 168 435 z "},"ệ":{"ha":556,"x_min":46,"x_max":503,"o":"m 301 -14 q 196 6 243 -14 q 115 67 149 26 q 64 171 82 108 q 46 317 46 233 q 63 467 46 403 q 113 574 81 532 q 189 637 144 615 q 286 658 233 658 q 373 640 333 658 q 442 584 413 622 q 487 486 471 546 q 503 343 503 426 q 503 315 503 329 q 501 289 503 301 l 161 289 q 174 197 163 235 q 206 135 186 158 q 251 100 225 111 q 306 89 276 89 q 353 96 332 89 q 393 117 375 103 q 428 150 411 131 l 489 82 q 438 29 467 51 q 374 -3 408 7 q 301 -14 340 -14 m 163 390 l 388 390 q 381 463 388 432 q 360 514 374 493 q 328 545 347 535 q 282 556 308 556 q 238 547 258 556 q 203 517 218 538 q 178 466 188 497 q 163 390 168 435 m 172 703 l 111 757 l 269 951 l 303 951 l 461 757 l 400 703 l 286 833 l 172 703 z "},"ề":{"ha":556,"x_min":46,"x_max":503,"o":"m 301 -14 q 196 6 243 -14 q 115 67 149 26 q 64 171 82 108 q 46 317 46 233 q 63 467 46 403 q 113 574 81 532 q 189 637 144 615 q 286 658 233 658 q 373 640 333 658 q 442 584 413 622 q 487 486 471 546 q 503 343 503 426 q 503 315 503 329 q 501 289 503 301 l 161 289 q 174 197 163 235 q 206 135 186 158 q 251 100 225 111 q 306 89 276 89 q 353 96 332 89 q 393 117 375 103 q 428 150 411 131 l 489 82 q 438 29 467 51 q 374 -3 408 7 q 301 -14 340 -14 m 163 390 l 388 390 q 381 463 388 432 q 360 514 374 493 q 328 545 347 535 q 282 556 308 556 q 238 547 258 556 q 203 517 218 538 q 178 466 188 497 q 163 390 168 435 z "},"ể":{"ha":556,"x_min":46,"x_max":542,"o":"m 301 -14 q 196 6 243 -14 q 115 67 149 26 q 64 171 82 108 q 46 317 46 233 q 63 467 46 403 q 113 574 81 532 q 189 637 144 615 q 286 658 233 658 q 373 640 333 658 q 442 584 413 622 q 487 486 471 546 q 503 343 503 426 q 503 315 503 329 q 501 289 503 301 l 161 289 q 174 197 163 235 q 206 135 186 158 q 251 100 225 111 q 306 89 276 89 q 353 96 332 89 q 393 117 375 103 q 428 150 411 131 l 489 82 q 438 29 467 51 q 374 -3 408 7 q 301 -14 340 -14 m 163 390 l 388 390 q 381 463 388 432 q 360 514 374 493 q 328 545 347 535 q 282 556 308 556 q 238 547 258 556 q 203 517 218 538 q 178 466 188 497 q 163 390 168 435 z "},"ễ":{"ha":556,"x_min":46,"x_max":503,"o":"m 301 -14 q 196 6 243 -14 q 115 67 149 26 q 64 171 82 108 q 46 317 46 233 q 63 467 46 403 q 113 574 81 532 q 189 637 144 615 q 286 658 233 658 q 373 640 333 658 q 442 584 413 622 q 487 486 471 546 q 503 343 503 426 q 503 315 503 329 q 501 289 503 301 l 161 289 q 174 197 163 235 q 206 135 186 158 q 251 100 225 111 q 306 89 276 89 q 353 96 332 89 q 393 117 375 103 q 428 150 411 131 l 489 82 q 438 29 467 51 q 374 -3 408 7 q 301 -14 340 -14 m 163 390 l 388 390 q 381 463 388 432 q 360 514 374 493 q 328 545 347 535 q 282 556 308 556 q 238 547 258 556 q 203 517 218 538 q 178 466 188 497 q 163 390 168 435 z "},"ȅ":{"ha":556,"x_min":46,"x_max":503,"o":"m 301 -14 q 196 6 243 -14 q 115 67 149 26 q 64 171 82 108 q 46 317 46 233 q 63 467 46 403 q 113 574 81 532 q 189 637 144 615 q 286 658 233 658 q 373 640 333 658 q 442 584 413 622 q 487 486 471 546 q 503 343 503 426 q 503 315 503 329 q 501 289 503 301 l 161 289 q 174 197 163 235 q 206 135 186 158 q 251 100 225 111 q 306 89 276 89 q 353 96 332 89 q 393 117 375 103 q 428 150 411 131 l 489 82 q 438 29 467 51 q 374 -3 408 7 q 301 -14 340 -14 m 163 390 l 388 390 q 381 463 388 432 q 360 514 374 493 q 328 545 347 535 q 282 556 308 556 q 238 547 258 556 q 203 517 218 538 q 178 466 188 497 q 163 390 168 435 z "},"ë":{"ha":556,"x_min":46,"x_max":503,"o":"m 301 -14 q 196 6 243 -14 q 115 67 149 26 q 64 171 82 108 q 46 317 46 233 q 63 467 46 403 q 113 574 81 532 q 189 637 144 615 q 286 658 233 658 q 373 640 333 658 q 442 584 413 622 q 487 486 471 546 q 503 343 503 426 q 503 315 503 329 q 501 289 503 301 l 161 289 q 174 197 163 235 q 206 135 186 158 q 251 100 225 111 q 306 89 276 89 q 353 96 332 89 q 393 117 375 103 q 428 150 411 131 l 489 82 q 438 29 467 51 q 374 -3 408 7 q 301 -14 340 -14 m 163 390 l 388 390 q 381 463 388 432 q 360 514 374 493 q 328 545 347 535 q 282 556 308 556 q 238 547 258 556 q 203 517 218 538 q 178 466 188 497 q 163 390 168 435 z "},"ė":{"ha":556,"x_min":46,"x_max":503,"o":"m 301 -14 q 196 6 243 -14 q 115 67 149 26 q 64 171 82 108 q 46 317 46 233 q 63 467 46 403 q 113 574 81 532 q 189 637 144 615 q 286 658 233 658 q 373 640 333 658 q 442 584 413 622 q 487 486 471 546 q 503 343 503 426 q 503 315 503 329 q 501 289 503 301 l 161 289 q 174 197 163 235 q 206 135 186 158 q 251 100 225 111 q 306 89 276 89 q 353 96 332 89 q 393 117 375 103 q 428 150 411 131 l 489 82 q 438 29 467 51 q 374 -3 408 7 q 301 -14 340 -14 m 163 390 l 388 390 q 381 463 388 432 q 360 514 374 493 q 328 545 347 535 q 282 556 308 556 q 238 547 258 556 q 203 517 218 538 q 178 466 188 497 q 163 390 168 435 z "},"ẹ":{"ha":556,"x_min":46,"x_max":503,"o":"m 301 -14 q 196 6 243 -14 q 115 67 149 26 q 64 171 82 108 q 46 317 46 233 q 63 467 46 403 q 113 574 81 532 q 189 637 144 615 q 286 658 233 658 q 373 640 333 658 q 442 584 413 622 q 487 486 471 546 q 503 343 503 426 q 503 315 503 329 q 501 289 503 301 l 161 289 q 174 197 163 235 q 206 135 186 158 q 251 100 225 111 q 306 89 276 89 q 353 96 332 89 q 393 117 375 103 q 428 150 411 131 l 489 82 q 438 29 467 51 q 374 -3 408 7 q 301 -14 340 -14 m 163 390 l 388 390 q 381 463 388 432 q 360 514 374 493 q 328 545 347 535 q 282 556 308 556 q 238 547 258 556 q 203 517 218 538 q 178 466 188 497 q 163 390 168 435 z "},"è":{"ha":556,"x_min":46,"x_max":503,"o":"m 301 -14 q 196 6 243 -14 q 115 67 149 26 q 64 171 82 108 q 46 317 46 233 q 63 467 46 403 q 113 574 81 532 q 189 637 144 615 q 286 658 233 658 q 373 640 333 658 q 442 584 413 622 q 487 486 471 546 q 503 343 503 426 q 503 315 503 329 q 501 289 503 301 l 161 289 q 174 197 163 235 q 206 135 186 158 q 251 100 225 111 q 306 89 276 89 q 353 96 332 89 q 393 117 375 103 q 428 150 411 131 l 489 82 q 438 29 467 51 q 374 -3 408 7 q 301 -14 340 -14 m 163 390 l 388 390 q 381 463 388 432 q 360 514 374 493 q 328 545 347 535 q 282 556 308 556 q 238 547 258 556 q 203 517 218 538 q 178 466 188 497 q 163 390 168 435 z "},"ẻ":{"ha":556,"x_min":46,"x_max":503,"o":"m 301 -14 q 196 6 243 -14 q 115 67 149 26 q 64 171 82 108 q 46 317 46 233 q 63 467 46 403 q 113 574 81 532 q 189 637 144 615 q 286 658 233 658 q 373 640 333 658 q 442 584 413 622 q 487 486 471 546 q 503 343 503 426 q 503 315 503 329 q 501 289 503 301 l 161 289 q 174 197 163 235 q 206 135 186 158 q 251 100 225 111 q 306 89 276 89 q 353 96 332 89 q 393 117 375 103 q 428 150 411 131 l 489 82 q 438 29 467 51 q 374 -3 408 7 q 301 -14 340 -14 m 163 390 l 388 390 q 381 463 388 432 q 360 514 374 493 q 328 545 347 535 q 282 556 308 556 q 238 547 258 556 q 203 517 218 538 q 178 466 188 497 q 163 390 168 435 m 401 886 q 391 842 401 860 q 367 809 381 824 q 344 778 354 794 q 333 738 333 761 l 333 724 l 253 724 l 253 761 q 263 796 253 781 q 285 824 272 811 q 308 851 299 838 q 318 876 318 864 q 308 902 318 893 q 283 911 299 911 q 252 902 267 911 q 228 868 238 893 l 186 940 q 235 981 207 968 q 294 993 264 993 q 349 980 325 993 q 388 943 374 967 q 401 886 401 919 z "},"ȇ":{"ha":556,"x_min":46,"x_max":503,"o":"m 301 -14 q 196 6 243 -14 q 115 67 149 26 q 64 171 82 108 q 46 317 46 233 q 63 467 46 403 q 113 574 81 532 q 189 637 144 615 q 286 658 233 658 q 373 640 333 658 q 442 584 413 622 q 487 486 471 546 q 503 343 503 426 q 503 315 503 329 q 501 289 503 301 l 161 289 q 174 197 163 235 q 206 135 186 158 q 251 100 225 111 q 306 89 276 89 q 353 96 332 89 q 393 117 375 103 q 428 150 411 131 l 489 82 q 438 29 467 51 q 374 -3 408 7 q 301 -14 340 -14 m 163 390 l 388 390 q 381 463 388 432 q 360 514 374 493 q 328 545 347 535 q 282 556 308 556 q 238 547 258 556 q 203 517 218 538 q 178 466 188 497 q 163 390 168 435 m 200 736 l 121 771 q 190 869 147 836 q 286 903 233 903 q 383 869 339 903 q 453 771 428 836 l 374 736 q 337 802 358 781 q 286 824 315 824 q 251 814 267 824 q 222 785 235 804 q 200 736 210 765 z "},"ē":{"ha":556,"x_min":46,"x_max":503,"o":"m 301 -14 q 196 6 243 -14 q 115 67 149 26 q 64 171 82 108 q 46 317 46 233 q 63 467 46 403 q 113 574 81 532 q 189 637 144 615 q 286 658 233 658 q 373 640 333 658 q 442 584 413 622 q 487 486 471 546 q 503 343 503 426 q 503 315 503 329 q 501 289 503 301 l 161 289 q 174 197 163 235 q 206 135 186 158 q 251 100 225 111 q 306 89 276 89 q 353 96 332 89 q 393 117 375 103 q 428 150 411 131 l 489 82 q 438 29 467 51 q 374 -3 408 7 q 301 -14 340 -14 m 163 390 l 388 390 q 381 463 388 432 q 360 514 374 493 q 328 545 347 535 q 282 556 308 556 q 238 547 258 556 q 203 517 218 538 q 178 466 188 497 q 163 390 168 435 z "},"ḗ":{"ha":556,"x_min":46,"x_max":503,"o":"m 301 -14 q 196 6 243 -14 q 115 67 149 26 q 64 171 82 108 q 46 317 46 233 q 63 467 46 403 q 113 574 81 532 q 189 637 144 615 q 286 658 233 658 q 373 640 333 658 q 442 584 413 622 q 487 486 471 546 q 503 343 503 426 q 503 315 503 329 q 501 289 503 301 l 161 289 q 174 197 163 235 q 206 135 186 158 q 251 100 225 111 q 306 89 276 89 q 353 96 332 89 q 393 117 375 103 q 428 150 411 131 l 489 82 q 438 29 467 51 q 374 -3 408 7 q 301 -14 340 -14 m 163 390 l 388 390 q 381 463 388 432 q 360 514 374 493 q 328 545 347 535 q 282 556 308 556 q 238 547 258 556 q 203 517 218 538 q 178 466 188 497 q 163 390 168 435 z "},"ḕ":{"ha":556,"x_min":46,"x_max":503,"o":"m 301 -14 q 196 6 243 -14 q 115 67 149 26 q 64 171 82 108 q 46 317 46 233 q 63 467 46 403 q 113 574 81 532 q 189 637 144 615 q 286 658 233 658 q 373 640 333 658 q 442 584 413 622 q 487 486 471 546 q 503 343 503 426 q 503 315 503 329 q 501 289 503 301 l 161 289 q 174 197 163 235 q 206 135 186 158 q 251 100 225 111 q 306 89 276 89 q 353 96 332 89 q 393 117 375 103 q 428 150 411 131 l 489 82 q 438 29 467 51 q 374 -3 408 7 q 301 -14 340 -14 m 163 390 l 388 390 q 381 463 388 432 q 360 514 374 493 q 328 545 347 535 q 282 556 308 556 q 238 547 258 556 q 203 517 218 538 q 178 466 188 497 q 163 390 168 435 z "},"ę":{"ha":556,"x_min":46,"x_max":503,"o":"m 301 -14 q 196 6 243 -14 q 115 67 149 26 q 64 171 82 108 q 46 317 46 233 q 63 467 46 403 q 113 574 81 532 q 189 637 144 615 q 286 658 233 658 q 373 640 333 658 q 442 584 413 622 q 487 486 471 546 q 503 343 503 426 q 503 315 503 329 q 501 289 503 301 l 161 289 q 174 197 163 235 q 206 135 186 158 q 251 100 225 111 q 306 89 276 89 q 353 96 332 89 q 393 117 375 103 q 428 150 411 131 l 489 82 q 438 29 467 51 q 374 -3 408 7 q 301 -14 340 -14 m 163 390 l 388 390 q 381 463 388 432 q 360 514 374 493 q 328 545 347 535 q 282 556 308 556 q 238 547 258 556 q 203 517 218 538 q 178 466 188 497 q 163 390 168 435 m 403 -210 l 364 -312 q 288 -278 318 -300 q 240 -229 257 -257 q 224 -168 224 -201 q 241 -95 224 -132 q 291 -22 258 -58 q 371 46 324 14 l 414 13 q 369 -39 388 -12 q 340 -89 350 -65 q 331 -133 331 -112 q 349 -180 331 -160 q 403 -210 367 -200 z "},"ʚ":{"ha":556,"x_min":39,"x_max":514,"o":"m 260 -17 q 140 10 190 -15 q 65 83 90 36 q 39 190 39 129 q 51 261 39 231 q 85 314 64 292 q 136 347 107 336 q 83 407 101 372 q 65 483 65 442 q 90 572 65 533 q 160 633 115 611 q 264 656 206 656 q 401 617 344 656 q 485 503 457 578 q 514 321 514 428 q 484 135 514 211 q 397 22 454 60 q 260 -17 340 -15 m 261 89 q 338 113 307 89 q 383 188 368 136 q 399 321 399 239 q 385 450 399 399 q 342 527 371 501 q 269 553 314 553 q 221 541 240 553 q 192 510 201 529 q 183 467 183 490 q 191 426 183 444 q 217 398 199 408 q 264 388 235 388 q 282 388 274 388 q 300 389 290 388 l 300 283 q 283 285 290 285 q 271 287 276 286 q 256 288 265 288 q 213 281 232 288 q 182 263 194 275 q 163 233 169 250 q 156 193 156 215 q 169 140 156 164 q 206 103 182 117 q 261 89 229 89 z "},"ẽ":{"ha":556,"x_min":46,"x_max":503,"o":"m 301 -14 q 196 6 243 -14 q 115 67 149 26 q 64 171 82 108 q 46 317 46 233 q 63 467 46 403 q 113 574 81 532 q 189 637 144 615 q 286 658 233 658 q 373 640 333 658 q 442 584 413 622 q 487 486 471 546 q 503 343 503 426 q 503 315 503 329 q 501 289 503 301 l 161 289 q 174 197 163 235 q 206 135 186 158 q 251 100 225 111 q 306 89 276 89 q 353 96 332 89 q 393 117 375 103 q 428 150 411 131 l 489 82 q 438 29 467 51 q 374 -3 408 7 q 301 -14 340 -14 m 163 390 l 388 390 q 381 463 388 432 q 360 514 374 493 q 328 545 347 535 q 282 556 308 556 q 238 547 258 556 q 203 517 218 538 q 178 466 188 497 q 163 390 168 435 m 413 933 l 478 894 q 431 816 457 844 q 368 788 404 788 q 318 799 339 788 q 283 825 297 810 q 255 851 268 840 q 226 863 242 863 q 195 848 208 863 q 171 804 182 833 l 97 836 q 146 919 115 889 q 221 950 176 950 q 267 939 247 950 q 302 913 288 928 q 331 888 317 899 q 361 876 346 876 q 390 891 379 876 q 413 933 400 906 z "},"ə":{"ha":556,"x_min":53,"x_max":510,"o":"m 254 657 q 360 637 313 657 q 440 576 407 617 q 492 472 474 535 q 510 326 510 410 q 492 175 510 239 q 443 69 475 111 q 367 6 411 26 q 269 -15 322 -15 q 183 3 222 -15 q 114 59 143 21 q 69 157 85 97 q 53 300 53 217 q 53 328 53 314 q 54 353 53 342 l 394 353 q 381 447 393 408 q 350 508 369 485 q 305 542 331 532 q 250 553 279 553 q 203 547 225 553 q 163 526 181 540 q 128 492 144 513 l 67 561 q 119 615 90 593 q 181 647 147 636 q 254 657 215 657 m 393 253 l 168 253 q 175 180 168 211 q 195 128 182 149 q 228 97 208 107 q 274 88 247 88 q 317 97 297 88 q 353 125 338 106 q 378 176 368 144 q 393 253 388 208 z "},"ƹ":{"ha":556,"x_min":76,"x_max":504,"o":"m 311 -247 q 185 -214 239 -247 q 104 -122 132 -181 q 76 11 76 -64 q 95 131 76 78 q 149 222 114 183 q 231 281 183 260 q 333 301 278 301 l 388 301 l 388 199 q 299 192 336 201 q 238 160 261 182 q 204 103 215 138 q 193 19 193 68 q 209 -69 193 -35 q 254 -121 225 -104 q 321 -137 283 -137 q 380 -128 356 -137 q 424 -99 404 -118 q 440 -72 436 -81 q 440 -51 443 -62 l 447 -43 l 457 -50 l 504 -153 q 419 -225 467 -203 q 311 -247 371 -247 l 311 -247 m 99 535 l 99 638 l 464 638 l 464 526 l 231 526 l 388 301 l 289 275 l 99 535 z "},"f":{"ha":556,"x_min":47,"x_max":535,"o":"m 156 542 l 47 542 l 47 643 l 156 643 l 156 686 q 185 828 156 772 q 261 910 214 883 q 364 936 308 936 q 460 915 414 936 q 535 851 506 894 l 489 761 l 482 750 l 472 756 q 466 778 469 765 q 447 806 463 790 q 413 827 429 821 q 371 833 396 833 q 319 818 342 833 q 283 771 296 803 q 271 688 271 739 l 271 643 l 428 643 l 428 542 l 271 542 l 271 0 l 156 0 l 156 542 z "},"g":{"ha":556,"x_min":36,"x_max":536,"o":"m 271 -243 q 172 -232 215 -243 q 97 -200 128 -221 q 51 -148 67 -179 q 36 -75 36 -117 q 49 -9 36 -39 q 85 42 63 21 q 133 75 107 64 l 190 46 q 161 16 174 31 q 142 -17 149 1 q 135 -58 135 -35 q 145 -95 135 -79 q 174 -122 156 -111 q 219 -137 193 -132 q 276 -142 244 -142 q 348 -131 319 -142 q 390 -100 376 -119 q 404 -56 404 -81 q 395 -12 404 -28 q 363 12 386 4 q 297 19 339 19 q 226 23 260 19 q 163 35 192 26 q 114 60 135 44 q 81 97 93 75 q 69 151 69 119 q 92 224 71 190 q 144 288 114 258 l 201 249 q 182 223 190 233 q 169 203 174 213 q 165 182 165 194 q 180 151 165 163 q 230 133 194 139 q 326 128 265 128 q 413 115 378 128 q 468 81 447 103 q 498 28 489 58 q 507 -40 507 -3 q 493 -117 507 -81 q 451 -181 479 -153 q 378 -226 424 -210 q 271 -243 333 -243 m 257 217 q 156 244 199 217 q 90 322 114 272 q 67 439 67 372 q 90 556 67 506 q 157 635 114 607 q 257 663 200 663 q 356 635 314 663 q 422 556 399 607 q 446 439 446 506 q 422 321 446 371 q 355 244 397 271 q 257 217 313 217 m 257 314 q 303 329 283 314 q 333 373 322 344 q 343 439 343 401 q 333 505 343 478 q 303 547 322 532 q 257 563 283 563 q 211 547 231 563 q 181 504 192 532 q 171 439 171 476 q 181 373 171 401 q 211 329 192 344 q 257 314 231 314 m 413 525 l 371 588 q 440 642 403 624 q 525 657 478 661 l 536 561 q 469 558 500 567 q 413 525 439 550 z "},"ğ":{"ha":556,"x_min":36,"x_max":536,"o":"m 271 -243 q 172 -232 215 -243 q 97 -200 128 -221 q 51 -148 67 -179 q 36 -75 36 -117 q 49 -9 36 -39 q 85 42 63 21 q 133 75 107 64 l 190 46 q 161 16 174 31 q 142 -17 149 1 q 135 -58 135 -35 q 145 -95 135 -79 q 174 -122 156 -111 q 219 -137 193 -132 q 276 -142 244 -142 q 348 -131 319 -142 q 390 -100 376 -119 q 404 -56 404 -81 q 395 -12 404 -28 q 363 12 386 4 q 297 19 339 19 q 226 23 260 19 q 163 35 192 26 q 114 60 135 44 q 81 97 93 75 q 69 151 69 119 q 92 224 71 190 q 144 288 114 258 l 201 249 q 182 223 190 233 q 169 203 174 213 q 165 182 165 194 q 180 151 165 163 q 230 133 194 139 q 326 128 265 128 q 413 115 378 128 q 468 81 447 103 q 498 28 489 58 q 507 -40 507 -3 q 493 -117 507 -81 q 451 -181 479 -153 q 378 -226 424 -210 q 271 -243 333 -243 m 257 217 q 156 244 199 217 q 90 322 114 272 q 67 439 67 372 q 90 556 67 506 q 157 635 114 607 q 257 663 200 663 q 356 635 314 663 q 422 556 399 607 q 446 439 446 506 q 422 321 446 371 q 355 244 397 271 q 257 217 313 217 m 257 314 q 303 329 283 314 q 333 373 322 344 q 343 439 343 401 q 333 505 343 478 q 303 547 322 532 q 257 563 283 563 q 211 547 231 563 q 181 504 192 532 q 171 439 171 476 q 181 373 171 401 q 211 329 192 344 q 257 314 231 314 m 413 525 l 371 588 q 440 642 403 624 q 525 657 478 661 l 536 561 q 469 558 500 567 q 413 525 439 550 m 288 722 q 198 749 243 722 q 110 835 153 776 l 168 924 q 224 851 192 876 q 290 826 256 826 q 353 849 321 826 q 415 924 386 871 l 461 838 q 410 776 439 801 q 350 736 381 750 q 288 722 319 722 z "},"ǧ":{"ha":556,"x_min":36,"x_max":536,"o":"m 271 -243 q 172 -232 215 -243 q 97 -200 128 -221 q 51 -148 67 -179 q 36 -75 36 -117 q 49 -9 36 -39 q 85 42 63 21 q 133 75 107 64 l 190 46 q 161 16 174 31 q 142 -17 149 1 q 135 -58 135 -35 q 145 -95 135 -79 q 174 -122 156 -111 q 219 -137 193 -132 q 276 -142 244 -142 q 348 -131 319 -142 q 390 -100 376 -119 q 404 -56 404 -81 q 395 -12 404 -28 q 363 12 386 4 q 297 19 339 19 q 226 23 260 19 q 163 35 192 26 q 114 60 135 44 q 81 97 93 75 q 69 151 69 119 q 92 224 71 190 q 144 288 114 258 l 201 249 q 182 223 190 233 q 169 203 174 213 q 165 182 165 194 q 180 151 165 163 q 230 133 194 139 q 326 128 265 128 q 413 115 378 128 q 468 81 447 103 q 498 28 489 58 q 507 -40 507 -3 q 493 -117 507 -81 q 451 -181 479 -153 q 378 -226 424 -210 q 271 -243 333 -243 m 257 217 q 156 244 199 217 q 90 322 114 272 q 67 439 67 372 q 90 556 67 506 q 157 635 114 607 q 257 663 200 663 q 356 635 314 663 q 422 556 399 607 q 446 439 446 506 q 422 321 446 371 q 355 244 397 271 q 257 217 313 217 m 257 314 q 303 329 283 314 q 333 373 322 344 q 343 439 343 401 q 333 505 343 478 q 303 547 322 532 q 257 563 283 563 q 211 547 231 563 q 181 504 192 532 q 171 439 171 476 q 181 373 171 401 q 211 329 192 344 q 257 314 231 314 m 413 525 l 371 588 q 440 642 403 624 q 525 657 478 661 l 536 561 q 469 558 500 567 q 413 525 439 550 m 140 963 l 254 831 l 369 963 l 429 907 l 271 713 l 238 713 l 79 907 l 140 963 z "},"ĝ":{"ha":556,"x_min":36,"x_max":536,"o":"m 271 -243 q 172 -232 215 -243 q 97 -200 128 -221 q 51 -148 67 -179 q 36 -75 36 -117 q 49 -9 36 -39 q 85 42 63 21 q 133 75 107 64 l 190 46 q 161 16 174 31 q 142 -17 149 1 q 135 -58 135 -35 q 145 -95 135 -79 q 174 -122 156 -111 q 219 -137 193 -132 q 276 -142 244 -142 q 348 -131 319 -142 q 390 -100 376 -119 q 404 -56 404 -81 q 395 -12 404 -28 q 363 12 386 4 q 297 19 339 19 q 226 23 260 19 q 163 35 192 26 q 114 60 135 44 q 81 97 93 75 q 69 151 69 119 q 92 224 71 190 q 144 288 114 258 l 201 249 q 182 223 190 233 q 169 203 174 213 q 165 182 165 194 q 180 151 165 163 q 230 133 194 139 q 326 128 265 128 q 413 115 378 128 q 468 81 447 103 q 498 28 489 58 q 507 -40 507 -3 q 493 -117 507 -81 q 451 -181 479 -153 q 378 -226 424 -210 q 271 -243 333 -243 m 257 217 q 156 244 199 217 q 90 322 114 272 q 67 439 67 372 q 90 556 67 506 q 157 635 114 607 q 257 663 200 663 q 356 635 314 663 q 422 556 399 607 q 446 439 446 506 q 422 321 446 371 q 355 244 397 271 q 257 217 313 217 m 257 314 q 303 329 283 314 q 333 373 322 344 q 343 439 343 401 q 333 505 343 478 q 303 547 322 532 q 257 563 283 563 q 211 547 231 563 q 181 504 192 532 q 171 439 171 476 q 181 373 171 401 q 211 329 192 344 q 257 314 231 314 m 413 525 l 371 588 q 440 642 403 624 q 525 657 478 661 l 536 561 q 469 558 500 567 q 413 525 439 550 m 143 703 l 82 757 l 240 951 l 274 951 l 432 757 l 371 703 l 257 833 l 143 703 z "},"ģ":{"ha":556,"x_min":36,"x_max":536,"o":"m 271 -243 q 172 -232 215 -243 q 97 -200 128 -221 q 51 -148 67 -179 q 36 -75 36 -117 q 49 -9 36 -39 q 85 42 63 21 q 133 75 107 64 l 190 46 q 161 16 174 31 q 142 -17 149 1 q 135 -58 135 -35 q 145 -95 135 -79 q 174 -122 156 -111 q 219 -137 193 -132 q 276 -142 244 -142 q 348 -131 319 -142 q 390 -100 376 -119 q 404 -56 404 -81 q 395 -12 404 -28 q 363 12 386 4 q 297 19 339 19 q 226 23 260 19 q 163 35 192 26 q 114 60 135 44 q 81 97 93 75 q 69 151 69 119 q 92 224 71 190 q 144 288 114 258 l 201 249 q 182 223 190 233 q 169 203 174 213 q 165 182 165 194 q 180 151 165 163 q 230 133 194 139 q 326 128 265 128 q 413 115 378 128 q 468 81 447 103 q 498 28 489 58 q 507 -40 507 -3 q 493 -117 507 -81 q 451 -181 479 -153 q 378 -226 424 -210 q 271 -243 333 -243 m 257 217 q 156 244 199 217 q 90 322 114 272 q 67 439 67 372 q 90 556 67 506 q 157 635 114 607 q 257 663 200 663 q 356 635 314 663 q 422 556 399 607 q 446 439 446 506 q 422 321 446 371 q 355 244 397 271 q 257 217 313 217 m 257 314 q 303 329 283 314 q 333 373 322 344 q 343 439 343 401 q 333 505 343 478 q 303 547 322 532 q 257 563 283 563 q 211 547 231 563 q 181 504 192 532 q 171 439 171 476 q 181 373 171 401 q 211 329 192 344 q 257 314 231 314 m 413 525 l 371 588 q 440 642 403 624 q 525 657 478 661 l 536 561 q 469 558 500 567 q 413 525 439 550 m 281 1131 l 344 1078 q 292 1005 311 1042 q 272 942 272 968 q 281 915 272 928 q 299 890 289 903 q 318 863 310 878 q 326 826 326 847 q 302 763 326 786 q 243 740 278 740 q 178 771 206 740 q 151 856 151 801 q 160 920 151 888 q 184 987 168 953 q 224 1057 200 1021 q 281 1131 249 1093 z "},"ġ":{"ha":556,"x_min":36,"x_max":536,"o":"m 271 -243 q 172 -232 215 -243 q 97 -200 128 -221 q 51 -148 67 -179 q 36 -75 36 -117 q 49 -9 36 -39 q 85 42 63 21 q 133 75 107 64 l 190 46 q 161 16 174 31 q 142 -17 149 1 q 135 -58 135 -35 q 145 -95 135 -79 q 174 -122 156 -111 q 219 -137 193 -132 q 276 -142 244 -142 q 348 -131 319 -142 q 390 -100 376 -119 q 404 -56 404 -81 q 395 -12 404 -28 q 363 12 386 4 q 297 19 339 19 q 226 23 260 19 q 163 35 192 26 q 114 60 135 44 q 81 97 93 75 q 69 151 69 119 q 92 224 71 190 q 144 288 114 258 l 201 249 q 182 223 190 233 q 169 203 174 213 q 165 182 165 194 q 180 151 165 163 q 230 133 194 139 q 326 128 265 128 q 413 115 378 128 q 468 81 447 103 q 498 28 489 58 q 507 -40 507 -3 q 493 -117 507 -81 q 451 -181 479 -153 q 378 -226 424 -210 q 271 -243 333 -243 m 257 217 q 156 244 199 217 q 90 322 114 272 q 67 439 67 372 q 90 556 67 506 q 157 635 114 607 q 257 663 200 663 q 356 635 314 663 q 422 556 399 607 q 446 439 446 506 q 422 321 446 371 q 355 244 397 271 q 257 217 313 217 m 257 314 q 303 329 283 314 q 333 373 322 344 q 343 439 343 401 q 333 505 343 478 q 303 547 322 532 q 257 563 283 563 q 211 547 231 563 q 181 504 192 532 q 171 439 171 476 q 181 373 171 401 q 211 329 192 344 q 257 314 231 314 m 413 525 l 371 588 q 440 642 403 624 q 525 657 478 661 l 536 561 q 469 558 500 567 q 413 525 439 550 z "},"ḡ":{"ha":556,"x_min":36,"x_max":536,"o":"m 271 -243 q 172 -232 215 -243 q 97 -200 128 -221 q 51 -148 67 -179 q 36 -75 36 -117 q 49 -9 36 -39 q 85 42 63 21 q 133 75 107 64 l 190 46 q 161 16 174 31 q 142 -17 149 1 q 135 -58 135 -35 q 145 -95 135 -79 q 174 -122 156 -111 q 219 -137 193 -132 q 276 -142 244 -142 q 348 -131 319 -142 q 390 -100 376 -119 q 404 -56 404 -81 q 395 -12 404 -28 q 363 12 386 4 q 297 19 339 19 q 226 23 260 19 q 163 35 192 26 q 114 60 135 44 q 81 97 93 75 q 69 151 69 119 q 92 224 71 190 q 144 288 114 258 l 201 249 q 182 223 190 233 q 169 203 174 213 q 165 182 165 194 q 180 151 165 163 q 230 133 194 139 q 326 128 265 128 q 413 115 378 128 q 468 81 447 103 q 498 28 489 58 q 507 -40 507 -3 q 493 -117 507 -81 q 451 -181 479 -153 q 378 -226 424 -210 q 271 -243 333 -243 m 257 217 q 156 244 199 217 q 90 322 114 272 q 67 439 67 372 q 90 556 67 506 q 157 635 114 607 q 257 663 200 663 q 356 635 314 663 q 422 556 399 607 q 446 439 446 506 q 422 321 446 371 q 355 244 397 271 q 257 217 313 217 m 257 314 q 303 329 283 314 q 333 373 322 344 q 343 439 343 401 q 333 505 343 478 q 303 547 322 532 q 257 563 283 563 q 211 547 231 563 q 181 504 192 532 q 171 439 171 476 q 181 373 171 401 q 211 329 192 344 q 257 314 231 314 m 413 525 l 371 588 q 440 642 403 624 q 525 657 478 661 l 536 561 q 469 558 500 567 q 413 525 439 550 z "},"h":{"ha":556,"x_min":65,"x_max":497,"o":"m 65 926 l 181 926 l 194 926 l 194 915 q 184 897 186 907 q 182 864 182 888 l 182 547 q 226 609 201 585 q 280 646 251 633 q 339 658 308 658 q 424 632 389 658 q 478 547 460 606 q 497 392 497 489 l 497 0 l 381 0 l 381 389 q 372 485 381 449 q 347 537 363 521 q 306 553 331 553 q 269 544 288 553 q 235 521 251 536 q 208 483 219 506 q 189 432 196 461 q 182 368 182 403 l 182 0 l 65 0 l 65 926 z "},"ħ":{"ha":556,"x_min":-3,"x_max":497,"o":"m 65 926 l 181 926 l 194 926 l 194 915 q 184 897 186 907 q 182 864 182 888 l 182 547 q 226 609 201 585 q 280 646 251 633 q 339 658 308 658 q 424 632 389 658 q 478 547 460 606 q 497 392 497 489 l 497 0 l 381 0 l 381 389 q 372 485 381 449 q 347 537 363 521 q 306 553 331 553 q 269 544 288 553 q 235 521 251 536 q 208 483 219 506 q 189 432 196 461 q 182 368 182 403 l 182 0 l 65 0 l 65 926 m -3 719 l -3 815 l 301 815 l 301 719 l -3 719 z "},"ḫ":{"ha":556,"x_min":65,"x_max":497,"o":"m 65 926 l 181 926 l 194 926 l 194 915 q 184 897 186 907 q 182 864 182 888 l 182 547 q 226 609 201 585 q 280 646 251 633 q 339 658 308 658 q 424 632 389 658 q 478 547 460 606 q 497 392 497 489 l 497 0 l 381 0 l 381 389 q 372 485 381 449 q 347 537 363 521 q 306 553 331 553 q 269 544 288 553 q 235 521 251 536 q 208 483 219 506 q 189 432 196 461 q 182 368 182 403 l 182 0 l 65 0 l 65 926 z "},"ĥ":{"ha":556,"x_min":-57,"x_max":497,"o":"m 65 926 l 181 926 l 194 926 l 194 915 q 184 897 186 907 q 182 864 182 888 l 182 547 q 226 609 201 585 q 280 646 251 633 q 339 658 308 658 q 424 632 389 658 q 478 547 460 606 q 497 392 497 489 l 497 0 l 381 0 l 381 389 q 372 485 381 449 q 347 537 363 521 q 306 553 331 553 q 269 544 288 553 q 235 521 251 536 q 208 483 219 506 q 189 432 196 461 q 182 368 182 403 l 182 0 l 65 0 l 65 926 m -14 965 l -57 1029 l 115 1168 l 146 1168 l 318 1031 l 275 965 l 132 1060 l -14 965 z "},"ḥ":{"ha":556,"x_min":65,"x_max":497,"o":"m 65 926 l 181 926 l 194 926 l 194 915 q 184 897 186 907 q 182 864 182 888 l 182 547 q 226 609 201 585 q 280 646 251 633 q 339 658 308 658 q 424 632 389 658 q 478 547 460 606 q 497 392 497 489 l 497 0 l 381 0 l 381 389 q 372 485 381 449 q 347 537 363 521 q 306 553 331 553 q 269 544 288 553 q 235 521 251 536 q 208 483 219 506 q 189 432 196 461 q 182 368 182 403 l 182 0 l 65 0 l 65 926 z "},"i":{"ha":556,"x_min":96,"x_max":458,"o":"m 96 0 l 96 104 l 225 104 l 225 539 l 103 539 l 103 643 l 342 643 l 342 104 l 458 104 l 458 0 l 96 0 z "},"ı":{"ha":556,"x_min":96,"x_max":458,"o":"m 96 0 l 96 104 l 225 104 l 225 539 l 103 539 l 103 643 l 342 643 l 342 104 l 458 104 l 458 0 l 96 0 z "},"í":{"ha":556,"x_min":96,"x_max":458,"o":"m 96 0 l 96 104 l 225 104 l 225 539 l 103 539 l 103 643 l 342 643 l 342 104 l 458 104 l 458 0 l 96 0 m 276 717 l 211 753 l 306 975 l 400 917 l 276 717 z "},"ĭ":{"ha":556,"x_min":96,"x_max":458,"o":"m 96 0 l 96 104 l 225 104 l 225 539 l 103 539 l 103 643 l 342 643 l 342 104 l 458 104 l 458 0 l 96 0 m 364 913 l 443 876 q 375 779 418 813 q 278 746 332 746 q 181 779 225 746 q 111 876 138 813 l 190 911 q 228 846 207 868 q 278 824 249 824 q 314 834 299 824 q 342 865 329 844 q 364 913 356 885 z "},"î":{"ha":556,"x_min":96,"x_max":458,"o":"m 96 0 l 96 104 l 225 104 l 225 539 l 103 539 l 103 643 l 342 643 l 342 104 l 458 104 l 458 0 l 96 0 m 164 706 l 103 760 l 261 954 l 294 954 l 453 760 l 392 706 l 278 836 l 164 706 z "},"ȉ":{"ha":556,"x_min":71,"x_max":458,"o":"m 96 0 l 96 104 l 225 104 l 225 539 l 103 539 l 103 643 l 342 643 l 342 104 l 458 104 l 458 0 l 96 0 z "},"ï":{"ha":556,"x_min":96,"x_max":458,"o":"m 96 0 l 96 104 l 225 104 l 225 539 l 103 539 l 103 643 l 342 643 l 342 104 l 458 104 l 458 0 l 96 0 m 169 775 q 118 797 139 775 q 97 850 97 819 q 118 903 97 881 q 169 926 139 926 q 221 903 200 926 q 242 850 242 881 q 220 797 242 819 q 169 775 199 775 m 374 775 q 322 797 343 775 q 301 850 301 819 q 322 904 301 882 q 374 926 343 926 q 425 903 404 926 q 446 850 446 881 q 424 797 446 819 q 374 775 403 775 z "},"ḯ":{"ha":556,"x_min":96,"x_max":458,"o":"m 96 0 l 96 104 l 225 104 l 225 539 l 103 539 l 103 643 l 342 643 l 342 104 l 458 104 l 458 0 l 96 0 z "},"ị":{"ha":556,"x_min":96,"x_max":458,"o":"m 96 0 l 96 104 l 225 104 l 225 539 l 103 539 l 103 643 l 342 643 l 342 104 l 458 104 l 458 0 l 96 0 z "},"ì":{"ha":556,"x_min":96,"x_max":458,"o":"m 96 0 l 96 104 l 225 104 l 225 539 l 103 539 l 103 643 l 342 643 l 342 104 l 458 104 l 458 0 l 96 0 z "},"ỉ":{"ha":556,"x_min":96,"x_max":458,"o":"m 96 0 l 96 104 l 225 104 l 225 539 l 103 539 l 103 643 l 342 643 l 342 104 l 458 104 l 458 0 l 96 0 m 394 889 q 384 844 394 863 q 360 812 374 826 q 337 781 347 797 q 326 740 326 764 l 326 726 l 246 726 l 246 764 q 256 799 246 783 q 278 827 265 814 q 301 853 292 840 q 311 879 311 867 q 301 905 311 896 q 276 914 292 914 q 245 905 260 914 q 221 871 231 896 l 179 943 q 228 983 200 971 q 288 996 257 996 q 342 983 318 996 q 381 946 367 969 q 394 889 394 922 z "},"ȋ":{"ha":556,"x_min":96,"x_max":458,"o":"m 96 0 l 96 104 l 225 104 l 225 539 l 103 539 l 103 643 l 342 643 l 342 104 l 458 104 l 458 0 l 96 0 m 192 739 l 113 774 q 182 872 139 839 q 278 906 225 906 q 375 872 331 906 q 444 774 419 839 l 365 739 q 328 805 350 783 q 278 826 307 826 q 242 817 258 826 q 214 788 226 807 q 192 739 201 768 z "},"ī":{"ha":556,"x_min":96,"x_max":458,"o":"m 96 0 l 96 104 l 225 104 l 225 539 l 103 539 l 103 643 l 342 643 l 342 104 l 458 104 l 458 0 l 96 0 z "},"į":{"ha":556,"x_min":96,"x_max":458,"o":"m 96 0 l 96 104 l 225 104 l 225 539 l 103 539 l 103 643 l 342 643 l 342 104 l 458 104 l 458 0 l 96 0 m 446 -222 l 407 -325 q 331 -291 361 -312 q 283 -242 300 -269 q 267 -181 267 -214 q 284 -108 267 -144 q 334 -35 301 -71 q 414 33 367 1 l 457 0 q 412 -51 431 -25 q 383 -101 393 -78 q 374 -146 374 -125 q 392 -192 374 -172 q 446 -222 410 -212 z "},"ĩ":{"ha":556,"x_min":96,"x_max":458,"o":"m 96 0 l 96 104 l 225 104 l 225 539 l 103 539 l 103 643 l 342 643 l 342 104 l 458 104 l 458 0 l 96 0 m 382 933 l 446 901 q 402 824 428 851 q 346 796 376 796 q 306 807 324 796 q 275 832 289 818 q 249 856 261 846 q 226 867 238 867 q 200 852 211 867 q 181 814 189 838 l 115 846 q 158 924 129 894 q 217 953 186 953 q 257 942 239 953 q 290 917 275 932 q 317 892 304 903 q 340 882 329 882 q 363 895 353 882 q 382 933 372 908 z "},"j":{"ha":556,"x_min":42,"x_max":439,"o":"m 214 -243 q 119 -223 164 -243 q 42 -164 74 -203 l 101 -65 l 107 -54 l 117 -60 q 124 -82 121 -71 q 140 -110 126 -93 q 174 -128 156 -122 q 214 -135 192 -135 q 265 -117 244 -135 q 295 -65 285 -100 q 306 25 306 -29 l 306 538 l 119 538 l 119 643 l 424 643 l 424 35 q 395 -128 424 -68 q 319 -216 367 -189 q 214 -243 272 -243 l 214 -243 z "},"ȷ":{"ha":556,"x_min":42,"x_max":424,"o":"m 214 -243 q 119 -223 164 -243 q 42 -164 74 -203 l 101 -65 l 107 -54 l 117 -60 q 124 -82 121 -71 q 140 -110 126 -93 q 174 -128 156 -122 q 214 -135 192 -135 q 265 -117 244 -135 q 295 -65 285 -100 q 306 25 306 -29 l 306 538 l 119 538 l 119 643 l 424 643 l 424 35 q 395 -128 424 -68 q 319 -216 367 -189 q 214 -243 272 -243 l 214 -243 z "},"ĵ":{"ha":556,"x_min":42,"x_max":536,"o":"m 214 -243 q 119 -223 164 -243 q 42 -164 74 -203 l 101 -65 l 107 -54 l 117 -60 q 124 -82 121 -71 q 140 -110 126 -93 q 174 -128 156 -122 q 214 -135 192 -135 q 265 -117 244 -135 q 295 -65 285 -100 q 306 25 306 -29 l 306 538 l 119 538 l 119 643 l 424 643 l 424 35 q 395 -128 424 -68 q 319 -216 367 -189 q 214 -243 272 -243 l 214 -243 m 247 706 l 186 760 l 344 954 l 378 954 l 536 760 l 475 706 l 361 836 l 247 706 z "},"k":{"ha":556,"x_min":60,"x_max":540,"o":"m 225 292 l 178 232 l 178 0 l 60 0 l 60 926 l 176 926 l 189 926 l 189 915 q 180 897 182 907 q 178 864 178 888 l 178 376 l 390 647 q 408 643 399 644 q 426 641 417 642 q 447 640 436 640 q 464 639 457 639 l 511 639 l 307 375 l 540 0 l 408 -6 l 225 292 z "},"ķ":{"ha":556,"x_min":60,"x_max":540,"o":"m 225 292 l 178 232 l 178 0 l 60 0 l 60 926 l 176 926 l 189 926 l 189 915 q 180 897 182 907 q 178 864 178 888 l 178 376 l 390 647 q 408 643 399 644 q 426 641 417 642 q 447 640 436 640 q 464 639 457 639 l 511 639 l 307 375 l 540 0 l 408 -6 l 225 292 m 260 -393 l 203 -346 q 249 -281 232 -314 q 267 -224 267 -247 q 255 -192 267 -207 q 231 -161 243 -178 q 218 -119 218 -144 q 240 -62 218 -83 q 293 -42 263 -42 q 351 -69 328 -42 q 375 -146 375 -97 q 363 -224 375 -183 q 324 -306 350 -264 q 260 -393 299 -347 z "},"ĸ":{"ha":556,"x_min":60,"x_max":540,"o":"m 225 292 l 178 232 l 178 0 l 60 0 l 60 643 l 176 643 l 189 643 l 189 632 q 180 614 182 624 q 178 581 178 604 l 178 376 l 390 647 q 408 643 399 644 q 426 641 417 642 q 447 640 436 640 q 464 639 457 639 l 511 639 l 307 375 l 540 0 l 408 -6 l 225 292 z "},"l":{"ha":556,"x_min":75,"x_max":482,"o":"m 75 0 l 75 104 l 221 104 l 221 822 l 82 822 l 82 926 l 338 926 l 338 104 l 482 104 l 482 0 l 75 0 z "},"ĺ":{"ha":556,"x_min":75,"x_max":482,"o":"m 75 0 l 75 104 l 221 104 l 221 822 l 82 822 l 82 926 l 338 926 l 338 104 l 482 104 l 482 0 l 75 0 z "},"ľ":{"ha":556,"x_min":75,"x_max":532,"o":"m 75 0 l 75 104 l 221 104 l 221 822 l 82 822 l 82 926 l 338 926 l 338 104 l 482 104 l 482 0 l 75 0 m 426 615 l 368 664 q 401 706 386 685 q 424 748 415 728 q 432 782 432 768 q 426 802 432 793 q 411 820 419 811 q 397 841 403 829 q 390 868 390 853 q 410 924 390 903 q 458 944 429 944 q 510 919 488 944 q 532 844 532 893 q 520 775 532 811 q 485 699 508 739 q 426 615 463 660 z "},"ļ":{"ha":556,"x_min":75,"x_max":482,"o":"m 75 0 l 75 104 l 221 104 l 221 822 l 82 822 l 82 926 l 338 926 l 338 104 l 482 104 l 482 0 l 75 0 m 261 -393 l 204 -346 q 251 -281 233 -314 q 268 -224 268 -247 q 256 -192 268 -207 q 232 -161 244 -178 q 219 -119 219 -144 q 242 -62 219 -83 q 294 -42 264 -42 q 353 -69 329 -42 q 376 -146 376 -97 q 364 -224 376 -183 q 326 -306 351 -264 q 261 -393 300 -347 z "},"ŀ":{"ha":556,"x_min":68,"x_max":521,"o":"m 68 0 l 68 104 l 188 104 l 188 825 l 75 825 l 75 929 l 306 929 l 306 104 l 467 104 l 467 0 l 68 0 m 436 378 q 377 402 401 378 q 353 463 353 426 q 378 522 353 497 q 436 547 403 547 q 496 522 471 547 q 521 463 521 497 q 496 403 521 428 q 436 378 471 378 z "},"ḷ":{"ha":556,"x_min":75,"x_max":482,"o":"m 75 0 l 75 104 l 221 104 l 221 822 l 82 822 l 82 926 l 338 926 l 338 104 l 482 104 l 482 0 l 75 0 z "},"ǉ":{"ha":556,"x_min":24,"x_max":508,"o":"m 285 -243 q 205 -225 242 -243 q 142 -175 168 -207 l 200 -67 q 208 -76 207 -71 q 211 -88 210 -82 q 219 -103 213 -94 q 244 -121 226 -111 q 265 -130 254 -126 q 288 -133 275 -133 q 338 -118 317 -133 q 370 -67 358 -103 q 382 25 382 -32 l 382 538 l 256 538 l 256 643 l 497 643 l 497 31 q 481 -97 497 -44 q 436 -181 465 -149 q 369 -228 407 -212 q 285 -243 331 -243 m 24 0 l 24 104 l 85 104 l 85 825 l 31 825 l 31 929 l 199 929 l 199 104 l 313 104 l 313 0 l 24 0 m 431 765 q 376 788 399 765 q 354 842 354 811 q 376 898 354 875 q 431 921 397 921 q 485 897 463 921 q 508 843 508 874 q 485 788 508 811 q 431 765 463 765 z "},"ḻ":{"ha":556,"x_min":75,"x_max":482,"o":"m 75 0 l 75 104 l 221 104 l 221 822 l 82 822 l 82 926 l 338 926 l 338 104 l 482 104 l 482 0 l 75 0 z "},"ł":{"ha":556,"x_min":79,"x_max":478,"o":"m 79 0 l 79 104 l 219 104 l 219 364 l 140 328 l 140 454 l 219 490 l 219 822 l 86 822 l 86 926 l 338 926 l 338 538 l 429 579 l 429 450 l 338 410 l 338 104 l 478 104 l 478 0 l 79 0 z "},"m":{"ha":556,"x_min":36,"x_max":529,"o":"m 36 0 l 36 643 l 135 643 l 135 586 q 161 624 147 608 q 192 649 175 640 q 226 658 208 658 q 265 648 247 658 q 294 618 282 638 q 313 571 307 599 q 340 617 324 597 q 377 647 356 636 q 424 658 399 658 q 470 646 450 658 q 503 610 490 633 q 523 556 517 588 q 528 483 529 524 l 528 0 l 425 0 l 425 451 q 422 523 425 499 q 410 556 418 547 q 392 564 403 564 q 361 544 375 564 q 339 493 347 525 q 331 422 331 461 l 331 0 l 233 0 l 233 444 q 226 539 233 515 q 194 563 218 563 q 175 554 185 563 q 157 528 165 546 q 144 486 149 511 q 139 428 139 461 l 139 0 l 36 0 z "},"ṃ":{"ha":556,"x_min":36,"x_max":529,"o":"m 36 0 l 36 643 l 135 643 l 135 586 q 161 624 147 608 q 192 649 175 640 q 226 658 208 658 q 265 648 247 658 q 294 618 282 638 q 313 571 307 599 q 340 617 324 597 q 377 647 356 636 q 424 658 399 658 q 470 646 450 658 q 503 610 490 633 q 523 556 517 588 q 528 483 529 524 l 528 0 l 425 0 l 425 451 q 422 523 425 499 q 410 556 418 547 q 392 564 403 564 q 361 544 375 564 q 339 493 347 525 q 331 422 331 461 l 331 0 l 233 0 l 233 444 q 226 539 233 515 q 194 563 218 563 q 175 554 185 563 q 157 528 165 546 q 144 486 149 511 q 139 428 139 461 l 139 0 l 36 0 z "},"n":{"ha":556,"x_min":65,"x_max":496,"o":"m 65 0 l 65 643 l 182 643 l 182 546 q 224 606 200 581 q 276 644 247 631 q 338 658 304 658 q 419 634 383 658 q 475 553 454 610 q 496 397 496 497 l 496 0 l 381 0 l 381 394 q 372 486 381 451 q 345 537 363 521 q 304 553 328 553 q 260 541 282 553 q 221 506 239 529 q 192 451 203 483 q 182 379 182 419 l 182 0 l 65 0 z "},"ń":{"ha":556,"x_min":65,"x_max":496,"o":"m 65 0 l 65 643 l 182 643 l 182 546 q 224 606 200 581 q 276 644 247 631 q 338 658 304 658 q 419 634 383 658 q 475 553 454 610 q 496 397 496 497 l 496 0 l 381 0 l 381 394 q 372 486 381 451 q 345 537 363 521 q 304 553 328 553 q 260 541 282 553 q 221 506 239 529 q 192 451 203 483 q 182 379 182 419 l 182 0 l 65 0 z "},"ň":{"ha":556,"x_min":65,"x_max":496,"o":"m 65 0 l 65 643 l 182 643 l 182 546 q 224 606 200 581 q 276 644 247 631 q 338 658 304 658 q 419 634 383 658 q 475 553 454 610 q 496 397 496 497 l 496 0 l 381 0 l 381 394 q 372 486 381 451 q 345 537 363 521 q 304 553 328 553 q 260 541 282 553 q 221 506 239 529 q 192 451 203 483 q 182 379 182 419 l 182 0 l 65 0 m 176 963 l 290 831 l 406 963 l 465 907 l 307 713 l 274 713 l 115 907 l 176 963 z "},"ņ":{"ha":556,"x_min":65,"x_max":496,"o":"m 65 0 l 65 643 l 182 643 l 182 546 q 224 606 200 581 q 276 644 247 631 q 338 658 304 658 q 419 634 383 658 q 475 553 454 610 q 496 397 496 497 l 496 0 l 381 0 l 381 394 q 372 486 381 451 q 345 537 363 521 q 304 553 328 553 q 260 541 282 553 q 221 506 239 529 q 192 451 203 483 q 182 379 182 419 l 182 0 l 65 0 m 271 -393 l 214 -346 q 260 -281 243 -314 q 278 -224 278 -247 q 266 -192 278 -207 q 242 -161 254 -178 q 229 -119 229 -144 q 251 -62 229 -83 q 304 -42 274 -42 q 363 -69 339 -42 q 386 -146 386 -97 q 374 -224 386 -183 q 335 -306 361 -264 q 271 -393 310 -347 z "},"ṅ":{"ha":556,"x_min":65,"x_max":496,"o":"m 65 0 l 65 643 l 182 643 l 182 546 q 224 606 200 581 q 276 644 247 631 q 338 658 304 658 q 419 634 383 658 q 475 553 454 610 q 496 397 496 497 l 496 0 l 381 0 l 381 394 q 372 486 381 451 q 345 537 363 521 q 304 553 328 553 q 260 541 282 553 q 221 506 239 529 q 192 451 203 483 q 182 379 182 419 l 182 0 l 65 0 z "},"ṇ":{"ha":556,"x_min":65,"x_max":496,"o":"m 65 0 l 65 643 l 182 643 l 182 546 q 224 606 200 581 q 276 644 247 631 q 338 658 304 658 q 419 634 383 658 q 475 553 454 610 q 496 397 496 497 l 496 0 l 381 0 l 381 394 q 372 486 381 451 q 345 537 363 521 q 304 553 328 553 q 260 541 282 553 q 221 506 239 529 q 192 451 203 483 q 182 379 182 419 l 182 0 l 65 0 z "},"ŋ":{"ha":556,"x_min":63,"x_max":497,"o":"m 294 -246 q 231 -233 264 -246 q 172 -197 199 -221 l 217 -90 q 226 -99 222 -92 q 234 -113 229 -106 q 252 -128 239 -121 q 289 -135 265 -135 q 342 -113 322 -135 q 372 -48 363 -92 q 382 61 382 -4 l 382 386 q 376 465 382 433 q 360 515 371 496 q 334 542 349 533 q 303 550 319 550 q 265 542 283 550 q 232 518 247 533 q 205 481 217 503 q 187 431 193 458 q 181 369 181 403 l 181 0 l 63 0 l 63 643 l 181 643 l 181 546 q 210 593 194 572 q 247 628 226 614 q 288 649 267 642 q 335 657 310 657 q 398 643 368 657 q 450 599 428 629 q 485 516 472 568 q 497 388 497 464 l 497 76 q 482 -72 497 -11 q 440 -172 467 -133 q 375 -228 413 -210 q 294 -246 338 -246 z "},"ṉ":{"ha":556,"x_min":65,"x_max":496,"o":"m 65 0 l 65 643 l 182 643 l 182 546 q 224 606 200 581 q 276 644 247 631 q 338 658 304 658 q 419 634 383 658 q 475 553 454 610 q 496 397 496 497 l 496 0 l 381 0 l 381 394 q 372 486 381 451 q 345 537 363 521 q 304 553 328 553 q 260 541 282 553 q 221 506 239 529 q 192 451 203 483 q 182 379 182 419 l 182 0 l 65 0 z "},"ñ":{"ha":556,"x_min":65,"x_max":496,"o":"m 65 0 l 65 643 l 182 643 l 182 546 q 224 606 200 581 q 276 644 247 631 q 338 658 304 658 q 419 634 383 658 q 475 553 454 610 q 496 397 496 497 l 496 0 l 381 0 l 381 394 q 372 486 381 451 q 345 537 363 521 q 304 553 328 553 q 260 541 282 553 q 221 506 239 529 q 192 451 203 483 q 182 379 182 419 l 182 0 l 65 0 m 418 933 l 483 894 q 436 816 463 844 q 374 788 410 788 q 324 799 344 788 q 288 825 303 810 q 260 851 274 840 q 232 863 247 863 q 201 848 214 863 q 176 804 188 833 l 103 836 q 151 919 121 889 q 226 950 182 950 q 273 939 253 950 q 308 913 293 928 q 337 888 322 899 q 367 876 351 876 q 395 891 385 876 q 418 933 406 906 z "},"o":{"ha":556,"x_min":35,"x_max":521,"o":"m 278 -12 q 153 25 208 -12 q 67 137 99 63 q 35 319 35 211 q 67 506 35 431 q 153 619 99 581 q 278 657 208 657 q 403 619 349 657 q 490 506 458 581 q 521 319 521 431 q 490 137 521 211 q 403 25 458 63 q 278 -12 349 -12 m 278 93 q 344 119 317 93 q 387 197 371 146 q 403 321 403 247 q 387 449 403 397 q 344 526 371 500 q 278 551 317 551 q 213 526 242 551 q 169 449 185 500 q 154 321 154 397 q 169 197 154 247 q 213 119 185 146 q 278 93 240 93 z "},"ó":{"ha":556,"x_min":35,"x_max":521,"o":"m 278 -12 q 153 25 208 -12 q 67 137 99 63 q 35 319 35 211 q 67 506 35 431 q 153 619 99 581 q 278 657 208 657 q 403 619 349 657 q 490 506 458 581 q 521 319 521 431 q 490 137 521 211 q 403 25 458 63 q 278 -12 349 -12 m 278 93 q 344 119 317 93 q 387 197 371 146 q 403 321 403 247 q 387 449 403 397 q 344 526 371 500 q 278 551 317 551 q 213 526 242 551 q 169 449 185 500 q 154 321 154 397 q 169 197 154 247 q 213 119 185 146 q 278 93 240 93 z "},"ŏ":{"ha":556,"x_min":35,"x_max":521,"o":"m 278 -12 q 153 25 208 -12 q 67 137 99 63 q 35 319 35 211 q 67 506 35 431 q 153 619 99 581 q 278 657 208 657 q 403 619 349 657 q 490 506 458 581 q 521 319 521 431 q 490 137 521 211 q 403 25 458 63 q 278 -12 349 -12 m 278 93 q 344 119 317 93 q 387 197 371 146 q 403 321 403 247 q 387 449 403 397 q 344 526 371 500 q 278 551 317 551 q 213 526 242 551 q 169 449 185 500 q 154 321 154 397 q 169 197 154 247 q 213 119 185 146 q 278 93 240 93 m 364 910 l 443 874 q 375 776 418 810 q 278 743 332 743 q 181 776 225 743 q 111 874 138 810 l 190 908 q 228 843 207 865 q 278 821 249 821 q 314 831 299 821 q 342 862 329 842 q 364 910 356 882 z "},"ô":{"ha":556,"x_min":35,"x_max":521,"o":"m 278 -12 q 153 25 208 -12 q 67 137 99 63 q 35 319 35 211 q 67 506 35 431 q 153 619 99 581 q 278 657 208 657 q 403 619 349 657 q 490 506 458 581 q 521 319 521 431 q 490 137 521 211 q 403 25 458 63 q 278 -12 349 -12 m 278 93 q 344 119 317 93 q 387 197 371 146 q 403 321 403 247 q 387 449 403 397 q 344 526 371 500 q 278 551 317 551 q 213 526 242 551 q 169 449 185 500 q 154 321 154 397 q 169 197 154 247 q 213 119 185 146 q 278 93 240 93 m 164 703 l 103 757 l 261 951 l 294 951 l 453 757 l 392 703 l 278 833 l 164 703 z "},"ố":{"ha":556,"x_min":35,"x_max":558,"o":"m 278 -12 q 153 25 208 -12 q 67 137 99 63 q 35 319 35 211 q 67 506 35 431 q 153 619 99 581 q 278 657 208 657 q 403 619 349 657 q 490 506 458 581 q 521 319 521 431 q 490 137 521 211 q 403 25 458 63 q 278 -12 349 -12 m 278 93 q 344 119 317 93 q 387 197 371 146 q 403 321 403 247 q 387 449 403 397 q 344 526 371 500 q 278 551 317 551 q 213 526 242 551 q 169 449 185 500 q 154 321 154 397 q 169 197 154 247 q 213 119 185 146 q 278 93 240 93 z "},"ộ":{"ha":556,"x_min":35,"x_max":521,"o":"m 278 -12 q 153 25 208 -12 q 67 137 99 63 q 35 319 35 211 q 67 506 35 431 q 153 619 99 581 q 278 657 208 657 q 403 619 349 657 q 490 506 458 581 q 521 319 521 431 q 490 137 521 211 q 403 25 458 63 q 278 -12 349 -12 m 278 93 q 344 119 317 93 q 387 197 371 146 q 403 321 403 247 q 387 449 403 397 q 344 526 371 500 q 278 551 317 551 q 213 526 242 551 q 169 449 185 500 q 154 321 154 397 q 169 197 154 247 q 213 119 185 146 q 278 93 240 93 m 164 703 l 103 757 l 261 951 l 294 951 l 453 757 l 392 703 l 278 833 l 164 703 z "},"ồ":{"ha":556,"x_min":35,"x_max":521,"o":"m 278 -12 q 153 25 208 -12 q 67 137 99 63 q 35 319 35 211 q 67 506 35 431 q 153 619 99 581 q 278 657 208 657 q 403 619 349 657 q 490 506 458 581 q 521 319 521 431 q 490 137 521 211 q 403 25 458 63 q 278 -12 349 -12 m 278 93 q 344 119 317 93 q 387 197 371 146 q 403 321 403 247 q 387 449 403 397 q 344 526 371 500 q 278 551 317 551 q 213 526 242 551 q 169 449 185 500 q 154 321 154 397 q 169 197 154 247 q 213 119 185 146 q 278 93 240 93 z "},"ổ":{"ha":556,"x_min":35,"x_max":533,"o":"m 278 -12 q 153 25 208 -12 q 67 137 99 63 q 35 319 35 211 q 67 506 35 431 q 153 619 99 581 q 278 657 208 657 q 403 619 349 657 q 490 506 458 581 q 521 319 521 431 q 490 137 521 211 q 403 25 458 63 q 278 -12 349 -12 m 278 93 q 344 119 317 93 q 387 197 371 146 q 403 321 403 247 q 387 449 403 397 q 344 526 371 500 q 278 551 317 551 q 213 526 242 551 q 169 449 185 500 q 154 321 154 397 q 169 197 154 247 q 213 119 185 146 q 278 93 240 93 z "},"ỗ":{"ha":556,"x_min":35,"x_max":521,"o":"m 278 -12 q 153 25 208 -12 q 67 137 99 63 q 35 319 35 211 q 67 506 35 431 q 153 619 99 581 q 278 657 208 657 q 403 619 349 657 q 490 506 458 581 q 521 319 521 431 q 490 137 521 211 q 403 25 458 63 q 278 -12 349 -12 m 278 93 q 344 119 317 93 q 387 197 371 146 q 403 321 403 247 q 387 449 403 397 q 344 526 371 500 q 278 551 317 551 q 213 526 242 551 q 169 449 185 500 q 154 321 154 397 q 169 197 154 247 q 213 119 185 146 q 278 93 240 93 z "},"ȍ":{"ha":556,"x_min":35,"x_max":521,"o":"m 278 -12 q 153 25 208 -12 q 67 137 99 63 q 35 319 35 211 q 67 506 35 431 q 153 619 99 581 q 278 657 208 657 q 403 619 349 657 q 490 506 458 581 q 521 319 521 431 q 490 137 521 211 q 403 25 458 63 q 278 -12 349 -12 m 278 93 q 344 119 317 93 q 387 197 371 146 q 403 321 403 247 q 387 449 403 397 q 344 526 371 500 q 278 551 317 551 q 213 526 242 551 q 169 449 185 500 q 154 321 154 397 q 169 197 154 247 q 213 119 185 146 q 278 93 240 93 z "},"ö":{"ha":556,"x_min":35,"x_max":521,"o":"m 278 -12 q 153 25 208 -12 q 67 137 99 63 q 35 319 35 211 q 67 506 35 431 q 153 619 99 581 q 278 657 208 657 q 403 619 349 657 q 490 506 458 581 q 521 319 521 431 q 490 137 521 211 q 403 25 458 63 q 278 -12 349 -12 m 278 93 q 344 119 317 93 q 387 197 371 146 q 403 321 403 247 q 387 449 403 397 q 344 526 371 500 q 278 551 317 551 q 213 526 242 551 q 169 449 185 500 q 154 321 154 397 q 169 197 154 247 q 213 119 185 146 q 278 93 240 93 z "},"ȫ":{"ha":556,"x_min":35,"x_max":521,"o":"m 278 -12 q 153 25 208 -12 q 67 137 99 63 q 35 319 35 211 q 67 506 35 431 q 153 619 99 581 q 278 657 208 657 q 403 619 349 657 q 490 506 458 581 q 521 319 521 431 q 490 137 521 211 q 403 25 458 63 q 278 -12 349 -12 m 278 93 q 344 119 317 93 q 387 197 371 146 q 403 321 403 247 q 387 449 403 397 q 344 526 371 500 q 278 551 317 551 q 213 526 242 551 q 169 449 185 500 q 154 321 154 397 q 169 197 154 247 q 213 119 185 146 q 278 93 240 93 z "},"ȱ":{"ha":556,"x_min":35,"x_max":521,"o":"m 278 -12 q 153 25 208 -12 q 67 137 99 63 q 35 319 35 211 q 67 506 35 431 q 153 619 99 581 q 278 657 208 657 q 403 619 349 657 q 490 506 458 581 q 521 319 521 431 q 490 137 521 211 q 403 25 458 63 q 278 -12 349 -12 m 278 93 q 344 119 317 93 q 387 197 371 146 q 403 321 403 247 q 387 449 403 397 q 344 526 371 500 q 278 551 317 551 q 213 526 242 551 q 169 449 185 500 q 154 321 154 397 q 169 197 154 247 q 213 119 185 146 q 278 93 240 93 z "},"ọ":{"ha":556,"x_min":35,"x_max":521,"o":"m 278 -12 q 153 25 208 -12 q 67 137 99 63 q 35 319 35 211 q 67 506 35 431 q 153 619 99 581 q 278 657 208 657 q 403 619 349 657 q 490 506 458 581 q 521 319 521 431 q 490 137 521 211 q 403 25 458 63 q 278 -12 349 -12 m 278 93 q 344 119 317 93 q 387 197 371 146 q 403 321 403 247 q 387 449 403 397 q 344 526 371 500 q 278 551 317 551 q 213 526 242 551 q 169 449 185 500 q 154 321 154 397 q 169 197 154 247 q 213 119 185 146 q 278 93 240 93 z "},"ò":{"ha":556,"x_min":35,"x_max":521,"o":"m 278 -12 q 153 25 208 -12 q 67 137 99 63 q 35 319 35 211 q 67 506 35 431 q 153 619 99 581 q 278 657 208 657 q 403 619 349 657 q 490 506 458 581 q 521 319 521 431 q 490 137 521 211 q 403 25 458 63 q 278 -12 349 -12 m 278 93 q 344 119 317 93 q 387 197 371 146 q 403 321 403 247 q 387 449 403 397 q 344 526 371 500 q 278 551 317 551 q 213 526 242 551 q 169 449 185 500 q 154 321 154 397 q 169 197 154 247 q 213 119 185 146 q 278 93 240 93 z "},"ỏ":{"ha":556,"x_min":35,"x_max":521,"o":"m 278 -12 q 153 25 208 -12 q 67 137 99 63 q 35 319 35 211 q 67 506 35 431 q 153 619 99 581 q 278 657 208 657 q 403 619 349 657 q 490 506 458 581 q 521 319 521 431 q 490 137 521 211 q 403 25 458 63 q 278 -12 349 -12 m 278 93 q 344 119 317 93 q 387 197 371 146 q 403 321 403 247 q 387 449 403 397 q 344 526 371 500 q 278 551 317 551 q 213 526 242 551 q 169 449 185 500 q 154 321 154 397 q 169 197 154 247 q 213 119 185 146 q 278 93 240 93 m 394 886 q 384 842 394 860 q 360 809 374 824 q 337 778 347 794 q 326 738 326 761 l 326 724 l 246 724 l 246 761 q 256 796 246 781 q 278 824 265 811 q 301 851 292 838 q 311 876 311 864 q 301 902 311 893 q 276 911 292 911 q 245 902 260 911 q 221 868 231 893 l 179 940 q 228 981 200 968 q 288 993 257 993 q 342 980 318 993 q 381 943 367 967 q 394 886 394 919 z "},"ơ":{"ha":556,"x_min":35,"x_max":521,"o":"m 278 -12 q 153 25 208 -12 q 67 137 99 63 q 35 319 35 211 q 67 506 35 431 q 153 619 99 581 q 278 657 208 657 q 403 619 349 657 q 490 506 458 581 q 521 319 521 431 q 490 137 521 211 q 403 25 458 63 q 278 -12 349 -12 m 278 93 q 344 119 317 93 q 387 197 371 146 q 403 321 403 247 q 387 449 403 397 q 344 526 371 500 q 278 551 317 551 q 213 526 242 551 q 169 449 185 500 q 154 321 154 397 q 169 197 154 247 q 213 119 185 146 q 278 93 240 93 m 511 732 q 500 608 511 653 q 464 546 489 564 q 396 528 439 528 l 392 610 q 415 635 408 610 q 422 732 422 661 l 511 732 z "},"ớ":{"ha":556,"x_min":35,"x_max":521,"o":"m 278 -12 q 153 25 208 -12 q 67 137 99 63 q 35 319 35 211 q 67 506 35 431 q 153 619 99 581 q 278 657 208 657 q 403 619 349 657 q 490 506 458 581 q 521 319 521 431 q 490 137 521 211 q 403 25 458 63 q 278 -12 349 -12 m 278 93 q 344 119 317 93 q 387 197 371 146 q 403 321 403 247 q 387 449 403 397 q 344 526 371 500 q 278 551 317 551 q 213 526 242 551 q 169 449 185 500 q 154 321 154 397 q 169 197 154 247 q 213 119 185 146 q 278 93 240 93 m 511 732 q 500 608 511 653 q 464 546 489 564 q 396 528 439 528 l 392 610 q 415 635 408 610 q 422 732 422 661 l 511 732 z "},"ợ":{"ha":556,"x_min":35,"x_max":521,"o":"m 278 -12 q 153 25 208 -12 q 67 137 99 63 q 35 319 35 211 q 67 506 35 431 q 153 619 99 581 q 278 657 208 657 q 403 619 349 657 q 490 506 458 581 q 521 319 521 431 q 490 137 521 211 q 403 25 458 63 q 278 -12 349 -12 m 278 93 q 344 119 317 93 q 387 197 371 146 q 403 321 403 247 q 387 449 403 397 q 344 526 371 500 q 278 551 317 551 q 213 526 242 551 q 169 449 185 500 q 154 321 154 397 q 169 197 154 247 q 213 119 185 146 q 278 93 240 93 m 511 732 q 500 608 511 653 q 464 546 489 564 q 396 528 439 528 l 392 610 q 415 635 408 610 q 422 732 422 661 l 511 732 z "},"ờ":{"ha":556,"x_min":35,"x_max":521,"o":"m 278 -12 q 153 25 208 -12 q 67 137 99 63 q 35 319 35 211 q 67 506 35 431 q 153 619 99 581 q 278 657 208 657 q 403 619 349 657 q 490 506 458 581 q 521 319 521 431 q 490 137 521 211 q 403 25 458 63 q 278 -12 349 -12 m 278 93 q 344 119 317 93 q 387 197 371 146 q 403 321 403 247 q 387 449 403 397 q 344 526 371 500 q 278 551 317 551 q 213 526 242 551 q 169 449 185 500 q 154 321 154 397 q 169 197 154 247 q 213 119 185 146 q 278 93 240 93 m 511 732 q 500 608 511 653 q 464 546 489 564 q 396 528 439 528 l 392 610 q 415 635 408 610 q 422 732 422 661 l 511 732 z "},"ở":{"ha":556,"x_min":35,"x_max":521,"o":"m 278 -12 q 153 25 208 -12 q 67 137 99 63 q 35 319 35 211 q 67 506 35 431 q 153 619 99 581 q 278 657 208 657 q 403 619 349 657 q 490 506 458 581 q 521 319 521 431 q 490 137 521 211 q 403 25 458 63 q 278 -12 349 -12 m 278 93 q 344 119 317 93 q 387 197 371 146 q 403 321 403 247 q 387 449 403 397 q 344 526 371 500 q 278 551 317 551 q 213 526 242 551 q 169 449 185 500 q 154 321 154 397 q 169 197 154 247 q 213 119 185 146 q 278 93 240 93 m 511 732 q 500 608 511 653 q 464 546 489 564 q 396 528 439 528 l 392 610 q 415 635 408 610 q 422 732 422 661 l 511 732 m 394 886 q 384 842 394 860 q 360 809 374 824 q 337 778 347 794 q 326 738 326 761 l 326 724 l 246 724 l 246 761 q 256 796 246 781 q 278 824 265 811 q 301 851 292 838 q 311 876 311 864 q 301 902 311 893 q 276 911 292 911 q 245 902 260 911 q 221 868 231 893 l 179 940 q 228 981 200 968 q 288 993 257 993 q 342 980 318 993 q 381 943 367 967 q 394 886 394 919 z "},"ỡ":{"ha":556,"x_min":35,"x_max":521,"o":"m 278 -12 q 153 25 208 -12 q 67 137 99 63 q 35 319 35 211 q 67 506 35 431 q 153 619 99 581 q 278 657 208 657 q 403 619 349 657 q 490 506 458 581 q 521 319 521 431 q 490 137 521 211 q 403 25 458 63 q 278 -12 349 -12 m 278 93 q 344 119 317 93 q 387 197 371 146 q 403 321 403 247 q 387 449 403 397 q 344 526 371 500 q 278 551 317 551 q 213 526 242 551 q 169 449 185 500 q 154 321 154 397 q 169 197 154 247 q 213 119 185 146 q 278 93 240 93 m 511 732 q 500 608 511 653 q 464 546 489 564 q 396 528 439 528 l 392 610 q 415 635 408 610 q 422 732 422 661 l 511 732 m 404 933 l 469 894 q 422 816 449 844 q 360 788 396 788 q 310 799 331 788 q 274 825 289 810 q 247 851 260 840 q 218 863 233 863 q 187 848 200 863 q 163 804 174 833 l 89 836 q 138 919 107 889 q 213 950 168 950 q 259 939 239 950 q 294 913 279 928 q 323 888 308 899 q 353 876 338 876 q 381 891 371 876 q 404 933 392 906 z "},"ő":{"ha":556,"x_min":35,"x_max":521,"o":"m 278 -12 q 153 25 208 -12 q 67 137 99 63 q 35 319 35 211 q 67 506 35 431 q 153 619 99 581 q 278 657 208 657 q 403 619 349 657 q 490 506 458 581 q 521 319 521 431 q 490 137 521 211 q 403 25 458 63 q 278 -12 349 -12 m 278 93 q 344 119 317 93 q 387 197 371 146 q 403 321 403 247 q 387 449 403 397 q 344 526 371 500 q 278 551 317 551 q 213 526 242 551 q 169 449 185 500 q 154 321 154 397 q 169 197 154 247 q 213 119 185 146 q 278 93 240 93 z "},"ȏ":{"ha":556,"x_min":35,"x_max":521,"o":"m 278 -12 q 153 25 208 -12 q 67 137 99 63 q 35 319 35 211 q 67 506 35 431 q 153 619 99 581 q 278 657 208 657 q 403 619 349 657 q 490 506 458 581 q 521 319 521 431 q 490 137 521 211 q 403 25 458 63 q 278 -12 349 -12 m 278 93 q 344 119 317 93 q 387 197 371 146 q 403 321 403 247 q 387 449 403 397 q 344 526 371 500 q 278 551 317 551 q 213 526 242 551 q 169 449 185 500 q 154 321 154 397 q 169 197 154 247 q 213 119 185 146 q 278 93 240 93 m 192 736 l 113 771 q 182 869 139 836 q 278 903 225 903 q 375 869 331 903 q 444 771 419 836 l 365 736 q 328 802 350 781 q 278 824 307 824 q 242 814 258 824 q 214 785 226 804 q 192 736 201 765 z "},"ō":{"ha":556,"x_min":35,"x_max":521,"o":"m 278 -12 q 153 25 208 -12 q 67 137 99 63 q 35 319 35 211 q 67 506 35 431 q 153 619 99 581 q 278 657 208 657 q 403 619 349 657 q 490 506 458 581 q 521 319 521 431 q 490 137 521 211 q 403 25 458 63 q 278 -12 349 -12 m 278 93 q 344 119 317 93 q 387 197 371 146 q 403 321 403 247 q 387 449 403 397 q 344 526 371 500 q 278 551 317 551 q 213 526 242 551 q 169 449 185 500 q 154 321 154 397 q 169 197 154 247 q 213 119 185 146 q 278 93 240 93 z "},"ṓ":{"ha":556,"x_min":35,"x_max":521,"o":"m 278 -12 q 153 25 208 -12 q 67 137 99 63 q 35 319 35 211 q 67 506 35 431 q 153 619 99 581 q 278 657 208 657 q 403 619 349 657 q 490 506 458 581 q 521 319 521 431 q 490 137 521 211 q 403 25 458 63 q 278 -12 349 -12 m 278 93 q 344 119 317 93 q 387 197 371 146 q 403 321 403 247 q 387 449 403 397 q 344 526 371 500 q 278 551 317 551 q 213 526 242 551 q 169 449 185 500 q 154 321 154 397 q 169 197 154 247 q 213 119 185 146 q 278 93 240 93 z "},"ṑ":{"ha":556,"x_min":35,"x_max":521,"o":"m 278 -12 q 153 25 208 -12 q 67 137 99 63 q 35 319 35 211 q 67 506 35 431 q 153 619 99 581 q 278 657 208 657 q 403 619 349 657 q 490 506 458 581 q 521 319 521 431 q 490 137 521 211 q 403 25 458 63 q 278 -12 349 -12 m 278 93 q 344 119 317 93 q 387 197 371 146 q 403 321 403 247 q 387 449 403 397 q 344 526 371 500 q 278 551 317 551 q 213 526 242 551 q 169 449 185 500 q 154 321 154 397 q 169 197 154 247 q 213 119 185 146 q 278 93 240 93 z "},"ǫ":{"ha":556,"x_min":35,"x_max":521,"o":"m 278 -12 q 153 25 208 -12 q 67 137 99 63 q 35 319 35 211 q 67 506 35 431 q 153 619 99 581 q 278 657 208 657 q 403 619 349 657 q 490 506 458 581 q 521 319 521 431 q 490 137 521 211 q 403 25 458 63 q 278 -12 349 -12 m 278 93 q 344 119 317 93 q 387 197 371 146 q 403 321 403 247 q 387 449 403 397 q 344 526 371 500 q 278 551 317 551 q 213 526 242 551 q 169 449 185 500 q 154 321 154 397 q 169 197 154 247 q 213 119 185 146 q 278 93 240 93 m 383 -200 l 344 -303 q 268 -269 299 -290 q 221 -219 238 -247 q 204 -158 204 -192 q 222 -85 204 -122 q 272 -12 239 -49 q 351 56 304 24 l 394 22 q 349 -29 368 -3 q 321 -79 331 -56 q 311 -124 311 -103 q 329 -170 311 -150 q 383 -200 347 -190 z "},"ø":{"ha":556,"x_min":35,"x_max":521,"o":"m 150 -82 l 67 -42 l 400 721 l 485 681 l 150 -82 m 278 -12 q 153 25 208 -12 q 67 137 99 63 q 35 319 35 211 q 67 506 35 431 q 153 619 99 581 q 278 657 208 657 q 403 619 349 657 q 490 506 458 581 q 521 319 521 431 q 490 137 521 211 q 403 25 458 63 q 278 -12 349 -12 m 278 93 q 344 119 317 93 q 387 197 371 146 q 403 321 403 247 q 387 449 403 397 q 344 526 371 500 q 278 551 317 551 q 213 526 242 551 q 169 449 185 500 q 154 321 154 397 q 169 197 154 247 q 213 119 185 146 q 278 93 240 93 z "},"ǿ":{"ha":556,"x_min":35,"x_max":521,"o":"m 150 -82 l 67 -42 l 400 721 l 485 681 l 150 -82 m 278 -12 q 153 25 208 -12 q 67 137 99 63 q 35 319 35 211 q 67 506 35 431 q 153 619 99 581 q 278 657 208 657 q 403 619 349 657 q 490 506 458 581 q 521 319 521 431 q 490 137 521 211 q 403 25 458 63 q 278 -12 349 -12 m 278 93 q 344 119 317 93 q 387 197 371 146 q 403 321 403 247 q 387 449 403 397 q 344 526 371 500 q 278 551 317 551 q 213 526 242 551 q 169 449 185 500 q 154 321 154 397 q 169 197 154 247 q 213 119 185 146 q 278 93 240 93 z "},"õ":{"ha":556,"x_min":35,"x_max":521,"o":"m 278 -12 q 153 25 208 -12 q 67 137 99 63 q 35 319 35 211 q 67 506 35 431 q 153 619 99 581 q 278 657 208 657 q 403 619 349 657 q 490 506 458 581 q 521 319 521 431 q 490 137 521 211 q 403 25 458 63 q 278 -12 349 -12 m 278 93 q 344 119 317 93 q 387 197 371 146 q 403 321 403 247 q 387 449 403 397 q 344 526 371 500 q 278 551 317 551 q 213 526 242 551 q 169 449 185 500 q 154 321 154 397 q 169 197 154 247 q 213 119 185 146 q 278 93 240 93 m 404 933 l 469 894 q 422 816 449 844 q 360 788 396 788 q 310 799 331 788 q 274 825 289 810 q 247 851 260 840 q 218 863 233 863 q 187 848 200 863 q 163 804 174 833 l 89 836 q 138 919 107 889 q 213 950 168 950 q 259 939 239 950 q 294 913 279 928 q 323 888 308 899 q 353 876 338 876 q 381 891 371 876 q 404 933 392 906 z "},"ṍ":{"ha":556,"x_min":35,"x_max":521,"o":"m 278 -12 q 153 25 208 -12 q 67 137 99 63 q 35 319 35 211 q 67 506 35 431 q 153 619 99 581 q 278 657 208 657 q 403 619 349 657 q 490 506 458 581 q 521 319 521 431 q 490 137 521 211 q 403 25 458 63 q 278 -12 349 -12 m 278 93 q 344 119 317 93 q 387 197 371 146 q 403 321 403 247 q 387 449 403 397 q 344 526 371 500 q 278 551 317 551 q 213 526 242 551 q 169 449 185 500 q 154 321 154 397 q 169 197 154 247 q 213 119 185 146 q 278 93 240 93 m 404 933 l 469 894 q 422 816 449 844 q 360 788 396 788 q 310 799 331 788 q 274 825 289 810 q 247 851 260 840 q 218 863 233 863 q 187 848 200 863 q 163 804 174 833 l 89 836 q 138 919 107 889 q 213 950 168 950 q 259 939 239 950 q 294 913 279 928 q 323 888 308 899 q 353 876 338 876 q 381 891 371 876 q 404 933 392 906 z "},"ṏ":{"ha":556,"x_min":35,"x_max":521,"o":"m 278 -12 q 153 25 208 -12 q 67 137 99 63 q 35 319 35 211 q 67 506 35 431 q 153 619 99 581 q 278 657 208 657 q 403 619 349 657 q 490 506 458 581 q 521 319 521 431 q 490 137 521 211 q 403 25 458 63 q 278 -12 349 -12 m 278 93 q 344 119 317 93 q 387 197 371 146 q 403 321 403 247 q 387 449 403 397 q 344 526 371 500 q 278 551 317 551 q 213 526 242 551 q 169 449 185 500 q 154 321 154 397 q 169 197 154 247 q 213 119 185 146 q 278 93 240 93 m 404 933 l 469 894 q 422 816 449 844 q 360 788 396 788 q 310 799 331 788 q 274 825 289 810 q 247 851 260 840 q 218 863 233 863 q 187 848 200 863 q 163 804 174 833 l 89 836 q 138 919 107 889 q 213 950 168 950 q 259 939 239 950 q 294 913 279 928 q 323 888 308 899 q 353 876 338 876 q 381 891 371 876 q 404 933 392 906 z "},"ȭ":{"ha":556,"x_min":35,"x_max":521,"o":"m 278 -12 q 153 25 208 -12 q 67 137 99 63 q 35 319 35 211 q 67 506 35 431 q 153 619 99 581 q 278 657 208 657 q 403 619 349 657 q 490 506 458 581 q 521 319 521 431 q 490 137 521 211 q 403 25 458 63 q 278 -12 349 -12 m 278 93 q 344 119 317 93 q 387 197 371 146 q 403 321 403 247 q 387 449 403 397 q 344 526 371 500 q 278 551 317 551 q 213 526 242 551 q 169 449 185 500 q 154 321 154 397 q 169 197 154 247 q 213 119 185 146 q 278 93 240 93 m 404 933 l 469 894 q 422 816 449 844 q 360 788 396 788 q 310 799 331 788 q 274 825 289 810 q 247 851 260 840 q 218 863 233 863 q 187 848 200 863 q 163 804 174 833 l 89 836 q 138 919 107 889 q 213 950 168 950 q 259 939 239 950 q 294 913 279 928 q 323 888 308 899 q 353 876 338 876 q 381 891 371 876 q 404 933 392 906 z "},"œ":{"ha":556,"x_min":7,"x_max":547,"o":"m 408 -17 q 340 -4 372 -17 q 283 33 308 8 q 233 -3 260 8 q 176 -15 207 -15 q 116 -1 146 -15 q 62 50 86 14 q 22 151 38 86 q 7 319 7 217 q 31 517 7 444 q 94 622 54 590 q 183 653 135 653 q 240 640 215 653 q 285 597 265 626 q 332 639 306 625 q 390 653 358 653 q 474 626 439 653 q 528 541 510 599 q 547 393 547 483 l 547 300 l 311 300 q 324 162 313 210 q 358 97 336 114 q 408 81 379 81 q 462 93 439 81 q 503 132 485 106 l 547 57 q 484 1 518 19 q 408 -17 450 -17 m 185 85 q 203 88 194 85 q 218 98 211 92 q 228 113 225 104 q 232 133 232 122 q 231 144 232 138 q 228 164 231 151 q 222 221 224 194 q 218 274 219 247 q 217 332 217 301 q 219 419 217 385 q 226 473 222 453 q 229 499 229 493 q 226 519 229 508 q 217 537 224 529 q 203 549 211 544 q 183 553 194 553 q 145 532 164 553 q 115 464 126 511 q 104 335 104 417 q 113 192 104 247 q 140 110 122 136 q 185 85 157 85 m 313 393 l 458 393 q 452 488 458 453 q 431 540 446 524 q 389 557 415 557 q 347 538 364 557 q 322 481 331 518 q 313 393 314 444 z "},"p":{"ha":556,"x_min":56,"x_max":524,"o":"m 56 -232 l 56 643 l 172 643 l 172 546 q 208 608 186 583 q 258 644 231 632 q 318 657 286 657 q 398 640 361 657 q 463 583 435 622 q 508 481 492 544 q 524 322 524 417 q 508 166 524 231 q 463 61 492 101 q 396 2 433 21 q 317 -17 358 -17 q 259 -7 286 -17 q 210 22 232 3 q 174 69 189 42 l 174 -232 l 56 -232 m 288 88 q 334 98 313 88 q 372 133 356 108 q 397 205 388 158 q 407 322 407 251 q 394 454 407 404 q 356 528 381 504 q 296 553 332 551 q 246 539 268 553 q 207 494 224 525 q 182 416 190 464 q 174 303 174 368 q 179 220 174 256 q 194 160 185 185 q 218 119 204 135 q 249 95 232 103 q 288 88 267 88 z "},"þ":{"ha":556,"x_min":56,"x_max":524,"o":"m 56 926 l 171 926 l 183 926 l 183 915 q 174 897 176 907 q 172 864 172 888 l 172 546 q 208 608 186 583 q 258 644 231 632 q 318 657 286 657 q 398 640 361 657 q 463 583 435 622 q 508 481 492 544 q 524 322 524 417 q 508 166 524 231 q 463 61 492 101 q 396 2 433 21 q 317 -17 358 -17 q 259 -7 286 -17 q 210 22 232 3 q 174 69 189 42 l 174 -232 l 56 -232 l 56 926 m 288 88 q 334 98 313 88 q 372 133 356 108 q 397 205 388 158 q 407 322 407 251 q 394 454 407 404 q 356 528 381 504 q 296 553 332 551 q 246 539 268 553 q 207 494 224 525 q 182 416 190 464 q 174 303 174 368 q 179 220 174 256 q 194 160 185 185 q 218 119 204 135 q 249 95 232 103 q 288 88 267 88 l 288 88 z "},"q":{"ha":556,"x_min":35,"x_max":503,"o":"m 386 -232 l 386 75 q 351 25 372 46 q 306 -5 331 4 q 250 -14 281 -14 q 160 9 200 -14 q 92 74 119 32 q 49 179 64 117 q 35 321 35 242 q 51 474 35 410 q 97 578 67 538 q 167 639 126 619 q 257 658 207 658 q 302 652 282 658 q 338 633 322 646 q 367 603 354 621 q 389 563 379 585 l 389 643 l 503 643 l 503 -232 l 386 -232 m 272 90 q 317 103 297 90 q 353 145 338 117 q 376 220 368 174 q 385 333 385 267 q 376 439 385 396 q 353 508 368 482 q 319 545 339 533 q 275 557 299 557 q 226 544 249 557 q 187 505 203 532 q 162 433 171 478 q 153 325 153 389 q 160 219 153 264 q 184 147 168 175 q 222 104 200 118 q 272 90 244 90 z "},"r":{"ha":556,"x_min":97,"x_max":519,"o":"m 97 643 l 219 643 l 217 471 l 204 488 q 226 560 210 529 q 267 614 243 592 q 319 647 290 636 q 376 658 347 658 q 457 638 422 657 q 519 583 492 619 l 471 482 l 467 469 l 456 474 q 448 497 451 485 q 428 526 444 510 q 397 544 413 538 q 363 550 381 550 q 310 539 336 550 q 263 503 283 528 q 229 438 242 478 q 217 339 217 397 l 217 -1 l 97 -1 l 97 643 z "},"ŕ":{"ha":556,"x_min":97,"x_max":519,"o":"m 97 643 l 219 643 l 217 471 l 204 488 q 226 560 210 529 q 267 614 243 592 q 319 647 290 636 q 376 658 347 658 q 457 638 422 657 q 519 583 492 619 l 471 482 l 467 469 l 456 474 q 448 497 451 485 q 428 526 444 510 q 397 544 413 538 q 363 550 381 550 q 310 539 336 550 q 263 503 283 528 q 229 438 242 478 q 217 339 217 397 l 217 -1 l 97 -1 l 97 643 z "},"ř":{"ha":556,"x_min":97,"x_max":519,"o":"m 97 643 l 219 643 l 217 471 l 204 488 q 226 560 210 529 q 267 614 243 592 q 319 647 290 636 q 376 658 347 658 q 457 638 422 657 q 519 583 492 619 l 471 482 l 467 469 l 456 474 q 448 497 451 485 q 428 526 444 510 q 397 544 413 538 q 363 550 381 550 q 310 539 336 550 q 263 503 283 528 q 229 438 242 478 q 217 339 217 397 l 217 -1 l 97 -1 l 97 643 m 203 963 l 317 831 l 432 963 l 492 907 l 333 713 l 300 713 l 142 907 l 203 963 z "},"ŗ":{"ha":556,"x_min":97,"x_max":519,"o":"m 97 643 l 219 643 l 217 471 l 204 488 q 226 560 210 529 q 267 614 243 592 q 319 647 290 636 q 376 658 347 658 q 457 638 422 657 q 519 583 492 619 l 471 482 l 467 469 l 456 474 q 448 497 451 485 q 428 526 444 510 q 397 544 413 538 q 363 550 381 550 q 310 539 336 550 q 263 503 283 528 q 229 438 242 478 q 217 339 217 397 l 217 -1 l 97 -1 l 97 643 m 290 -393 l 233 -346 q 280 -281 263 -314 q 297 -224 297 -247 q 285 -192 297 -207 q 261 -161 274 -178 q 249 -119 249 -144 q 271 -62 249 -83 q 324 -42 293 -42 q 382 -69 358 -42 q 406 -146 406 -97 q 393 -224 406 -183 q 355 -306 381 -264 q 290 -393 329 -347 z "}}}
